<svg xmlns="http://www.w3.org/2000/svg" width="216" height="68" viewBox="0 0 216 68">
  <g id="Group_10362" data-name="Group 10362" transform="translate(4895 3032.825)">
    <rect id="Rectangle_2242" data-name="Rectangle 2242" width="214" height="66" rx="10" transform="translate(-4894 -3031.825)" fill="#eeecec" stroke="#c5c2c2" stroke-miterlimit="10" stroke-width="2"/>
    <path id="Path_9351" data-name="Path 9351" d="M-85.274-.188A3.028,3.028,0,0,1-85.483.828a2.252,2.252,0,0,1-.507.769,2.2,2.2,0,0,1-.781.489,2.932,2.932,0,0,1-1.035.172h-.507V1.24h.507a2.49,2.49,0,0,0,.679-.082A1.085,1.085,0,0,0-86.657.9a1.1,1.1,0,0,0,.274-.468,2.378,2.378,0,0,0,.09-.7V-2.765h1.019Zm-1.268-4.349.736-.745.753.753-.745.745Zm3.411,4.6H-84.15v-5.9h1.019Zm27.819,0h-.115A3.1,3.1,0,0,1-56.041,0a2.277,2.277,0,0,1-.544-.18,1.692,1.692,0,0,1-.444-.309,1.529,1.529,0,0,1-.317-.446,1.062,1.062,0,0,1-.252.268,1.591,1.591,0,0,1-.333.194,1.872,1.872,0,0,1-.372.117,1.859,1.859,0,0,1-.368.039,1.684,1.684,0,0,1-.62-.115A1.56,1.56,0,0,1-59.8-.755a1.524,1.524,0,0,1-.35-.513,1.729,1.729,0,0,1-.129-.683,1.716,1.716,0,0,1,.168-.777,1.977,1.977,0,0,1,.446-.587,2.768,2.768,0,0,1,.64-.43,6.15,6.15,0,0,1,.751-.309l-.1-.393,1-.233.745,2.9a.964.964,0,0,0,.213.428,1.119,1.119,0,0,0,.321.25,1.243,1.243,0,0,0,.356.119,1.942,1.942,0,0,0,.317.031h.115Zm-2.52-2.033a.823.823,0,0,0,.016-.231,1.728,1.728,0,0,0-.037-.248q-.029-.131-.076-.282t-.1-.34a3.22,3.22,0,0,0-.992.473.8.8,0,0,0-.337.652.536.536,0,0,0,.067.27.609.609,0,0,0,.176.2.725.725,0,0,0,.241.112.658.658,0,0,0,.268.014,1.228,1.228,0,0,0,.511-.182A.641.641,0,0,0-57.832-1.972Zm7.792.405-.131.088q-.11.076-.3.194a.392.392,0,0,0,.127.19.6.6,0,0,0,.176.1A.627.627,0,0,0-50-.961l.113,0h.749V.061h-.749a1.828,1.828,0,0,1-.873-.215,1.456,1.456,0,0,1-.6-.632q-.315.155-.679.309A7.465,7.465,0,0,1-52.8-.2a7.22,7.22,0,0,1-.814.192,4.793,4.793,0,0,1-.835.074h-1.219V-.957h1.219a4.833,4.833,0,0,0,.855-.082,8.719,8.719,0,0,0,.9-.211q.442-.129.841-.288a7.332,7.332,0,0,0,.693-.315l-.4-.125-.45-.135-.454-.131q-.225-.063-.421-.112t-.352-.078a1.439,1.439,0,0,0-.245-.029.553.553,0,0,0-.166.023.349.349,0,0,0-.129.074.569.569,0,0,0-.106.133,2.125,2.125,0,0,0-.1.2l-.937-.282a2.832,2.832,0,0,1,.19-.46,1.5,1.5,0,0,1,.274-.374,1.213,1.213,0,0,1,.374-.252,1.216,1.216,0,0,1,.487-.092,1.465,1.465,0,0,1,.3.045q.2.045.446.119t.534.168q.284.094.571.2l.556.2.487.178.364.133q.147.053.188.065Zm-4.418-3.592.736-.745.753.753-.745.745Zm4.949,4.2h.528A1.522,1.522,0,0,0-48.591-1a.539.539,0,0,0,.233-.121.4.4,0,0,0,.112-.194,1.084,1.084,0,0,0,.029-.262v-1.19H-47.2V-1.6a.639.639,0,0,0,.16.483.732.732,0,0,0,.507.155h0a.96.96,0,0,0,.149-.025.457.457,0,0,0,.172-.084.5.5,0,0,0,.143-.184.745.745,0,0,0,.059-.325v-1.19H-45V-1.6a.646.646,0,0,0,.16.487.739.739,0,0,0,.52.151.636.636,0,0,0,.194-.031.462.462,0,0,0,.174-.1.535.535,0,0,0,.127-.186.82.82,0,0,0,.057-.282V-2.765h1.019v1.211a.558.558,0,0,0,.192.456.925.925,0,0,0,.565.141h.4V.061h-.4a2.593,2.593,0,0,1-.732-.092,1.331,1.331,0,0,1-.536-.3,1.416,1.416,0,0,1-.489.292,1.683,1.683,0,0,1-.571.1,2.173,2.173,0,0,1-.673-.094,1.373,1.373,0,0,1-.513-.3,1.571,1.571,0,0,1-.477.29,1.532,1.532,0,0,1-.534.106,1.984,1.984,0,0,1-.677-.1A1.581,1.581,0,0,1-47.7-.319a2.007,2.007,0,0,1-1.285.38h-.528Zm9.4,0a.169.169,0,0,1,.125.043.152.152,0,0,1,.043.113v.7a.16.16,0,0,1-.043.127A.187.187,0,0,1-40.1.061h-1.71a.176.176,0,0,1-.127-.037A.176.176,0,0,1-41.978-.1V-.8a.167.167,0,0,1,.037-.113.16.16,0,0,1,.127-.043Zm1.595,0a.169.169,0,0,1,.125.043.152.152,0,0,1,.043.113v.7a.16.16,0,0,1-.043.127.187.187,0,0,1-.125.037h-1.71a.176.176,0,0,1-.127-.037A.176.176,0,0,1-40.384-.1V-.8a.167.167,0,0,1,.037-.113.16.16,0,0,1,.127-.043Zm2.151-2.418q.008.029.035.135t.059.26q.033.153.068.342t.065.378q.031.19.049.37a3.146,3.146,0,0,1,.018.315,1.766,1.766,0,0,1-.139.73,1.49,1.49,0,0,1-.364.509,1.5,1.5,0,0,1-.505.3,1.691,1.691,0,0,1-.562.1h-1.088V-.957h1.117a.992.992,0,0,0,.141-.014.46.46,0,0,0,.184-.076.524.524,0,0,0,.162-.186.705.705,0,0,0,.07-.342,2.032,2.032,0,0,0-.014-.219q-.014-.129-.039-.276t-.055-.3q-.031-.153-.059-.29t-.057-.25q-.029-.113-.045-.174ZM-38.094-5.02l.736-.745.753.753-.745.745Zm13.277,2.254v1.2a.617.617,0,0,0,.043.243.528.528,0,0,0,.11.168.535.535,0,0,0,.149.106.916.916,0,0,0,.16.059.92.92,0,0,0,.137.027q.059.006.088.006h.254V.061h-.254a2.561,2.561,0,0,1-.3-.018,2.14,2.14,0,0,1-.315-.061,1.652,1.652,0,0,1-.3-.117,1.115,1.115,0,0,1-.262-.18,1.847,1.847,0,0,1-1.211.376h-4.721a1.6,1.6,0,0,1-.573-.1,1.431,1.431,0,0,1-.479-.3,1.846,1.846,0,0,1-.17-.188,1.269,1.269,0,0,1-.157-.262,1.823,1.823,0,0,1-.115-.342,1.862,1.862,0,0,1-.045-.427A2.646,2.646,0,0,1-32.736-2q.041-.239.092-.452t.1-.368q.045-.155.057-.192L-32-2.86l.483.151q-.037.11-.078.264t-.078.317q-.037.164-.061.315a1.668,1.668,0,0,0-.025.262.769.769,0,0,0,.055.317.49.49,0,0,0,.135.184.42.42,0,0,0,.174.084.8.8,0,0,0,.168.02h4.684a1.5,1.5,0,0,0,.385-.043.5.5,0,0,0,.237-.125.449.449,0,0,0,.094-.307V-2.765Zm-3.158-.344-.687-.7.679-.7.7.7Zm-1.714,0-.687-.7.675-.7.7.7ZM-22.35-.957a.169.169,0,0,1,.125.043.152.152,0,0,1,.043.113v.7a.16.16,0,0,1-.043.127.187.187,0,0,1-.125.037h-1.71a.176.176,0,0,1-.127-.037A.176.176,0,0,1-24.224-.1V-.8a.167.167,0,0,1,.037-.113.16.16,0,0,1,.127-.043Zm1.595,0a.169.169,0,0,1,.125.043.152.152,0,0,1,.043.113v.7a.16.16,0,0,1-.043.127.187.187,0,0,1-.125.037h-1.71a.176.176,0,0,1-.127-.037A.176.176,0,0,1-22.629-.1V-.8a.167.167,0,0,1,.037-.113.16.16,0,0,1,.127-.043Zm1.595,0a.169.169,0,0,1,.125.043.152.152,0,0,1,.043.113v.7a.16.16,0,0,1-.043.127.187.187,0,0,1-.125.037h-1.71A.176.176,0,0,1-21,.025.176.176,0,0,1-21.035-.1V-.8A.167.167,0,0,1-21-.914a.16.16,0,0,1,.127-.043ZM-19.379.061V-.957h1.669A3.592,3.592,0,0,0-17.133-1a1.719,1.719,0,0,0,.378-.1.664.664,0,0,0,.219-.137.5.5,0,0,0,.106-.153,3.645,3.645,0,0,1-.978.014,1.878,1.878,0,0,1-.736-.245,1.252,1.252,0,0,1-.464-.5,1.6,1.6,0,0,1-.162-.745,1.671,1.671,0,0,1,.127-.648,1.629,1.629,0,0,1,.354-.532,1.644,1.644,0,0,1,.536-.356,1.558,1.558,0,0,1,.677-.112,1.7,1.7,0,0,1,.579.115,1.479,1.479,0,0,1,.438.27,1.523,1.523,0,0,1,.311.391,2.318,2.318,0,0,1,.2.481,3.386,3.386,0,0,1,.11.538,5.173,5.173,0,0,1,.039.563l-.016.3a2.288,2.288,0,0,1-.229.943,1.606,1.606,0,0,1-.509.585,1.954,1.954,0,0,1-.714.3,4.108,4.108,0,0,1-.843.084Zm2.3-3.551a.874.874,0,0,0-.286.023.641.641,0,0,0-.243.117.621.621,0,0,0-.168.2.594.594,0,0,0-.063.28.533.533,0,0,0,.374.513,2.035,2.035,0,0,0,1.078.043q-.008-.176-.029-.372a1.349,1.349,0,0,0-.09-.368.778.778,0,0,0-.2-.293A.637.637,0,0,0-17.084-3.49Zm-.863-2.6.736-.745.753.753-.745.745Zm5.51,6.149A4.664,4.664,0,0,1-13.21.006a2.007,2.007,0,0,1-.544-.164,1.01,1.01,0,0,1-.354-.276,1.191,1.191,0,0,1-.2-.393,2.358,2.358,0,0,1-.092-.509q-.023-.284-.023-.628V-5.838h1.019v3.874a4.817,4.817,0,0,0,.023.524.541.541,0,0,0,.119.3.489.489,0,0,0,.29.143,3.223,3.223,0,0,0,.538.035Zm1.492-1.019a.169.169,0,0,1,.125.043.152.152,0,0,1,.043.113v.7a.16.16,0,0,1-.043.127.187.187,0,0,1-.125.037h-1.71a.176.176,0,0,1-.127-.037A.176.176,0,0,1-12.818-.1V-.8a.167.167,0,0,1,.037-.113.16.16,0,0,1,.127-.043Zm2.871-2.418q.008.029.035.135t.059.26q.033.153.067.342t.065.378q.031.19.049.37a3.145,3.145,0,0,1,.018.315,1.766,1.766,0,0,1-.139.73,1.49,1.49,0,0,1-.364.509,1.5,1.5,0,0,1-.505.3,1.691,1.691,0,0,1-.562.1h-1.763V-.957h1.792A.992.992,0,0,0-9.18-.972.46.46,0,0,0-9-1.047a.524.524,0,0,0,.162-.186.705.705,0,0,0,.07-.342,2.032,2.032,0,0,0-.014-.219q-.014-.129-.039-.276t-.055-.3q-.031-.153-.059-.29t-.057-.25q-.029-.113-.045-.174Zm-.495,5.662-.687-.7.679-.7.7.7Zm-1.714,0-.687-.7.675-.7.7.7ZM-4.851-.188A3.028,3.028,0,0,1-5.06.828a2.252,2.252,0,0,1-.507.769,2.2,2.2,0,0,1-.781.489,2.932,2.932,0,0,1-1.035.172h-.507V1.24h.507A2.489,2.489,0,0,0-6.7,1.158,1.085,1.085,0,0,0-6.234.9,1.1,1.1,0,0,0-5.96.428a2.378,2.378,0,0,0,.09-.7V-2.765h1.019Zm2.7.254A2.853,2.853,0,0,1-2.463.049Q-2.614.033-2.77,0t-.319-.072q-.164-.043-.344-.1l-.487-.147.295-.982q.356.123.738.217a4.683,4.683,0,0,0,.72.123A1.952,1.952,0,0,0-1.581-.98a.449.449,0,0,0,.333-.235.2.2,0,0,0,.006-.143.575.575,0,0,0-.088-.18L-2.855-3.764-2-4.32l.278.43a.085.085,0,0,0,.014.025l.057.086.123.186.211.317.321.485.456.689a1.566,1.566,0,0,1,.256.65,1.169,1.169,0,0,1-.084.638,1.165,1.165,0,0,1-.186.3A1.372,1.372,0,0,1-.822-.27a1.766,1.766,0,0,1-.7.274A3.626,3.626,0,0,1-2.156.065Z" transform="translate(-4772.305 -3013.024)" fill="#4d4e4e"/>
    <g id="Group_9048" data-name="Group 9048" transform="translate(-4861.679 -3006.512)">
      <path id="Path_4643" data-name="Path 4643" d="M18.123,701.753c-.016,1.458,0,2.919,0,4.38,0,1.079,0,2.158,0,3.238,0-1.079,0-2.158,0-3.238C18.12,704.672,18.106,703.212,18.123,701.753Z" transform="translate(-18.115 -689.146)" fill="#0d0e0e"/>
      <path id="Path_4644" data-name="Path 4644" d="M37.623,700.524c-2.031-.023-4.062.016-6.093-.016-1.155-.019-2.168.193-2.677,1.36a2.722,2.722,0,0,0,.676,3.127c1.322,1.454,2.63,2.922,3.9,4.423a5.144,5.144,0,0,1-3.645,8.617,6.386,6.386,0,0,1-7.066-6.482c-.08-2.726-.007-5.457-.021-8.188-.009-1.831-.855-2.849-2.307-2.832-1.4.016-2.246,1.082-2.264,2.912-.016,1.458,0,2.919,0,4.38,0,1.079,0,2.158,0,3.238.031,6.122,3.544,10.375,9.611,11.242a9.784,9.784,0,0,0,9.779-4.168c2.3-3.138,2.029-6.369.179-9.6-.408-.712-.9-1.374-1.353-2.059-.2-.3-.65-.523-.483-.952.21-.526.74-.361,1.162-.394.254-.019.509-.012.761-.033,1.517-.12,2.59-.737,2.479-2.453C40.151,701.036,39.035,700.543,37.623,700.524Z" transform="translate(-18.115 -690.836)" fill="#0d0e0e"/>
      <path id="Path_4645" data-name="Path 4645" d="M34.1,700.749a7.624,7.624,0,0,0,1.746,15.092c.8-.023,1.6-.12,2.6-.2a3.314,3.314,0,0,1-2.312,1.734c-.907.243-1.866.287-2.795.467a1.982,1.982,0,0,0-1.72,2.168,1.92,1.92,0,0,0,1.7,1.963c3.921.794,8.3-1.581,9.213-5.49a23.787,23.787,0,0,0,0-10.733A7.048,7.048,0,0,0,34.1,700.749ZM35.571,711.3a3.2,3.2,0,0,1-3.009-3.068,3.089,3.089,0,0,1,3.174-3.058,2.969,2.969,0,0,1,2.955,3.032A3.063,3.063,0,0,1,35.571,711.3Z" transform="translate(-4.727 -690.745)" fill="#0d0e0e"/>
      <path id="Path_4646" data-name="Path 4646" d="M58.725,707.9c-1.543.009-2.116,1.119-2.1,2.594.024,2.22.052,4.442-.019,6.659a2.873,2.873,0,0,1-2.667,2.945,2.922,2.922,0,0,1-3.36-1.862,5.9,5.9,0,0,1-.243-2.248c-.019-5.707-.009-11.416-.012-17.123,0-1.465-.54-2.535-2.18-2.462-1.536.068-1.93,1.117-1.911,2.5.04,3.108.012,6.216.012,9.324,0,2.981-.021,5.961,0,8.942a6.986,6.986,0,0,0,7.264,7.09,7.118,7.118,0,0,0,7.271-7.135c.021-2.22-.038-4.442.019-6.659C60.843,708.967,60.28,707.891,58.725,707.9Z" transform="translate(20.023 -696.403)" fill="#0d0e0e"/>
      <path id="Path_4647" data-name="Path 4647" d="M46.776,709.525c-.068-.947-.064-1.906-.214-2.839a7.223,7.223,0,0,0-8.49-5.976c-1.367.271-2.91.643-2.634,2.575.262,1.828,1.541,2,3.129,1.779a3.284,3.284,0,0,1,3.914,3.313c.031.7-.035,1.4.04,2.092a3.033,3.033,0,0,1-2.189,3.358,8.371,8.371,0,0,1-2.773.58,1.967,1.967,0,0,0-2.147,2.132c.019,1.423.881,1.911,2.205,2.05A8.116,8.116,0,0,0,46.776,709.525Z" transform="translate(5.336 -690.745)" fill="#0d0e0e"/>
      <path id="Path_4648" data-name="Path 4648" d="M55.762,696.483c-1.461.052-1.953,1.053-1.932,2.488.059,3.8.021,7.611.021,11.416,0,3.869.026,7.738-.014,11.607-.014,1.409.431,2.422,1.951,2.474,1.631.052,2.168-1.013,2.168-2.486q-.007-11.512,0-23.026C57.962,697.44,57.321,696.429,55.762,696.483Z" transform="translate(30.323 -696.296)" fill="#0d0e0e"/>
      <path id="Path_4649" data-name="Path 4649" d="M49.218,700.612c-1.609,0-2.092,1.1-2.081,2.561.024,3.294.007,6.591.007,9.885,0,3.132-1.053,4.3-4.194,4.666a7.03,7.03,0,0,0-1.5.177,1.93,1.93,0,0,0-1.484,2.147,2.017,2.017,0,0,0,1.8,1.885,8.086,8.086,0,0,0,9.583-7.952c.016-1.711,0-3.421,0-5.132,0-1.9,0-3.8,0-5.7C51.364,701.684,50.8,700.61,49.218,700.612Z" transform="translate(11.502 -690.693)" fill="#0d0e0e"/>
      <path id="Path_4650" data-name="Path 4650" d="M27,701.444a1.922,1.922,0,0,0,2.095-2.172,1.863,1.863,0,0,0-2.055-1.984,2.078,2.078,0,1,0-.04,4.156Z" transform="translate(-8.872 -695.203)" fill="#0d0e0e"/>
      <path id="Path_4651" data-name="Path 4651" d="M52.646,701.429c1.225.007,1.944-.735,2.076-2.069a1.971,1.971,0,0,0-2.1-2.071,1.859,1.859,0,0,0-2.038,1.979A1.92,1.92,0,0,0,52.646,701.429Z" transform="translate(25.918 -695.2)" fill="#0d0e0e"/>
    </g>
    <g id="Group_9052" data-name="Group 9052" transform="translate(-4747.381 -3023.733)">
      <path id="Path_4652" data-name="Path 4652" d="M71.243,690.575l3.707,2.4,3.271-2.4,3.053,2.4,3.779-2.4-.518,6.9-12.556.363Z" transform="translate(-55.286 -690.575)" fill="#e51f1a"/>
      <path id="Path_4653" data-name="Path 4653" d="M73.933,690.575l3.053,2.4,3.779-2.4-.518,6.9-6.019.174Z" transform="translate(-50.998 -690.575)" fill="#ed594f"/>
      <ellipse id="Ellipse_618" data-name="Ellipse 618" cx="22.98" cy="23.04" rx="22.98" ry="23.04" transform="translate(0 5.718)" fill="#e51f1a"/>
      <g id="Group_9049" data-name="Group 9049" transform="translate(15.103 8.392)">
        <path id="Path_4654" data-name="Path 4654" d="M70.938,714.1a42.494,42.494,0,0,1,2.008-13.848c2.114-5.967,4.584-7.331,10.691-5.943,9.547,2.174,16.258,11.7,15.329,21.753C98.047,726,90,733.982,80.544,734.526a6.176,6.176,0,0,1-6.369-3.645c-2.335-4.387-2.851-9.181-3.227-14.009C70.878,715.954,70.938,715.026,70.938,714.1Z" transform="translate(-70.914 -693.81)" fill="#fff6f2"/>
      </g>
      <g id="Group_9050" data-name="Group 9050" transform="translate(18.252 12.95)">
        <path id="Path_4655" data-name="Path 4655" d="M72.146,711.317a33.06,33.06,0,0,1,1.557-10.75c1.642-4.631,3.559-5.689,8.3-4.612a15.889,15.889,0,0,1,11.9,16.883c-.713,7.713-6.958,13.91-14.3,14.333a4.792,4.792,0,0,1-4.942-2.828c-1.813-3.406-2.213-7.126-2.506-10.875C72.1,712.754,72.146,712.035,72.146,711.317Z" transform="translate(-72.128 -695.567)" fill="#f7a79e"/>
      </g>
      <path id="Path_4656" data-name="Path 4656" d="M76.852,695.758c-1.362.677-2.293,2.114-3.149,4.522a33.071,33.071,0,0,0-1.557,10.751c0,.719-.047,1.44.008,2.153.293,3.746.693,7.469,2.506,10.872a5.235,5.235,0,0,0,2.192,2.327Z" transform="translate(-53.876 -682.312)" fill="#f27e76"/>
      <g id="Group_9051" data-name="Group 9051" transform="translate(21.529 12.051)">
        <circle id="Ellipse_619" data-name="Ellipse 619" cx="3.407" cy="3.407" r="3.407" transform="translate(5.819)" fill="#e51f1a"/>
        <circle id="Ellipse_620" data-name="Ellipse 620" cx="3.407" cy="3.407" r="3.407" transform="translate(5.819 26.601)" fill="#e51f1a"/>
        <circle id="Ellipse_621" data-name="Ellipse 621" cx="2.644" cy="2.644" r="2.644" transform="translate(12.306 6.114)" fill="#e51f1a"/>
        <circle id="Ellipse_622" data-name="Ellipse 622" cx="2.644" cy="2.644" r="2.644" transform="translate(14.214 14.127)" fill="#e51f1a"/>
        <circle id="Ellipse_623" data-name="Ellipse 623" cx="2.644" cy="2.644" r="2.644" transform="translate(12.306 21.65)" fill="#e51f1a"/>
        <circle id="Ellipse_624" data-name="Ellipse 624" cx="2.644" cy="2.644" r="2.644" transform="translate(6.309 14.127)" fill="#e51f1a"/>
        <circle id="Ellipse_625" data-name="Ellipse 625" cx="2.644" cy="2.644" r="2.644" transform="translate(2.766 7.314)" fill="#e51f1a"/>
        <circle id="Ellipse_626" data-name="Ellipse 626" cx="2.644" cy="2.644" r="2.644" transform="translate(2.766 20.669)" fill="#e51f1a"/>
        <circle id="Ellipse_627" data-name="Ellipse 627" cx="1.792" cy="1.792" r="1.792" transform="translate(0 14.969)" fill="#e51f1a"/>
        <circle id="Ellipse_628" data-name="Ellipse 628" cx="0.737" cy="0.737" r="0.737" transform="translate(3.39 4.64)" fill="#e51f1a"/>
        <circle id="Ellipse_629" data-name="Ellipse 629" cx="0.737" cy="0.737" r="0.737" transform="translate(9.822 8.946)" fill="#e51f1a"/>
        <circle id="Ellipse_630" data-name="Ellipse 630" cx="0.737" cy="0.737" r="0.737" transform="translate(12.168 16.034)" fill="#e51f1a"/>
        <circle id="Ellipse_631" data-name="Ellipse 631" cx="0.737" cy="0.737" r="0.737" transform="translate(9.822 22.684)" fill="#e51f1a"/>
        <circle id="Ellipse_632" data-name="Ellipse 632" cx="0.737" cy="0.737" r="0.737" transform="translate(3.584 26.718)" fill="#e51f1a"/>
      </g>
    </g>
    <path id="Path_9352" data-name="Path 9352" d="M-17.514,0h-.81V-4.754h.81Zm-.88-6.018a.482.482,0,0,1,.123-.333.458.458,0,0,1,.36-.137.458.458,0,0,1,.36.137.485.485,0,0,1,.123.335.463.463,0,0,1-.123.329.47.47,0,0,1-.36.131.47.47,0,0,1-.36-.131A.465.465,0,0,1-18.394-6.018Zm7.134,3.023a3.957,3.957,0,0,1-.317,1.642,2.392,2.392,0,0,1-.9,1.07,2.475,2.475,0,0,1-1.354.368,2.448,2.448,0,0,1-1.338-.37,2.447,2.447,0,0,1-.908-1.058,3.794,3.794,0,0,1-.331-1.6V-3.4a3.913,3.913,0,0,1,.321-1.632,2.455,2.455,0,0,1,.906-1.084,2.425,2.425,0,0,1,1.342-.376,2.478,2.478,0,0,1,1.356.372,2.4,2.4,0,0,1,.9,1.078A3.975,3.975,0,0,1-11.26-3.4Zm-.843-.413a2.866,2.866,0,0,0-.456-1.745,1.507,1.507,0,0,0-1.278-.607,1.493,1.493,0,0,0-1.258.607,2.8,2.8,0,0,0-.472,1.692v.466A2.87,2.87,0,0,0-15.1-1.26a1.5,1.5,0,0,0,1.274.63,1.492,1.492,0,0,0,1.266-.6,2.855,2.855,0,0,0,.46-1.708Zm3.894.556a3.951,3.951,0,0,1-1.579-.767,1.467,1.467,0,0,1-.495-1.123,1.549,1.549,0,0,1,.605-1.252,2.4,2.4,0,0,1,1.571-.495,2.62,2.62,0,0,1,1.176.256,1.929,1.929,0,0,1,.8.7,1.8,1.8,0,0,1,.282.98H-6.7a1.162,1.162,0,0,0-.37-.912,1.508,1.508,0,0,0-1.041-.331,1.539,1.539,0,0,0-.972.274.917.917,0,0,0-.35.765A.821.821,0,0,0-9.1-4.1a3.265,3.265,0,0,0,1.129.5,5.25,5.25,0,0,1,1.248.5,1.887,1.887,0,0,1,.667.63,1.618,1.618,0,0,1,.217.851A1.491,1.491,0,0,1-6.442-.38a2.587,2.587,0,0,1-1.62.466A3.027,3.027,0,0,1-9.293-.166a2.054,2.054,0,0,1-.882-.691,1.691,1.691,0,0,1-.309-1h.847a1.1,1.1,0,0,0,.43.914A1.8,1.8,0,0,0-8.062-.6,1.658,1.658,0,0,0-7.039-.873a.884.884,0,0,0,.356-.742.871.871,0,0,0-.329-.728A3.773,3.773,0,0,0-8.209-2.851Z" transform="translate(-4831.595 -3012.958)" fill="#4d4e4e"/>
  </g>
</svg>
