<svg xmlns="http://www.w3.org/2000/svg" width="216" height="68" viewBox="0 0 216 68">
  <g id="Group_10364" data-name="Group 10364" transform="translate(5125 2952.825)">
    <rect id="Rectangle_2242" data-name="Rectangle 2242" width="214" height="66" rx="10" transform="translate(-5124 -2951.825)" fill="#090a0a" stroke="#969394" stroke-miterlimit="10" stroke-width="2"/>
    <path id="Path_9349" data-name="Path 9349" d="M-48.941.1h-.552a2.48,2.48,0,0,1-1.732-.8,1.932,1.932,0,0,1-.535.44,3.127,3.127,0,0,1-.665.276,4.333,4.333,0,0,1-.719.143,6.277,6.277,0,0,1-.7.041,4.578,4.578,0,0,1-.525-.031q-.266-.031-.6-.1t-.774-.191q-.436-.119-1.043-.3l.491-1.63q.416.164.859.29t.866.2a6.709,6.709,0,0,0,.811.1,3.621,3.621,0,0,0,.7-.017,1.567,1.567,0,0,0,.522-.153.585.585,0,0,0,.29-.3.387.387,0,0,0,.034-.147.405.405,0,0,0-.038-.153,1.455,1.455,0,0,0-.119-.215q-.082-.126-.211-.331l-2.42-3.4,1.432-.92,2.434,3.689q.2.3.416.62t.436.583a3.35,3.35,0,0,0,.423.433.61.61,0,0,0,.375.17h.552ZM-46.3-1.6a.282.282,0,0,1,.208.072.254.254,0,0,1,.072.188V-.17a.266.266,0,0,1-.072.211A.311.311,0,0,1-46.3.1h-2.85a.294.294,0,0,1-.211-.061.294.294,0,0,1-.061-.211V-1.336a.278.278,0,0,1,.061-.188.266.266,0,0,1,.211-.072Zm2.823,0a.282.282,0,0,1,.208.072.254.254,0,0,1,.072.188V-.17a.266.266,0,0,1-.072.211A.311.311,0,0,1-43.48.1h-2.85a.294.294,0,0,1-.211-.061A.294.294,0,0,1-46.6-.17V-1.336a.278.278,0,0,1,.061-.188A.266.266,0,0,1-46.33-1.6Zm2.823,0a.282.282,0,0,1,.208.072.254.254,0,0,1,.072.188V-.17a.266.266,0,0,1-.072.211A.311.311,0,0,1-40.657.1h-2.85a.294.294,0,0,1-.211-.061A.294.294,0,0,1-43.78-.17V-1.336a.278.278,0,0,1,.061-.188.266.266,0,0,1,.211-.072Zm4.95-4.03q.014.048.058.225t.1.433q.055.256.113.569t.109.631q.051.317.082.617a5.243,5.243,0,0,1,.031.525,2.944,2.944,0,0,1-.232,1.217,2.483,2.483,0,0,1-.607.849,2.5,2.5,0,0,1-.842.5A2.819,2.819,0,0,1-37.834.1h-2.939V-1.6h2.986a1.653,1.653,0,0,0,.235-.024.766.766,0,0,0,.307-.126.873.873,0,0,0,.269-.31,1.175,1.175,0,0,0,.116-.569,3.386,3.386,0,0,0-.024-.365q-.024-.215-.065-.46t-.092-.5q-.051-.256-.1-.484t-.1-.416q-.048-.187-.075-.29Zm-.825,9.436-1.145-1.159,1.132-1.173,1.173,1.173Zm-2.857.007-1.145-1.159,1.125-1.173,1.173,1.173ZM-33.5,2.066q.545,0,.972-.037a6.157,6.157,0,0,0,.757-.109,2.9,2.9,0,0,0,.58-.184,1.817,1.817,0,0,0,.433-.269,1.55,1.55,0,0,0,.433-.539A2.211,2.211,0,0,0-30.157.1h-1.05a4.57,4.57,0,0,1-.7-.055,3.029,3.029,0,0,1-.682-.188A2.889,2.889,0,0,1-33.2-.484a2.162,2.162,0,0,1-.5-.522,2.568,2.568,0,0,1-.341-.733,3.39,3.39,0,0,1-.126-.968,3.838,3.838,0,0,1,.082-.835,3.353,3.353,0,0,1,.208-.644,2.546,2.546,0,0,1,.283-.487q.157-.208.3-.365a2.933,2.933,0,0,1,.927-.631,2.814,2.814,0,0,1,1.118-.222,2.9,2.9,0,0,1,1.272.256,2.334,2.334,0,0,1,.866.706,2.979,2.979,0,0,1,.494,1.067,5.43,5.43,0,0,1,.157,1.34V-.1a4.212,4.212,0,0,1-.307,1.708,3.121,3.121,0,0,1-.934,1.19,3.866,3.866,0,0,1-.682.426,4.551,4.551,0,0,1-.825.3,6.514,6.514,0,0,1-1.019.181,12.515,12.515,0,0,1-1.272.058Zm2.25-6.259a1.205,1.205,0,0,0-.92.361,1.594,1.594,0,0,0-.341,1.125A1.025,1.025,0,0,0-32.4-2.2a1.045,1.045,0,0,0,.307.344,1.288,1.288,0,0,0,.419.194,1.805,1.805,0,0,0,.464.061h1.05v-.927a3.108,3.108,0,0,0-.061-.665,1.806,1.806,0,0,0-.16-.46,1.02,1.02,0,0,0-.225-.293,1.047,1.047,0,0,0-.245-.164.878.878,0,0,0-.228-.072A1.2,1.2,0,0,0-31.255-4.193Zm8.407,3.88A5.047,5.047,0,0,1-23.2,1.381a3.753,3.753,0,0,1-.845,1.282,3.675,3.675,0,0,1-1.3.815,4.886,4.886,0,0,1-1.725.286h-.845v-1.7h.845a4.149,4.149,0,0,0,1.132-.136,1.808,1.808,0,0,0,.784-.436A1.83,1.83,0,0,0-24.7.712a3.963,3.963,0,0,0,.15-1.169V-4.609h1.7ZM-14.155.1h-.552a2.48,2.48,0,0,1-1.732-.8,1.932,1.932,0,0,1-.535.44,3.127,3.127,0,0,1-.665.276,4.333,4.333,0,0,1-.719.143,6.277,6.277,0,0,1-.7.041,4.578,4.578,0,0,1-.525-.031q-.266-.031-.6-.1t-.774-.191Q-21.4-.239-22-.423l.491-1.63q.416.164.859.29t.866.2a6.709,6.709,0,0,0,.811.1,3.621,3.621,0,0,0,.7-.017,1.567,1.567,0,0,0,.522-.153.585.585,0,0,0,.29-.3.387.387,0,0,0,.034-.147.405.405,0,0,0-.038-.153,1.455,1.455,0,0,0-.119-.215q-.082-.126-.211-.331l-2.42-3.4,1.432-.92,2.434,3.689q.2.3.416.62t.436.583a3.35,3.35,0,0,0,.423.433.61.61,0,0,0,.375.17h.552Zm2.639-1.7a.282.282,0,0,1,.208.072.254.254,0,0,1,.072.188V-.17a.266.266,0,0,1-.072.211A.311.311,0,0,1-11.516.1h-2.85a.294.294,0,0,1-.211-.061.294.294,0,0,1-.061-.211V-1.336a.278.278,0,0,1,.061-.188.266.266,0,0,1,.211-.072Zm2.823,0a.282.282,0,0,1,.208.072.254.254,0,0,1,.072.188V-.17a.266.266,0,0,1-.072.211A.311.311,0,0,1-8.693.1h-2.85a.294.294,0,0,1-.211-.061.294.294,0,0,1-.061-.211V-1.336a.278.278,0,0,1,.061-.188.266.266,0,0,1,.211-.072Zm3.75-4.03q.014.048.058.225t.1.433q.055.256.113.569t.109.631q.051.317.082.617a5.243,5.243,0,0,1,.031.525,2.944,2.944,0,0,1-.232,1.217,2.483,2.483,0,0,1-.607.849,2.5,2.5,0,0,1-.842.5A2.819,2.819,0,0,1-7.07.1H-8.884V-1.6h1.861a1.653,1.653,0,0,0,.235-.024.766.766,0,0,0,.307-.126.873.873,0,0,0,.269-.31A1.175,1.175,0,0,0-6.1-2.625a3.386,3.386,0,0,0-.024-.365q-.024-.215-.065-.46t-.092-.5q-.051-.256-.1-.484t-.1-.416q-.048-.187-.075-.29ZM-7.834-8.366l1.227-1.241,1.255,1.255L-6.593-7.111ZM-1.173.1h-1.7V-9.73h1.7Z" transform="translate(-4963.935 -2905.367)" fill="#fff"/>
    <path id="Path_9348" data-name="Path 9348" d="M-96.464-6.034a2.74,2.74,0,0,1,1.214.256,2.6,2.6,0,0,1,.883.692,3.029,3.029,0,0,1,.542,1.016,4.007,4.007,0,0,1,.184,1.22v.174q0,.085-.007.16a.794.794,0,0,0,.15.457,1.071,1.071,0,0,0,.314.28,1.291,1.291,0,0,0,.355.143,1.313,1.313,0,0,0,.273.041h.191V.1h-.191A3.554,3.554,0,0,1-93.6-.031a1.611,1.611,0,0,1-.712-.44,1.788,1.788,0,0,1-.419.368,2.049,2.049,0,0,1-.443.208A2.244,2.244,0,0,1-95.6.2a2.945,2.945,0,0,1-.348.024A2.3,2.3,0,0,1-96.6.116a7.22,7.22,0,0,1-.777-.286q-.413-.177-.866-.409t-.91-.47l-.317-.164-.286-.147-.283-.143q-.143-.072-.307-.147,0,1.541.007,3.078t.007,3.072h-1.643l-.007-7.064,1.6-.968,1.1.552a8.617,8.617,0,0,1,.307-1.149,3.579,3.579,0,0,1,.511-.985,2.337,2.337,0,0,1,.8-.682A2.455,2.455,0,0,1-96.464-6.034Zm.518,4.568q.061,0,.188-.01a.445.445,0,0,0,.259-.133,1,1,0,0,0,.232-.409,2.683,2.683,0,0,0,.1-.832,1.8,1.8,0,0,0-.017-.2,1.819,1.819,0,0,0-.068-.3,2.117,2.117,0,0,0-.14-.341,1.249,1.249,0,0,0-.232-.317,1.183,1.183,0,0,0-.341-.235,1.107,1.107,0,0,0-.47-.092,2.41,2.41,0,0,0-.252.014.787.787,0,0,0-.262.078.959.959,0,0,0-.262.2,1.516,1.516,0,0,0-.249.365,3.459,3.459,0,0,0-.225.586,6.9,6.9,0,0,0-.187.866q.266.143.545.28t.535.245a4.3,4.3,0,0,0,.477.174A1.371,1.371,0,0,0-95.945-1.466ZM-85.3-1.6V.1H-86.3a3.371,3.371,0,0,1-1.057-.157,2.128,2.128,0,0,1-.8-.464,2.43,2.43,0,0,1-.9.47,4.31,4.31,0,0,1-1.19.15h-2.359V-1.6h2.359a2.28,2.28,0,0,0,.665-.078.993.993,0,0,0,.375-.194.535.535,0,0,0,.164-.259,1.1,1.1,0,0,0,.037-.28V-4.616h1.691v2.161a.76.76,0,0,0,.136.481.9.9,0,0,0,.31.259,1.009,1.009,0,0,0,.344.1q.17.017.232.017ZM-88.07,3.852l-1.145-1.159,1.132-1.173,1.173,1.173Zm-2.857.007L-92.073,2.7l1.125-1.173L-89.775,2.7Zm9.32-9.77a2.674,2.674,0,0,1,1.135.232,2.645,2.645,0,0,1,.849.61,2.66,2.66,0,0,1,.532.863,2.778,2.778,0,0,1,.184,1,3.235,3.235,0,0,1-.034.5,1.865,1.865,0,0,1-.106.4,2.257,2.257,0,0,1-.174.348q-.1.167-.239.358.123.007.269.01t.293,0h1.012V.1h-.491q-.436,0-.89-.027T-80.151,0q-.433-.051-.822-.123t-.7-.16A10.059,10.059,0,0,1-83.059,0,13.063,13.063,0,0,1-84.818.1h-.716V-1.6h.716q.184,0,.293,0t.2,0q.089,0,.184,0t.239-.017a3.334,3.334,0,0,1-.436-.757,2.26,2.26,0,0,1-.15-.845,2.443,2.443,0,0,1,.225-1.03,2.765,2.765,0,0,1,.617-.863,2.983,2.983,0,0,1,.917-.59A2.9,2.9,0,0,1-81.607-5.911ZM-82.882-3.2a1.124,1.124,0,0,0,.341.825,2.521,2.521,0,0,0,.886.552,3.323,3.323,0,0,0,.477-.232,1.778,1.778,0,0,0,.378-.3,1.269,1.269,0,0,0,.252-.382,1.209,1.209,0,0,0,.092-.481.813.813,0,0,0-.082-.341,1.091,1.091,0,0,0-.232-.324,1.243,1.243,0,0,0-.361-.242,1.147,1.147,0,0,0-.477-.1,1.6,1.6,0,0,0-.539.085,1.27,1.27,0,0,0-.4.225.946.946,0,0,0-.249.324A.9.9,0,0,0-82.882-3.2Zm2.53-4.289L-81.5-8.645l1.132-1.173,1.173,1.173Zm-2.857.007-1.145-1.159,1.125-1.173,1.173,1.173Zm10.125,1.05L-74.23-7.589-73.1-8.761l1.173,1.173Zm-2.857.007-1.145-1.159,1.125-1.173,1.173,1.173Zm5.2,4.827V.1h-1.009a3.371,3.371,0,0,1-1.057-.157,2.128,2.128,0,0,1-.8-.464,2.43,2.43,0,0,1-.9.47,4.31,4.31,0,0,1-1.19.15h-2.359V-1.6h2.359a2.28,2.28,0,0,0,.665-.078.993.993,0,0,0,.375-.194.535.535,0,0,0,.164-.259,1.1,1.1,0,0,0,.037-.28V-4.616h1.691v2.161a.76.76,0,0,0,.136.481.9.9,0,0,0,.31.259,1.009,1.009,0,0,0,.344.1q.17.017.232.017Zm-.3,0h.88a2.537,2.537,0,0,0,.651-.068.9.9,0,0,0,.389-.2.658.658,0,0,0,.188-.324,1.806,1.806,0,0,0,.048-.436V-4.609h1.7v1.95a1.066,1.066,0,0,0,.266.8,1.219,1.219,0,0,0,.845.259h-.007a1.6,1.6,0,0,0,.249-.041.761.761,0,0,0,.286-.14.839.839,0,0,0,.239-.307,1.242,1.242,0,0,0,.1-.542V-4.609h1.691v1.95a1.076,1.076,0,0,0,.266.811,1.232,1.232,0,0,0,.866.252,1.059,1.059,0,0,0,.324-.051.77.77,0,0,0,.29-.17.892.892,0,0,0,.211-.31,1.367,1.367,0,0,0,.1-.47V-4.609h1.7v2.018a.93.93,0,0,0,.32.76,1.541,1.541,0,0,0,.941.235h.668V.1h-.668a4.322,4.322,0,0,1-1.22-.153,2.219,2.219,0,0,1-.893-.5,2.36,2.36,0,0,1-.815.487A2.805,2.805,0,0,1-62.393.1a3.622,3.622,0,0,1-1.122-.157,2.289,2.289,0,0,1-.856-.5,2.617,2.617,0,0,1-.794.484,2.553,2.553,0,0,1-.89.177,3.307,3.307,0,0,1-1.128-.164,2.634,2.634,0,0,1-.842-.47A3.345,3.345,0,0,1-70.166.1h-.88Zm17.925.409a1.237,1.237,0,0,0,.194-.024.559.559,0,0,0,.269-.147,1.036,1.036,0,0,0,.242-.378,1.945,1.945,0,0,0,.106-.719,2.07,2.07,0,0,0-.065-.453,1.836,1.836,0,0,0-.225-.539,1.5,1.5,0,0,0-.43-.45,1.16,1.16,0,0,0-.678-.188.812.812,0,0,0-.58.211,1.789,1.789,0,0,0-.378.525,4.2,4.2,0,0,0-.259.678A6.64,6.64,0,0,1-55.152-2q.252.143.535.29t.556.263a5.438,5.438,0,0,0,.515.191A1.465,1.465,0,0,0-53.12-1.186Zm-.586-4.589a2.779,2.779,0,0,1,1.251.266,2.556,2.556,0,0,1,.886.713,3.059,3.059,0,0,1,.525,1.033,4.3,4.3,0,0,1,.174,1.227,5.112,5.112,0,0,1-.123,1.207,2.9,2.9,0,0,1-.324.825,1.785,1.785,0,0,1-.457.515,2.035,2.035,0,0,1-.511.28,2.068,2.068,0,0,1-.494.116q-.239.024-.409.024a3.13,3.13,0,0,1-.648-.065A4.285,4.285,0,0,1-54.46.181a6.468,6.468,0,0,1-.658-.293q-.341-.174-.743-.392a1.842,1.842,0,0,1-.658.467,2.214,2.214,0,0,1-.822.14h-.839l-.014-1.7h.852a.412.412,0,0,0,.262-.089.851.851,0,0,0,.2-.249,2.253,2.253,0,0,0,.17-.389q.078-.228.16-.508.136-.491.327-1.012a3.779,3.779,0,0,1,.508-.951,2.555,2.555,0,0,1,.8-.706A2.391,2.391,0,0,1-53.707-5.775Zm22.152,1.166v2a1.028,1.028,0,0,0,.072.406.88.88,0,0,0,.184.28.892.892,0,0,0,.249.177,1.527,1.527,0,0,0,.266.1,1.533,1.533,0,0,0,.228.044q.1.01.147.01h.423V.1h-.423A4.269,4.269,0,0,1-30.9.072a3.567,3.567,0,0,1-.525-.1,2.753,2.753,0,0,1-.508-.194,1.858,1.858,0,0,1-.436-.3A3.079,3.079,0,0,1-34.391.1h-7.868a2.672,2.672,0,0,1-.955-.17,2.385,2.385,0,0,1-.8-.5,3.077,3.077,0,0,1-.283-.314,2.114,2.114,0,0,1-.263-.436,3.038,3.038,0,0,1-.191-.569,3.1,3.1,0,0,1-.075-.713,4.41,4.41,0,0,1,.068-.74q.068-.4.153-.753t.16-.614q.075-.259.1-.32l.811.259.8.252q-.061.184-.13.44t-.13.528q-.061.273-.1.525a2.781,2.781,0,0,0-.041.436,1.282,1.282,0,0,0,.092.528.817.817,0,0,0,.225.307.7.7,0,0,0,.29.14,1.332,1.332,0,0,0,.28.034h7.807a2.493,2.493,0,0,0,.641-.072.833.833,0,0,0,.4-.208.748.748,0,0,0,.157-.511V-4.609Zm-5.264-.573-1.145-1.159,1.132-1.173,1.173,1.173Zm-2.857.007L-40.82-6.334-39.7-7.507l1.173,1.173ZM-30.3.1V-1.6h2.782a5.986,5.986,0,0,0,.961-.065,2.864,2.864,0,0,0,.631-.167,1.107,1.107,0,0,0,.365-.228.839.839,0,0,0,.177-.256,6.075,6.075,0,0,1-1.63.024A3.13,3.13,0,0,1-28.241-2.7a2.087,2.087,0,0,1-.774-.828,2.66,2.66,0,0,1-.269-1.241,2.785,2.785,0,0,1,.211-1.081,2.714,2.714,0,0,1,.59-.886,2.741,2.741,0,0,1,.893-.593,2.6,2.6,0,0,1,1.128-.187,2.833,2.833,0,0,1,.965.191,2.465,2.465,0,0,1,.73.45,2.538,2.538,0,0,1,.518.651,3.863,3.863,0,0,1,.334.8,5.644,5.644,0,0,1,.184.9,8.622,8.622,0,0,1,.065.938l-.027.5a3.813,3.813,0,0,1-.382,1.572,2.676,2.676,0,0,1-.849.975,3.256,3.256,0,0,1-1.19.5,6.846,6.846,0,0,1-1.4.14Zm3.825-5.918a1.456,1.456,0,0,0-.477.037,1.068,1.068,0,0,0-.406.194,1.035,1.035,0,0,0-.28.338.99.99,0,0,0-.106.467.888.888,0,0,0,.624.856,3.392,3.392,0,0,0,1.8.072q-.014-.293-.048-.62a2.248,2.248,0,0,0-.15-.614,1.3,1.3,0,0,0-.341-.487A1.062,1.062,0,0,0-26.475-5.816Zm-1.439-4.33,1.227-1.241,1.255,1.255-1.241,1.241ZM-18.566.1A7.773,7.773,0,0,1-19.855.01a3.346,3.346,0,0,1-.907-.273,1.683,1.683,0,0,1-.59-.46,1.986,1.986,0,0,1-.337-.655,3.93,3.93,0,0,1-.153-.849q-.037-.474-.038-1.047V-9.73h1.7v6.457a8.028,8.028,0,0,0,.038.873.9.9,0,0,0,.2.508.816.816,0,0,0,.484.239,5.371,5.371,0,0,0,.9.058Zm4.78-5.727q.014.048.058.225t.1.433q.055.256.112.569t.109.631q.051.317.082.617a5.243,5.243,0,0,1,.031.525,2.944,2.944,0,0,1-.232,1.217,2.483,2.483,0,0,1-.607.849,2.5,2.5,0,0,1-.842.5A2.819,2.819,0,0,1-15.914.1h-2.939V-1.6h2.986a1.653,1.653,0,0,0,.235-.024.766.766,0,0,0,.307-.126.873.873,0,0,0,.269-.31,1.175,1.175,0,0,0,.116-.569,3.386,3.386,0,0,0-.024-.365q-.024-.215-.065-.46t-.092-.5q-.051-.256-.1-.484t-.1-.416q-.048-.187-.075-.29Zm-.825,9.436-1.145-1.159,1.132-1.173,1.173,1.173Zm-2.857.007-1.145-1.159,1.125-1.173,1.173,1.173ZM-8.25-.314A5.047,5.047,0,0,1-8.6,1.381a3.753,3.753,0,0,1-.845,1.282,3.675,3.675,0,0,1-1.3.815,4.886,4.886,0,0,1-1.725.286h-.845v-1.7h.845a4.149,4.149,0,0,0,1.132-.136,1.808,1.808,0,0,0,.784-.436A1.83,1.83,0,0,0-10.1.712a3.963,3.963,0,0,0,.15-1.169V-4.609h1.7Zm4.657.423A4.754,4.754,0,0,1-4.1.082Q-4.357.055-4.616.007t-.532-.119q-.273-.072-.573-.16l-.811-.245.491-1.636q.593.2,1.231.361a7.8,7.8,0,0,0,1.2.2,3.253,3.253,0,0,0,.975-.044.748.748,0,0,0,.556-.392.335.335,0,0,0,.01-.239.959.959,0,0,0-.147-.3L-4.759-6.273-3.327-7.2l.464.716a.141.141,0,0,0,.024.041q.024.034.1.143l.2.31.351.528q.218.327.535.808T-.893-3.5A2.609,2.609,0,0,1-.467-2.42a1.948,1.948,0,0,1-.14,1.064,1.941,1.941,0,0,1-.31.5A2.286,2.286,0,0,1-1.37-.45,2.944,2.944,0,0,1-2.536.007,6.043,6.043,0,0,1-3.593.109Z" transform="translate(-4963.939 -2927.104)" fill="#fff"/>
    <g id="Group_9056" data-name="Group 9056" transform="translate(-4952.554 -2941.217)">
      <path id="Path_4575" data-name="Path 4575" d="M843.867,314.174c-.085.1-.173.2-.254.3a1.9,1.9,0,0,1-1.745.7.689.689,0,0,1-.45-.832,2.719,2.719,0,0,1,.646-1.2c.474-.5.956-1,1.464-1.463a5.745,5.745,0,0,1,2.492-1.452,10.475,10.475,0,0,1,1.227-.2,3.92,3.92,0,0,1,2.154.395,4.035,4.035,0,0,1,1.77,1.627,4.838,4.838,0,0,1,.62,2.968,7.661,7.661,0,0,1-.948,2.993,13.21,13.21,0,0,1-2.26,2.993,16.085,16.085,0,0,1-2.2,1.913c-.139.1-.286.185-.428.278l.006.058a.566.566,0,0,0,.153.006c.559-.124,1.115-.269,1.677-.373a5.188,5.188,0,0,1,.878-.047.616.616,0,0,0,.5-.207c.468-.521.967-1.014,1.416-1.552a11.318,11.318,0,0,0,2.283-4,6.159,6.159,0,0,0,.263-2.158,5.889,5.889,0,0,0-.168-.834c-.008-.037-.016-.074-.037-.168.092.061.156.082.19.128.292.4.595.8.862,1.219a5.394,5.394,0,0,1,.879,2.374,4.562,4.562,0,0,1-.407,2.573.413.413,0,0,0-.044.2,2.892,2.892,0,0,0,.78-2.589l.1,0a2,2,0,0,1,.107.365c.049.481.068.966.13,1.445a4.8,4.8,0,0,1-.089,1.606,2.1,2.1,0,0,1-.513,1.061.282.282,0,0,0-.063.145,1.593,1.593,0,0,0,.749-.706,3.3,3.3,0,0,1-.168,1.342c-.182.4-.369.8-.546,1.185.488.339.986.67,1.469,1.024a11.285,11.285,0,0,1,1.827,1.747,11.894,11.894,0,0,1,1.765,2.725,12.35,12.35,0,0,1,.971,2.992,13.236,13.236,0,0,1,.231,3.06,8.4,8.4,0,0,1-.157,1.169c-.108.584-.21,1.171-.367,1.742a12.189,12.189,0,0,1-4.074,6.105c-.126.1-.254.2-.377.3-.186.16-.227.153-.389-.035-.343-.4-.674-.815-1.042-1.191a7.483,7.483,0,0,0-3.5-2.056c-.522-.137-1.047-.264-1.577-.364a9.032,9.032,0,0,0-.991-.09c-.316-.024-.632-.042-.954-.093a11.285,11.285,0,0,1,4.362-1.17.979.979,0,0,0-.648-.307c-.255-.039-.517-.03-.776-.05a1.224,1.224,0,0,1-.233-.065l.011-.089c.265-.031.529-.078.794-.087.409-.015.819-.01,1.229,0a1.7,1.7,0,0,1,.906.248,4.452,4.452,0,0,1,.416.34l.065-.047a2.035,2.035,0,0,0-.231-.355,2.345,2.345,0,0,0-.361-.259l.019-.066a5.224,5.224,0,0,1,.685.108,4.383,4.383,0,0,1,1.451.72c.211.161.281.153.419-.038a8.7,8.7,0,0,0,1.617-5.551,8.641,8.641,0,0,0-2.2-5.271,8,8,0,0,0-4.171-2.511,9.853,9.853,0,0,0-1.508-.21,7.692,7.692,0,0,0-4.466,1.067,7.893,7.893,0,0,0-1.5,1.125,8.432,8.432,0,0,0-1.923,2.651,8.829,8.829,0,0,0-.683,2.261,8.509,8.509,0,0,0-.1,2.009,8.364,8.364,0,0,0,.487,2.319,8.873,8.873,0,0,0,1.362,2.443,8.18,8.18,0,0,0,5.495,3.085,9.3,9.3,0,0,1,3.446,1.072,8.5,8.5,0,0,1,1.558,1.117,8.6,8.6,0,0,1,2.453,4.12,12.476,12.476,0,0,1,.337,1.732c.074.54.088,1.088.128,1.633.014.191.029.381.039.572a.581.581,0,0,1-.023.133l-.06.013c-.027-.086-.06-.171-.079-.259a9.122,9.122,0,0,0-.693-1.918,7.917,7.917,0,0,0-1.228-1.894,6.228,6.228,0,0,0-2.048-1.5,10.565,10.565,0,0,0-2.261-.712c-.547-.121-1.107-.184-1.663-.263a13.662,13.662,0,0,1-3.662-.965,11.977,11.977,0,0,1-2.854-1.772,12.338,12.338,0,0,1-3.354-4.415,12.509,12.509,0,0,1-.928-3.071,11.668,11.668,0,0,1-.165-2.644,13.13,13.13,0,0,1,1.948-6.232c.432-.706.888-1.4,1.374-2.066a18.649,18.649,0,0,1,1.246-1.5c.659-.731,1.329-1.453,2.016-2.157.964-.988,1.966-1.938,2.919-2.937a9.451,9.451,0,0,0,1.725-2.337,2.725,2.725,0,0,0,.326-1.267,1.764,1.764,0,0,0-1.548-1.927,2.526,2.526,0,0,0-1.787.277,2.355,2.355,0,0,0-.488.418,4.136,4.136,0,0,1-1.175.9c-.1.052-.266.112-.344.066-.131-.076-.112-.249-.048-.389q.186-.411.383-.816c.068-.14.146-.275.219-.413Zm11.447,5.232c-.17.312-.322.613-.5.9a1.219,1.219,0,0,1-.875.473,5.057,5.057,0,0,0,.63-2.866,5.43,5.43,0,0,0-1.064-2.7c-.012.185.018.364.019.543a5.782,5.782,0,0,1-.269,1.745,10.049,10.049,0,0,1-.935,2.1,17.759,17.759,0,0,1-2.284,3.11c-.037.04-.068.086-.11.139.267.024.508.026.741.069.563.1,1.13.2,1.683.351a9.41,9.41,0,0,1,2.132.844c.1.058.211.078.276-.047a6.371,6.371,0,0,0,.659-1.606.888.888,0,0,0-.011-.2,1.863,1.863,0,0,1-1.311.549.175.175,0,0,1,.076-.127,2.018,2.018,0,0,0,1.006-1.349,5.927,5.927,0,0,0,.163-1.769A.9.9,0,0,0,855.314,319.407Z" transform="translate(-837.155 -310.005)" fill="#fff"/>
      <path id="Path_4576" data-name="Path 4576" d="M845.608,320.959a3.014,3.014,0,0,1-.243.423c-.314.391-.641.772-.968,1.152-.272.317-.549.628-.829.938a.539.539,0,0,1-.172.1c-.143.068-.256.009-.233-.148a3.865,3.865,0,0,1,.172-.661c.216-.647.446-1.29.662-1.937.042-.126.04-.267.072-.4a.556.556,0,0,1,.849-.407,1.1,1.1,0,0,1,.638.9Z" transform="translate(-839.664 -314.156)" fill="#fff"/>
    </g>
  </g>
</svg>
