<svg xmlns="http://www.w3.org/2000/svg" xmlns:xlink="http://www.w3.org/1999/xlink" width="216" height="68" viewBox="0 0 216 68">
  <defs>
    <linearGradient id="linear-gradient" x1="0.501" y1="0.976" x2="0.499" y2="0.02" gradientUnits="objectBoundingBox">
      <stop offset="0.019" stop-color="#298c3c"/>
      <stop offset="1" stop-color="#85b62d"/>
    </linearGradient>
  </defs>
  <g id="Group_10363" data-name="Group 10363" transform="translate(4895 2952.825)">
    <rect id="Rectangle_2242" data-name="Rectangle 2242" width="214" height="66" rx="10" transform="translate(-4894 -2951.825)" fill="#090a0a" stroke="#969394" stroke-miterlimit="10" stroke-width="2"/>
    <path id="Path_9353" data-name="Path 9353" d="M5.154-.355a5.72,5.72,0,0,1-.394,1.92A4.253,4.253,0,0,1,3.8,3.017a4.165,4.165,0,0,1-1.476.923,5.538,5.538,0,0,1-1.955.325H-.587V2.341H.371a4.7,4.7,0,0,0,1.283-.155,2.049,2.049,0,0,0,.889-.495A2.075,2.075,0,0,0,3.06.808,4.491,4.491,0,0,0,3.23-.518V-5.224H5.154ZM2.759-8.57,4.15-9.976,5.571-8.554,4.165-7.148ZM8.964.116H7.04V-11.027H8.964Zm21.629-5.34V-2.96a1.165,1.165,0,0,0,.081.46,1,1,0,0,0,.209.317,1.011,1.011,0,0,0,.282.2,1.731,1.731,0,0,0,.3.112,1.738,1.738,0,0,0,.259.05q.112.012.166.012h.479V.116H31.89a4.838,4.838,0,0,1-.56-.035,4.043,4.043,0,0,1-.6-.116,3.12,3.12,0,0,1-.576-.22,2.105,2.105,0,0,1-.495-.34,3.489,3.489,0,0,1-2.287.711H18.46a3.028,3.028,0,0,1-1.082-.193,2.7,2.7,0,0,1-.9-.564A3.486,3.486,0,0,1,16.154-1a2.4,2.4,0,0,1-.3-.495,3.444,3.444,0,0,1-.216-.645,3.516,3.516,0,0,1-.085-.807,5,5,0,0,1,.077-.838q.077-.452.174-.854t.182-.7q.085-.294.108-.363l.92.294.912.286q-.07.209-.147.5t-.147.6q-.07.309-.116.6a3.151,3.151,0,0,0-.046.495,1.453,1.453,0,0,0,.1.6.926.926,0,0,0,.255.348.794.794,0,0,0,.328.158,1.51,1.51,0,0,0,.317.039h8.848a2.825,2.825,0,0,0,.726-.081A.944.944,0,0,0,28.5-2.1a.848.848,0,0,0,.178-.58V-5.224Zm-5.965-.649-1.3-1.314,1.283-1.329L25.94-7.186Zm-3.238.008-1.3-1.314,1.275-1.329L22.7-7.179ZM31.589.116V-1.808h3.153a6.784,6.784,0,0,0,1.09-.073,3.246,3.246,0,0,0,.715-.189,1.255,1.255,0,0,0,.413-.259.951.951,0,0,0,.2-.29,6.885,6.885,0,0,1-1.847.027,3.547,3.547,0,0,1-1.391-.464,2.365,2.365,0,0,1-.877-.939A3.015,3.015,0,0,1,32.74-5.4a3.156,3.156,0,0,1,.24-1.225,3.076,3.076,0,0,1,.668-1A3.106,3.106,0,0,1,34.661-8.3a2.942,2.942,0,0,1,1.279-.212,3.21,3.21,0,0,1,1.093.216,2.794,2.794,0,0,1,.827.51,2.877,2.877,0,0,1,.587.738,4.378,4.378,0,0,1,.379.908,6.4,6.4,0,0,1,.209,1.016,9.772,9.772,0,0,1,.073,1.063l-.031.572a4.321,4.321,0,0,1-.433,1.781,3.033,3.033,0,0,1-.962,1.1,3.69,3.69,0,0,1-1.348.564,7.759,7.759,0,0,1-1.592.158Zm4.335-6.707a1.65,1.65,0,0,0-.541.043,1.211,1.211,0,0,0-.46.22,1.173,1.173,0,0,0-.317.382,1.122,1.122,0,0,0-.12.529,1.007,1.007,0,0,0,.707.97,3.844,3.844,0,0,0,2.036.081q-.015-.332-.054-.7a2.547,2.547,0,0,0-.17-.7,1.47,1.47,0,0,0-.386-.553A1.2,1.2,0,0,0,35.924-6.591ZM34.294-11.5,35.685-12.9l1.422,1.422L35.7-10.076ZM44.463.116A8.81,8.81,0,0,1,43,.012,3.792,3.792,0,0,1,41.975-.3a1.908,1.908,0,0,1-.668-.522,2.25,2.25,0,0,1-.382-.742,4.454,4.454,0,0,1-.174-.962q-.042-.537-.042-1.186v-7.318h1.924v7.318a9.1,9.1,0,0,0,.042.989,1.022,1.022,0,0,0,.224.576.924.924,0,0,0,.549.27,6.087,6.087,0,0,0,1.016.066Zm4.992-6.491q.015.054.066.255t.112.491q.062.29.128.645t.124.715q.058.359.093.7a5.942,5.942,0,0,1,.035.6A3.336,3.336,0,0,1,49.748-1.6a2.814,2.814,0,0,1-.688.962,2.828,2.828,0,0,1-.954.564,3.2,3.2,0,0,1-1.062.185h-3.33V-1.808H47.1a1.874,1.874,0,0,0,.267-.027.868.868,0,0,0,.348-.143.989.989,0,0,0,.305-.352,1.332,1.332,0,0,0,.131-.645,3.837,3.837,0,0,0-.027-.413q-.027-.243-.073-.522t-.1-.568q-.058-.29-.112-.549T47.724-5.5q-.054-.212-.085-.328ZM47.52,4.32l-1.3-1.314L47.5,1.677l1.329,1.329Zm-3.238.008-1.3-1.314,1.275-1.329,1.329,1.329ZM55.3-.355a5.72,5.72,0,0,1-.394,1.92,4.253,4.253,0,0,1-.958,1.453,4.165,4.165,0,0,1-1.476.923,5.538,5.538,0,0,1-1.955.325h-.958V2.341h.958A4.7,4.7,0,0,0,51.8,2.187a2.049,2.049,0,0,0,.889-.495A2.075,2.075,0,0,0,53.21.808a4.491,4.491,0,0,0,.17-1.325V-5.224H55.3Zm4.853.479a5.388,5.388,0,0,1-.58-.031Q59.291.062,59,.008t-.6-.135q-.309-.081-.649-.182l-.92-.278.556-1.855q.672.232,1.395.41a8.846,8.846,0,0,0,1.36.232,3.687,3.687,0,0,0,1.1-.05.848.848,0,0,0,.63-.444.38.38,0,0,0,.012-.27,1.087,1.087,0,0,0-.166-.34l-2.882-4.2L60.458-8.16l.525.811a.16.16,0,0,0,.027.046q.027.039.108.162l.232.352.4.6q.247.371.607.916t.862,1.3A2.957,2.957,0,0,1,63.7-2.743a2.208,2.208,0,0,1-.158,1.205,2.2,2.2,0,0,1-.352.568,2.591,2.591,0,0,1-.514.46,3.336,3.336,0,0,1-1.321.518A6.849,6.849,0,0,1,60.157.124Z" transform="translate(-4755.991 -2913.965)" fill="#fff"/>
    <g id="Group_9046" data-name="Group 9046" transform="translate(-4828.054 -2937.351)">
      <path id="Path_4636" data-name="Path 4636" d="M206.658,508.226c0-2.536-.037-5.07.01-7.6.045-2.5,1.378-3.864,3.605-3.807,2.125.057,3.311,1.42,3.319,3.854.012,4,.05,8.005-.025,12-.022,1.208.262,1.664,1.535,1.585a49.539,49.539,0,0,1,5.2-.013c2.392.1,3.992,1.627,3.942,3.645-.052,2.08-1.632,3.426-4.066,3.438-2.736.012-5.469.03-8.2-.005a5.1,5.1,0,0,1-5.285-5.1c-.095-2.663-.02-5.334-.02-8Z" transform="translate(-164.63 -493.285)" fill="#f9faf8"/>
      <path id="Path_4637" data-name="Path 4637" d="M215.786,510.837c0,2,.04,4-.01,6a5.037,5.037,0,0,1-4.405,5.093,46.932,46.932,0,0,1-9.772.127,3.457,3.457,0,0,1-3.418-3.678c.115-1.963,1.694-3.314,3.972-3.349,1.734-.027,3.471-.065,5.2.015,1.061.052,1.37-.312,1.35-1.351q-.09-4.3-.007-8.6c.045-2.531,1.333-4,3.433-4.074a3.467,3.467,0,0,1,3.648,3.618C215.826,506.7,215.786,508.769,215.786,510.837Z" transform="translate(-177.253 -487.012)" fill="#f5f4f3"/>
      <path id="Path_4638" data-name="Path 4638" d="M207.2,508.133c0,2,.042,4-.01,6a5.051,5.051,0,0,1-5.2,5.145c-2.865.04-5.733.035-8.6,0-2.158-.025-3.486-1.231-3.61-3.177a3.314,3.314,0,0,1,3.169-3.827,49.48,49.48,0,0,1,5.99-.067c1.059.032,1.365-.319,1.34-1.363-.065-2.93-.037-5.863-.017-8.8.017-2.282,1.4-3.82,3.416-3.862a3.492,3.492,0,0,1,3.511,3.75C207.234,504,207.2,506.065,207.2,508.133Z" transform="translate(-189.778 -491.24)" fill="#f9faf8"/>
      <path id="Path_4639" data-name="Path 4639" d="M205.285,507.619c0,2.793.03,5.589-.007,8.382-.035,2.469-1.37,3.879-3.56,3.872-2.148-.01-3.518-1.485-3.531-3.914q-.034-8.282,0-16.567c.007-2.447,1.355-3.959,3.471-3.994,2.232-.035,3.6,1.46,3.62,4.036C205.3,502.162,205.285,504.89,205.285,507.619Z" transform="translate(-177.259 -495.397)" fill="#f5f4f3"/>
      <path id="Path_4640" data-name="Path 4640" d="M205.868,496.813a3.412,3.412,0,0,1,3.623,3.369,3.549,3.549,0,1,1-3.623-3.369Z" transform="translate(-170.958 -493.285)" fill="#f5f4f3"/>
      <path id="Path_4641" data-name="Path 4641" d="M210.093,508.086a3.22,3.22,0,0,1,3.483,3.451,3.279,3.279,0,0,1-3.506,3.471,3.372,3.372,0,0,1-3.418-3.4A3.274,3.274,0,0,1,210.093,508.086Z" transform="translate(-164.609 -476.47)" fill="#f9faf8"/>
    </g>
    <path id="Path_4642" data-name="Path 4642" d="M208.921,507.262c-.563-.164-1.149-.261-1.722-.391a42.633,42.633,0,0,0-5.432-.894,2.336,2.336,0,0,1-2.3-1.677c-1.071-2.781-1.973-5.648-3.882-8.013-3.159-3.919-8.155-3.907-11.237.037-1.946,2.489-2.955,5.444-4,8.374a2.219,2.219,0,0,1-1.993,1.268,21.305,21.305,0,0,0-6.03,1.1,4.27,4.27,0,0,0-.78.045c-4.186,1.029-4.4,1.37-3.565,5.591h0a34.839,34.839,0,0,0,.807,5.6,25.366,25.366,0,0,0,1.193,5.2,18.285,18.285,0,0,0,1.649,4.8,12.285,12.285,0,0,0,2.995,4.662,14.83,14.83,0,0,0,6.476,5.051,18.969,18.969,0,0,0,19.28-.825,15.146,15.146,0,0,0,5.723-5.2,49.272,49.272,0,0,0-10.377-2.955,49.272,49.272,0,0,1,10.377,2.955,11.657,11.657,0,0,0,2.407-4.168,21.724,21.724,0,0,0,1.674-5.033,21.2,21.2,0,0,0,1.019-5.265,15.339,15.339,0,0,0,.718-4.819C212.93,508.882,212.641,508.354,208.921,507.262ZM187.28,499.21c1.747-2.4,3.658-2.334,5.424.05,1.316,1.776,1.769,3.964,2.868,5.84a3.736,3.736,0,0,0,1.014,0,3.736,3.736,0,0,1-1.014,0c-.63.76-1.473.346-2.213.356-2.985.04-5.97.015-8.955.015A23.839,23.839,0,0,1,187.28,499.21Zm5.2,29.575c-.366,0-.732,0-1.1.015C191.747,528.787,192.113,528.782,192.48,528.785Z" transform="translate(-5050.932 -3435.79)" fill="url(#linear-gradient)"/>
  </g>
</svg>
