<svg xmlns="http://www.w3.org/2000/svg" xmlns:xlink="http://www.w3.org/1999/xlink" width="102" height="102" viewBox="0 0 102 102">
  <defs>
    <linearGradient id="linear-gradient" x1="0.637" y1="1.182" x2="0.809" gradientUnits="objectBoundingBox">
      <stop offset="0" stop-color="#fff" stop-opacity="0.078"/>
      <stop offset="1" stop-color="#bedadc"/>
    </linearGradient>
  </defs>
  <g id="Group_10367" data-name="Group 10367" transform="translate(-762 -3631)">
    <circle id="Ellipse_614" data-name="Ellipse 614" cx="51" cy="51" r="51" transform="translate(762 3631)" opacity="0.63" fill="url(#linear-gradient)"/>
    <path id="Phone" d="M38.266,31.647a1.657,1.657,0,0,1-.51,1.453l-4.284,4.24a2.682,2.682,0,0,1-.853.617,3.4,3.4,0,0,1-1.031.326c-.024,0-.095.006-.219.018s-.279.018-.474.018a16.193,16.193,0,0,1-2.228-.237A17.031,17.031,0,0,1,24.9,36.918a31.583,31.583,0,0,1-5.061-2.775,37.815,37.815,0,0,1-6.021-5.082A39.96,39.96,0,0,1,9.609,24.27a33.859,33.859,0,0,1-2.684-4.228A22.67,22.67,0,0,1,5.4,16.519,18.452,18.452,0,0,1,4.715,13.8,8.729,8.729,0,0,1,4.572,12c.03-.439.036-.676.036-.723a3.583,3.583,0,0,1,.326-1.032,2.684,2.684,0,0,1,.616-.854L9.834,5.11A1.6,1.6,0,0,1,11,4.6a1.345,1.345,0,0,1,.836.273,2.565,2.565,0,0,1,.616.67l4.421,6.819a1.767,1.767,0,0,1,.184,1.269,2.264,2.264,0,0,1-.616,1.162l-1.778,1.779a.582.582,0,0,0-.124.237.946.946,0,0,0-.053.273,6.481,6.481,0,0,0,.652,1.743,16.02,16.02,0,0,0,1.339,2.123,23.531,23.531,0,0,0,2.578,2.888,23.978,23.978,0,0,0,2.9,2.6,16.1,16.1,0,0,0,2.121,1.358,5.892,5.892,0,0,0,1.3.528l.45.089a.922.922,0,0,0,.237-.053.624.624,0,0,0,.237-.125l2.068-2.105a2.222,2.222,0,0,1,1.523-.581,1.867,1.867,0,0,1,.978.219h.036l6.459,4.685A1.844,1.844,0,0,1,38.266,31.647Z" transform="translate(791.936 3660.9)" fill="none" stroke="#545454" stroke-miterlimit="10" stroke-width="2"/>
  </g>
</svg>
