<svg xmlns="http://www.w3.org/2000/svg" width="77.614" height="73.457" viewBox="0 0 77.614 73.457">
  <g id="Group_9002" data-name="Group 9002" transform="translate(0)">
    <path id="Path_4610" data-name="Path 4610" d="M178.308,196.672h-2.771a1.387,1.387,0,1,0,0,2.773h2.771a1.387,1.387,0,0,0,0-2.773Z" transform="translate(-129.801 -145.391)" fill="#8aa8ba"/>
    <path id="Path_4611" data-name="Path 4611" d="M226.187,203.85c-.233,0-.463.013-.691.029V187.217a9.714,9.714,0,0,0-9.7-9.7H176.987a9.713,9.713,0,0,0-9.7,9.7v16.662c-.23-.016-.46-.029-.693-.029a9.009,9.009,0,0,0-4.851,16.6v18.281a1.36,1.36,0,0,0,.013.182,6.936,6.936,0,0,0,6.915,6.516v1.387a4.159,4.159,0,0,0,8.317,0v-1.387h38.806v1.387a4.159,4.159,0,0,0,8.317,0v-1.387a6.936,6.936,0,0,0,6.915-6.516,1.356,1.356,0,0,0,.016-.182V220.45a9.009,9.009,0,0,0-4.853-16.6Zm-56.131-16.632a6.937,6.937,0,0,1,6.931-6.928h38.806a6.937,6.937,0,0,1,6.931,6.928v17.326a9.025,9.025,0,0,0-5.544,8.315V219.1a6.891,6.891,0,0,0-4.157-1.392H179.758A6.892,6.892,0,0,0,175.6,219.1v-6.243a9.025,9.025,0,0,0-5.544-8.315Zm4.157,59.6a1.385,1.385,0,1,1-2.771,0v-1.387h2.771Zm47.123,0a1.385,1.385,0,1,1-2.771,0v-1.387h2.771Zm7.686-28.4a1.382,1.382,0,0,0-.755,1.231V238.5a4.163,4.163,0,0,1-4.157,4.157H168.669a4.163,4.163,0,0,1-4.157-4.157V219.649a1.383,1.383,0,0,0-.755-1.234,6.237,6.237,0,1,1,9.072-5.557v11.781h0a6.937,6.937,0,0,0,6.928,6.931h18.019a1.387,1.387,0,0,0,0-2.773H179.758a4.157,4.157,0,1,1,0-8.315h33.264a4.157,4.157,0,0,1,0,8.315h-1.387a1.387,1.387,0,0,0,0,2.773h1.387a6.939,6.939,0,0,0,6.931-6.931h0V212.858a6.236,6.236,0,1,1,9.07,5.557Z" transform="translate(-157.584 -177.516)" fill="#8aa8ba"/>
  </g>
</svg>
