<svg xmlns="http://www.w3.org/2000/svg" width="284" height="89" viewBox="0 0 284 89">
  <g id="Group_10374" data-name="Group 10374" transform="translate(3560 214)">
    <rect id="Rectangle_2257" data-name="Rectangle 2257" width="284" height="84" rx="10" transform="translate(-3560 -209)"/>
    <rect id="Rectangle_2258" data-name="Rectangle 2258" width="284" height="84" rx="10" transform="translate(-3560 -214)" fill="#302f2f"/>
    <path id="Path_9357" data-name="Path 9357" d="M-59.42.1h-.552A2.48,2.48,0,0,1-61.7-.7a1.932,1.932,0,0,1-.535.44A3.127,3.127,0,0,1-62.9.02a4.333,4.333,0,0,1-.719.143,6.277,6.277,0,0,1-.7.041,4.578,4.578,0,0,1-.525-.031q-.266-.031-.6-.1t-.774-.191q-.436-.119-1.043-.3l.491-1.63q.416.164.859.29t.866.2a6.71,6.71,0,0,0,.811.1,3.621,3.621,0,0,0,.7-.017,1.567,1.567,0,0,0,.522-.153.585.585,0,0,0,.29-.3.387.387,0,0,0,.034-.147.405.405,0,0,0-.038-.153,1.455,1.455,0,0,0-.119-.215q-.082-.126-.211-.331l-2.42-3.4,1.432-.92,2.434,3.689q.2.3.416.62t.436.583a3.35,3.35,0,0,0,.423.433.61.61,0,0,0,.375.17h.552Zm7.036-1.7V.1h-1.009A3.371,3.371,0,0,1-54.45-.055a2.128,2.128,0,0,1-.8-.464,2.43,2.43,0,0,1-.9.47,4.311,4.311,0,0,1-1.19.15h-2.359V-1.6h2.359a2.28,2.28,0,0,0,.665-.078.993.993,0,0,0,.375-.194.535.535,0,0,0,.164-.259,1.1,1.1,0,0,0,.038-.28V-4.616h1.691v2.161a.76.76,0,0,0,.136.481.9.9,0,0,0,.31.259,1.009,1.009,0,0,0,.344.1q.17.017.232.017Zm-2.775,5.448L-56.3,2.693l1.132-1.173L-54,2.693Zm-2.857.007L-59.161,2.7l1.125-1.173L-56.864,2.7Zm11-5.455V.1h-.43A3.371,3.371,0,0,1-48.5-.055a2.128,2.128,0,0,1-.8-.464,2.43,2.43,0,0,1-.9.47A4.31,4.31,0,0,1-51.4.1H-52.6V-1.6H-51.4a2.28,2.28,0,0,0,.665-.078.993.993,0,0,0,.375-.194.535.535,0,0,0,.164-.259,1.1,1.1,0,0,0,.037-.28V-4.616h1.691v2.161a.76.76,0,0,0,.136.481.9.9,0,0,0,.31.259,1.009,1.009,0,0,0,.344.1q.17.017.232.017Zm-3.927-6.157,1.227-1.241,1.255,1.255L-49.7-6.5ZM-47.216.1V-1.6h3.989q.109,0,.3-.01a2.073,2.073,0,0,0,.375-.055,1.03,1.03,0,0,0,.317-.13.266.266,0,0,0,.133-.235,1.576,1.576,0,0,0-.222-.709,7.227,7.227,0,0,0-.569-.886q-.348-.47-.781-.951t-.859-.907q-.426-.426-.8-.753t-.6-.491l.136-1.541,5.932-2.714.62,1.486-4.991,2.2q.259.252.583.573t.665.678q.341.358.678.743t.634.77q.3.385.528.753a4.269,4.269,0,0,1,.361.7,2.789,2.789,0,0,1,.164.552,2.761,2.761,0,0,1,.048.484,1.981,1.981,0,0,1-.051.477,2.323,2.323,0,0,1-.112.348,2.306,2.306,0,0,1-.252.416,1.794,1.794,0,0,1-.474.43,2.917,2.917,0,0,1-.764.334A3.963,3.963,0,0,1-43.343.1Zm16.234.007a4.754,4.754,0,0,1-.511-.027Q-31.745.055-32,.007t-.532-.119q-.273-.072-.573-.16l-.811-.245.491-1.636q.593.2,1.231.361a7.8,7.8,0,0,0,1.2.2,3.253,3.253,0,0,0,.975-.044.748.748,0,0,0,.556-.392.335.335,0,0,0,.01-.239.959.959,0,0,0-.147-.3l-2.543-3.709,1.432-.927.464.716a.141.141,0,0,0,.024.041q.024.034.1.143l.2.31.351.528q.218.327.535.808t.76,1.149a2.609,2.609,0,0,1,.426,1.084A1.948,1.948,0,0,1-28-1.357a1.941,1.941,0,0,1-.31.5,2.286,2.286,0,0,1-.453.406,2.944,2.944,0,0,1-1.166.457A6.043,6.043,0,0,1-30.982.109Zm4.807,1.957q.545,0,.972-.037a6.157,6.157,0,0,0,.757-.109,2.9,2.9,0,0,0,.58-.184,1.817,1.817,0,0,0,.433-.269A1.55,1.55,0,0,0-23,.927,2.211,2.211,0,0,0-22.827.1h-1.05a4.57,4.57,0,0,1-.7-.055,3.029,3.029,0,0,1-.682-.188,2.889,2.889,0,0,1-.617-.344,2.162,2.162,0,0,1-.5-.522,2.568,2.568,0,0,1-.341-.733,3.39,3.39,0,0,1-.126-.968,3.838,3.838,0,0,1,.082-.835,3.353,3.353,0,0,1,.208-.644,2.546,2.546,0,0,1,.283-.487q.157-.208.3-.365a2.933,2.933,0,0,1,.927-.631,2.814,2.814,0,0,1,1.118-.222,2.9,2.9,0,0,1,1.272.256,2.334,2.334,0,0,1,.866.706,2.979,2.979,0,0,1,.494,1.067,5.43,5.43,0,0,1,.157,1.34V-1.6h1.159V.1h-1.166a3.94,3.94,0,0,1-.331,1.575,3.138,3.138,0,0,1-.9,1.118,3.866,3.866,0,0,1-.682.426,4.551,4.551,0,0,1-.825.3,6.514,6.514,0,0,1-1.019.181,12.515,12.515,0,0,1-1.272.058Zm2.25-6.259a1.205,1.205,0,0,0-.92.361,1.594,1.594,0,0,0-.341,1.125,1.025,1.025,0,0,0,.119.511,1.044,1.044,0,0,0,.307.344,1.288,1.288,0,0,0,.419.194,1.805,1.805,0,0,0,.464.061h1.05v-.927a3.108,3.108,0,0,0-.061-.665,1.806,1.806,0,0,0-.16-.46,1.02,1.02,0,0,0-.225-.293,1.047,1.047,0,0,0-.245-.164.878.878,0,0,0-.228-.072A1.2,1.2,0,0,0-23.925-4.193Zm3.586,2.6a3.577,3.577,0,0,0,1.016-.113,1.32,1.32,0,0,0,.535-.283.7.7,0,0,0,.211-.375,2.158,2.158,0,0,0,.038-.389V-9.73h1.691v6.975a1.185,1.185,0,0,0,.269.777,1.1,1.1,0,0,0,.76.382h.164V.1h-.17a4.376,4.376,0,0,1-.6-.048,1.929,1.929,0,0,1-.467-.133,1.914,1.914,0,0,1-.406-.242A3.839,3.839,0,0,1-17.7-.689a1.728,1.728,0,0,1-.419.372,2.149,2.149,0,0,1-.566.245,4.232,4.232,0,0,1-.733.133q-.409.041-.92.041Zm8.291-4.03q.014.048.058.225t.1.433q.055.256.113.569t.109.631q.051.317.082.617a5.243,5.243,0,0,1,.031.525,2.944,2.944,0,0,1-.232,1.217,2.483,2.483,0,0,1-.607.849,2.5,2.5,0,0,1-.842.5A2.819,2.819,0,0,1-14.175.1h-1.814V-1.6h1.861a1.653,1.653,0,0,0,.235-.024.766.766,0,0,0,.307-.126.873.873,0,0,0,.269-.31,1.175,1.175,0,0,0,.116-.569,3.386,3.386,0,0,0-.024-.365q-.024-.215-.065-.46t-.092-.5q-.051-.256-.1-.484t-.1-.416q-.048-.187-.075-.29Zm-2.891-2.741,1.227-1.241,1.255,1.255L-13.7-7.111ZM-8.277.1h-1.7V-9.73h1.7Zm4.684.007A4.754,4.754,0,0,1-4.1.082Q-4.357.055-4.616.007t-.532-.119q-.273-.072-.573-.16l-.811-.245.491-1.636q.593.2,1.231.361a7.8,7.8,0,0,0,1.2.2,3.253,3.253,0,0,0,.975-.044.748.748,0,0,0,.556-.392.335.335,0,0,0,.01-.239.959.959,0,0,0-.147-.3L-4.759-6.273-3.327-7.2l.464.716a.141.141,0,0,0,.024.041q.024.034.1.143l.2.31.351.528q.218.327.535.808T-.893-3.5A2.609,2.609,0,0,1-.467-2.42a1.948,1.948,0,0,1-.14,1.064,1.941,1.941,0,0,1-.31.5A2.286,2.286,0,0,1-1.37-.45,2.944,2.944,0,0,1-2.536.007,6.043,6.043,0,0,1-3.593.109Z" transform="translate(-3348 -151)" fill="#fff"/>
    <path id="Path_9356" data-name="Path 9356" d="M-133.18.15h-2.49V-14.27h2.49Zm8.39-.61a7.4,7.4,0,0,1-.51,2.485,5.5,5.5,0,0,1-1.24,1.88A5.39,5.39,0,0,1-128.45,5.1a7.166,7.166,0,0,1-2.53.42h-1.24V3.03h1.24a6.085,6.085,0,0,0,1.66-.2,2.652,2.652,0,0,0,1.15-.64,2.685,2.685,0,0,0,.67-1.145,5.812,5.812,0,0,0,.22-1.715V-6.76h2.49Zm15.19-1.69q.09,0,.275-.015a.653.653,0,0,0,.38-.2,1.464,1.464,0,0,0,.34-.6,3.935,3.935,0,0,0,.145-1.22,2.64,2.64,0,0,0-.025-.29,2.669,2.669,0,0,0-.1-.445,3.1,3.1,0,0,0-.205-.5,1.832,1.832,0,0,0-.34-.465,1.735,1.735,0,0,0-.5-.345,1.623,1.623,0,0,0-.69-.135,3.535,3.535,0,0,0-.37.02,1.154,1.154,0,0,0-.385.115,1.407,1.407,0,0,0-.385.29,2.224,2.224,0,0,0-.365.535,5.074,5.074,0,0,0-.33.86,10.123,10.123,0,0,0-.275,1.27q.39.21.8.41t.785.36a6.3,6.3,0,0,0,.7.255A2.011,2.011,0,0,0-109.6-2.15Zm-.76-6.7a4.018,4.018,0,0,1,1.78.375,3.808,3.808,0,0,1,1.295,1.015,4.443,4.443,0,0,1,.8,1.49,5.877,5.877,0,0,1,.27,1.79A7.562,7.562,0,0,1-106.4-2.4a4.57,4.57,0,0,1-.475,1.235,2.981,2.981,0,0,1-.66.8,2.942,2.942,0,0,1-.74.455,2.854,2.854,0,0,1-.725.2,4.81,4.81,0,0,1-.6.045,3.378,3.378,0,0,1-.955-.16,10.588,10.588,0,0,1-1.14-.42q-.605-.26-1.27-.6t-1.335-.69l-.465-.24-.42-.215-.415-.21q-.21-.105-.45-.215,0,2.26.01,4.515t.01,4.505h-2.41l-.01-10.36,2.34-1.42,1.62.81a12.639,12.639,0,0,1,.45-1.685,5.249,5.249,0,0,1,.75-1.445,3.428,3.428,0,0,1,1.18-1A3.6,3.6,0,0,1-110.36-8.85Zm9.23,9h-2.49V-14.27h2.49Zm13.79,0h-.81a3.638,3.638,0,0,1-2.54-1.17,2.833,2.833,0,0,1-.785.645,4.587,4.587,0,0,1-.975.4A6.355,6.355,0,0,1-93.5.24,9.206,9.206,0,0,1-94.53.3,6.714,6.714,0,0,1-95.3.255q-.39-.045-.885-.15t-1.135-.28q-.64-.175-1.53-.445l.72-2.39q.61.24,1.26.425t1.27.3a9.841,9.841,0,0,0,1.19.15,5.311,5.311,0,0,0,1.02-.025,2.3,2.3,0,0,0,.765-.225A.858.858,0,0,0-92.2-2.83a.568.568,0,0,0,.05-.215A.594.594,0,0,0-92.2-3.27a2.134,2.134,0,0,0-.175-.315q-.12-.185-.31-.485l-3.55-4.99,2.1-1.35L-90.57-5q.29.44.61.91t.64.855a4.913,4.913,0,0,0,.62.635.9.9,0,0,0,.55.25h.81Zm13.12-3.98q-.05.03-.32.215t-.73.475a.957.957,0,0,0,.31.465,1.461,1.461,0,0,0,.43.24,1.534,1.534,0,0,0,.415.085q.195.01.275.01h1.83V.15h-1.83a4.469,4.469,0,0,1-2.135-.525A3.559,3.559,0,0,1-77.45-1.92q-.77.38-1.66.755A18.249,18.249,0,0,1-80.97-.5a17.649,17.649,0,0,1-1.99.47A11.718,11.718,0,0,1-85,.15h-2.98V-2.34H-85a11.814,11.814,0,0,0,2.09-.2,21.314,21.314,0,0,0,2.19-.515q1.08-.315,2.055-.7a17.924,17.924,0,0,0,1.7-.77l-.99-.305q-.54-.165-1.1-.33t-1.11-.32q-.55-.155-1.03-.275t-.86-.19a3.517,3.517,0,0,0-.6-.07,1.353,1.353,0,0,0-.4.055.852.852,0,0,0-.315.18,1.39,1.39,0,0,0-.26.325,5.2,5.2,0,0,0-.25.48l-2.29-.69A6.924,6.924,0,0,1-85.715-6.8a3.663,3.663,0,0,1,.67-.915,2.966,2.966,0,0,1,.915-.615,2.971,2.971,0,0,1,1.19-.225,3.581,3.581,0,0,1,.74.11q.48.11,1.09.29t1.3.41q.695.23,1.4.48t1.36.49l1.19.435.89.325q.36.13.46.16Zm-10.8-8.78,1.8-1.82,1.84,1.84-1.82,1.82Zm19.84,3.18-1.68-1.7,1.66-1.72,1.72,1.72Zm-4.19.01-1.68-1.7,1.65-1.72,1.72,1.72Zm7.62,7.08V.15h-1.48a4.945,4.945,0,0,1-1.55-.23,3.122,3.122,0,0,1-1.18-.68,3.564,3.564,0,0,1-1.325.69A6.322,6.322,0,0,1-69.03.15h-3.46V-2.34h3.46a3.344,3.344,0,0,0,.975-.115,1.457,1.457,0,0,0,.55-.285.785.785,0,0,0,.24-.38,1.615,1.615,0,0,0,.055-.41V-6.77h2.48V-3.6a1.115,1.115,0,0,0,.2.705,1.317,1.317,0,0,0,.455.38,1.48,1.48,0,0,0,.505.15q.25.025.34.025ZM-54.42.13a4.21,4.21,0,0,1-2.9-.95,3.412,3.412,0,0,1-1.22.74,4.221,4.221,0,0,1-1.38.23h-2.25V-2.34h2.25a2.132,2.132,0,0,0,.345-.04,1.15,1.15,0,0,0,.45-.195,1.33,1.33,0,0,0,.4-.46,1.748,1.748,0,0,0,.17-.845V-6.76h2.49v2.84a1.609,1.609,0,0,0,.385,1.195,1.771,1.771,0,0,0,1.265.375,1.905,1.905,0,0,0,.345-.045,1.179,1.179,0,0,0,.45-.2,1.361,1.361,0,0,0,.4-.475,1.785,1.785,0,0,0,.17-.845V-6.76h2.48v2.84a1.619,1.619,0,0,0,.4,1.2A1.8,1.8,0,0,0-48.9-2.33a1.593,1.593,0,0,0,.355-.055,1.232,1.232,0,0,0,.445-.22,1.358,1.358,0,0,0,.38-.475,1.847,1.847,0,0,0,.16-.84,4.833,4.833,0,0,0-.035-.53q-.035-.31-.09-.655t-.125-.7q-.07-.355-.14-.675t-.135-.58q-.065-.26-.1-.41l2.35-.77q.02.07.08.32t.145.62q.085.37.175.82t.165.9q.075.455.125.89a6.8,6.8,0,0,1,.05.765,4.418,4.418,0,0,1-.335,1.785,3.8,3.8,0,0,1-.875,1.27,3.579,3.579,0,0,1-1.22.755A4.12,4.12,0,0,1-48.9.15a4.211,4.211,0,0,1-2.94-.98,3.36,3.36,0,0,1-1.215.735A4.231,4.231,0,0,1-54.42.13Zm14.53.02h-2.49V-14.27h2.49Zm18.23-2.3q.09,0,.275-.015a.653.653,0,0,0,.38-.2,1.464,1.464,0,0,0,.34-.6,3.935,3.935,0,0,0,.145-1.22,2.641,2.641,0,0,0-.025-.29,2.668,2.668,0,0,0-.1-.445,3.1,3.1,0,0,0-.2-.5,1.832,1.832,0,0,0-.34-.465,1.735,1.735,0,0,0-.5-.345,1.623,1.623,0,0,0-.69-.135,3.535,3.535,0,0,0-.37.02,1.154,1.154,0,0,0-.385.115,1.407,1.407,0,0,0-.385.29,2.224,2.224,0,0,0-.365.535,5.073,5.073,0,0,0-.33.86,10.126,10.126,0,0,0-.275,1.27q.39.21.8.41t.785.36a6.3,6.3,0,0,0,.7.255A2.011,2.011,0,0,0-21.66-2.15Zm-.76-6.7a4.018,4.018,0,0,1,1.78.375,3.808,3.808,0,0,1,1.3,1.015,4.443,4.443,0,0,1,.795,1.49,5.877,5.877,0,0,1,.27,1.79A7.562,7.562,0,0,1-18.46-2.4a4.57,4.57,0,0,1-.475,1.235,2.981,2.981,0,0,1-.66.8,2.942,2.942,0,0,1-.74.455,2.854,2.854,0,0,1-.725.2,4.81,4.81,0,0,1-.6.045,3.378,3.378,0,0,1-.955-.16,10.589,10.589,0,0,1-1.14-.42q-.605-.26-1.27-.6t-1.335-.69l-.465-.24L-27.245-2l-.415-.21q-.21-.105-.45-.215,0,2.26.01,4.515t.01,4.505H-30.5l-.01-10.36,2.34-1.42,1.62.81a12.639,12.639,0,0,1,.45-1.685A5.249,5.249,0,0,1-25.35-7.5a3.428,3.428,0,0,1,1.18-1A3.6,3.6,0,0,1-22.42-8.85Zm13.55,9h-.38A5.715,5.715,0,0,1-10.025.1a1.723,1.723,0,0,1-.715-.28,7.358,7.358,0,0,1-.59,2.34,5.593,5.593,0,0,1-1.255,1.8A5.5,5.5,0,0,1-14.46,5.11a6.918,6.918,0,0,1-2.45.41h-1.25V3.03h1.25a6.085,6.085,0,0,0,1.66-.2,2.652,2.652,0,0,0,1.15-.64,2.685,2.685,0,0,0,.67-1.145A5.812,5.812,0,0,0-13.21-.67V-6.76h2.49v2.99a1.27,1.27,0,0,0,.195.74,1.5,1.5,0,0,0,.45.435,1.58,1.58,0,0,0,.495.2,1.957,1.957,0,0,0,.33.05h.38Zm-1.63,0V-2.34h4.08a8.78,8.78,0,0,0,1.41-.095,4.2,4.2,0,0,0,.925-.245,1.624,1.624,0,0,0,.535-.335,1.231,1.231,0,0,0,.26-.375,8.91,8.91,0,0,1-2.39.035,4.59,4.59,0,0,1-1.8-.6A3.06,3.06,0,0,1-8.615-5.17,3.9,3.9,0,0,1-9.01-6.99,4.084,4.084,0,0,1-8.7-8.575a3.981,3.981,0,0,1,.865-1.3,4.02,4.02,0,0,1,1.31-.87A3.808,3.808,0,0,1-4.87-11.02a4.155,4.155,0,0,1,1.415.28,3.615,3.615,0,0,1,1.07.66,3.723,3.723,0,0,1,.76.955,5.665,5.665,0,0,1,.49,1.175,8.277,8.277,0,0,1,.27,1.315A12.646,12.646,0,0,1-.77-5.26l-.04.74a5.592,5.592,0,0,1-.56,2.305A3.925,3.925,0,0,1-2.615-.785a4.776,4.776,0,0,1-1.745.73A10.041,10.041,0,0,1-6.42.15Zm5.61-8.68a2.136,2.136,0,0,0-.7.055,1.567,1.567,0,0,0-.6.285,1.518,1.518,0,0,0-.41.5,1.452,1.452,0,0,0-.155.685,1.3,1.3,0,0,0,.915,1.255A4.974,4.974,0,0,0-3.2-5.65q-.02-.43-.07-.91a3.3,3.3,0,0,0-.22-.9,1.9,1.9,0,0,0-.5-.715A1.557,1.557,0,0,0-4.89-8.53ZM-7-14.88l1.8-1.82,1.84,1.84-1.82,1.82Z" transform="translate(-3348 -180)" fill="#fff"/>
    <g id="Group_10373" data-name="Group 10373" transform="translate(-1862.847 -334.014)">
      <path id="Path_9343" data-name="Path 9343" d="M-1468.97,159.817a12.483,12.483,0,0,1,12.513-12.517,12.479,12.479,0,0,1,12.54,12.558,12.5,12.5,0,0,1-12.549,12.491A12.493,12.493,0,0,1-1468.97,159.817Zm4.711,5.671a12.978,12.978,0,0,1,.266-1.33,4.2,4.2,0,0,1,4.257-2.912,1.361,1.361,0,0,1,1.5.893c.52,1.143,1.151,2.237,1.79,3.455.609-1.16,1.241-2.18,1.69-3.274a1.493,1.493,0,0,1,1.848-1.057c.192.033.391.029.585.053a4.077,4.077,0,0,1,3.5,3.085c.086.354.118.722.178,1.108,2.9-2.562,2.54-8.942-.648-12.331a9.756,9.756,0,0,0-14.042-.262C-1466.717,156.293-1467.2,162.728-1464.259,165.487Z" fill="#fff"/>
      <path id="Path_9344" data-name="Path 9344" d="M-1309.717,311.841l.706-.794-1.742-1.414,3.034-2.846,1.312,1.624.907-.764a3.755,3.755,0,0,1,.305.246c2.389,2.383,4.788,4.758,7.161,7.156a3.045,3.045,0,0,1-.531,4.862,2.923,2.923,0,0,1-3.42-.288C-1304.578,317.078-1307.111,314.473-1309.717,311.841Z" transform="translate(-137.518 -138.621)" fill="#fff"/>
      <path id="Path_9345" data-name="Path 9345" d="M-1398.913,180.394a3.828,3.828,0,0,1,3.8,3.922,6.342,6.342,0,0,1-2.074,4.577,2.406,2.406,0,0,1-3.568.026,6.27,6.27,0,0,1-2.108-4.691A3.821,3.821,0,0,1-1398.913,180.394Z" transform="translate(-57.458 -28.764)" fill="#fff"/>
    </g>
    <path id="Path_9358" data-name="Path 9358" d="M8.851,0H267a8.851,8.851,0,0,1,8.851,8.851V66.115A8.851,8.851,0,0,1,267,74.966H8.851A8.851,8.851,0,0,1,0,66.115V8.851A8.851,8.851,0,0,1,8.851,0Z" transform="translate(-3555.465 -210.021)" fill="none" stroke="#fff" stroke-linecap="round" stroke-width="1" stroke-dasharray="6" opacity="0.42"/>
  </g>
</svg>
