<svg xmlns="http://www.w3.org/2000/svg" width="348.286" height="415.045" viewBox="0 0 348.286 415.045"><defs><style>.a{fill:#c70202;}.b{fill:#f6f4ff;}.c{fill:#e8e7f7;}.d{fill:#fff;}.e{fill:#aeaed6;}.f{fill:#c4c4e8;}.g{fill:#e4eaf4;}.h{fill:#9b9bba;}.i{fill:#4edd70;}.j{fill:#ff4060;}</style></defs><g transform="translate(290.982 -108.068)"><g transform="translate(-290.982 108.068)"><g transform="translate(0 5.157)"><path class="a" d="M54.284,477.429l-74.5-355.545L-257.356,184.1l78.445,282.222Z" transform="translate(294.001 -111.984)"/><path class="b" d="M-32.354,112.8-273.21,170.46l-17.772,37.123,75.435,315.105,266.069-63.7Z" transform="translate(290.982 -112.8)"/><path class="c" d="M-273.21,168.857l-17.772,37.123,17.67,73.81c31.808-70.134,97.358-117.876,159.693-149.139Z" transform="translate(290.982 -111.197)"/><path class="d" d="M-290.982,202.832l31.235-13.952-13.463-23.171Z" transform="translate(290.982 -108.049)"/></g><g transform="translate(33.062 71.281)"><rect class="c" width="91.059" height="101.714" transform="translate(121.076 21.173) rotate(-13.445)"/><g transform="translate(0 27.374)"><rect class="e" width="105.648" height="15.988" transform="translate(0 24.565) rotate(-13.445)"/><rect class="f" width="105.648" height="4.924" transform="translate(7.235 52.989) rotate(-13.445)"/><rect class="f" width="105.648" height="4.924" transform="translate(10.853 68.752) rotate(-13.445)"/><rect class="f" width="105.648" height="4.924" transform="translate(14.471 84.514) rotate(-13.445)"/><rect class="f" width="105.648" height="4.924" transform="translate(18.088 100.277) rotate(-13.445)"/><rect class="f" width="105.648" height="4.924" transform="matrix(0.973, -0.233, 0.233, 0.973, 21.706, 116.039)"/></g><g transform="translate(155.962 124.419)"><path class="e" d="M-32.22,287.642l-85.313,20.032,3.717,15.549L-28.5,303.192Z" transform="translate(117.533 -287.642)"/><path class="f" d="M-25.581,313.724l-85.313,20.032,1.145,4.789,85.313-20.032Z" transform="translate(118.129 -285.3)"/><path class="f" d="M-22.262,328.188l-85.313,20.032,1.145,4.789,85.313-20.031Z" transform="translate(118.427 -284.001)"/><path class="f" d="M-18.942,342.652l-85.313,20.032,1.145,4.789L-17.8,347.441Z" transform="translate(118.725 -282.703)"/><path class="f" d="M-15.623,357.116l-85.313,20.031,1.145,4.789,85.313-20.031Z" transform="translate(119.024 -281.404)"/><path class="f" d="M-12.3,371.579l-85.313,20.032,1.145,4.789,85.313-20.031Z" transform="translate(119.322 -280.105)"/></g><g transform="translate(29.081 146.668)"><g transform="translate(0 11.82)"><g transform="translate(2.725 2.725)"><rect class="d" width="24.889" height="24.889" transform="translate(0 6.114) rotate(-14.221)"/></g><g transform="translate(2.725 2.725)"><path class="g" d="M-205.96,326.822-228.9,337.613l-2.558-10.094,24.126-6.114Z" transform="translate(231.459 -321.405)"/></g><path class="h" d="M-225.122,354.6a2.726,2.726,0,0,1-2.638-2.056l-6.115-24.125A2.726,2.726,0,0,1-231.9,325.1l24.126-6.116a2.727,2.727,0,0,1,2.064.3,2.72,2.72,0,0,1,1.247,1.671l6.114,24.127a2.724,2.724,0,0,1-1.971,3.311l-24.126,6.114A2.743,2.743,0,0,1-225.122,354.6Zm-2.8-24.879,4.775,18.844,18.844-4.777-4.774-18.844Z" transform="translate(233.959 -318.905)"/></g><g transform="translate(34.487 1.076)"><path class="f" d="M-199.591,330.027a2.726,2.726,0,0,1-2.639-2.056,2.725,2.725,0,0,1,1.971-3.311l61.374-15.53a2.725,2.725,0,0,1,3.31,1.973,2.724,2.724,0,0,1-1.971,3.311l-61.373,15.53A2.8,2.8,0,0,1-199.591,330.027Z" transform="translate(202.314 -309.046)"/><g transform="translate(2.023 9.946)"><path class="f" d="M-197.735,337.189a2.727,2.727,0,0,1-2.639-2.056,2.725,2.725,0,0,1,1.971-3.311l53.627-13.567a2.731,2.731,0,0,1,3.311,1.973,2.725,2.725,0,0,1-1.971,3.311L-197.063,337.1A2.744,2.744,0,0,1-197.735,337.189Z" transform="translate(200.458 -318.173)"/></g></g><g transform="translate(13.194)"><path class="i" d="M-213.621,344.4l-7.354-5.477a2.179,2.179,0,0,1-.447-3.049,2.179,2.179,0,0,1,3.05-.446l3.323,2.474,15.616-28.7a2.182,2.182,0,0,1,2.957-.872,2.18,2.18,0,0,1,.873,2.957Z" transform="translate(221.853 -308.059)"/></g></g><g transform="translate(40.06 193.166)"><g transform="translate(0 11.821)"><g transform="translate(2.725 2.725)"><rect class="d" width="24.889" height="24.889" transform="translate(0 6.115) rotate(-14.222)"/></g><g transform="translate(2.725 2.725)"><path class="g" d="M-195.886,369.488l-22.941,10.792-2.558-10.094,24.126-6.115Z" transform="translate(221.385 -364.072)"/></g><path class="h" d="M-215.048,397.263a2.726,2.726,0,0,1-2.638-2.056L-223.8,371.08a2.726,2.726,0,0,1,1.971-3.311l24.126-6.115a2.731,2.731,0,0,1,2.064.3,2.722,2.722,0,0,1,1.247,1.672l6.114,24.126a2.723,2.723,0,0,1-1.971,3.311l-24.126,6.115A2.8,2.8,0,0,1-215.048,397.263Zm-2.8-24.879,4.775,18.844,18.845-4.777L-199,367.607Z" transform="translate(223.885 -361.572)"/></g><g transform="translate(34.487 1.076)"><path class="f" d="M-189.517,372.693a2.725,2.725,0,0,1-2.639-2.055,2.725,2.725,0,0,1,1.971-3.311l61.374-15.53a2.724,2.724,0,0,1,3.31,1.971,2.723,2.723,0,0,1-1.971,3.311l-61.373,15.53A2.743,2.743,0,0,1-189.517,372.693Z" transform="translate(192.24 -351.713)"/><g transform="translate(2.023 9.946)"><path class="f" d="M-187.661,379.856A2.727,2.727,0,0,1-190.3,377.8a2.725,2.725,0,0,1,1.971-3.311l53.627-13.567a2.731,2.731,0,0,1,3.311,1.971,2.725,2.725,0,0,1-1.971,3.311l-53.627,13.568A2.8,2.8,0,0,1-187.661,379.856Z" transform="translate(190.384 -360.839)"/></g></g><g transform="translate(13.194)"><path class="i" d="M-203.547,387.064l-7.354-5.477a2.178,2.178,0,0,1-.446-3.049,2.176,2.176,0,0,1,3.049-.446l3.323,2.474,15.616-28.7a2.182,2.182,0,0,1,2.957-.873,2.181,2.181,0,0,1,.873,2.957Z" transform="translate(211.778 -350.725)"/></g></g><g transform="translate(51.039 239.664)"><g transform="translate(0 11.821)"><g transform="translate(2.725 2.725)"><rect class="d" width="24.889" height="24.889" transform="matrix(0.969, -0.246, 0.246, 0.969, 0, 6.114)"/></g><g transform="translate(2.725 2.725)"><path class="g" d="M-185.812,412.155l-22.941,10.792-2.558-10.094,24.126-6.114Z" transform="translate(211.311 -406.739)"/></g><path class="h" d="M-204.974,439.93a2.726,2.726,0,0,1-2.638-2.056l-6.115-24.126a2.725,2.725,0,0,1,1.971-3.311l24.127-6.115a2.725,2.725,0,0,1,2.063.3,2.719,2.719,0,0,1,1.247,1.671l6.115,24.127a2.725,2.725,0,0,1-1.973,3.311l-24.126,6.114A2.745,2.745,0,0,1-204.974,439.93Zm-2.8-24.88L-203,433.893l18.845-4.776-4.775-18.844Z" transform="translate(213.811 -404.239)"/></g><g transform="translate(34.487 1.076)"><path class="f" d="M-179.443,415.36a2.727,2.727,0,0,1-2.639-2.056,2.726,2.726,0,0,1,1.971-3.311l61.374-15.529a2.725,2.725,0,0,1,3.311,1.971,2.725,2.725,0,0,1-1.973,3.311l-61.373,15.53A2.742,2.742,0,0,1-179.443,415.36Z" transform="translate(182.166 -394.38)"/><g transform="translate(2.023 9.946)"><path class="f" d="M-177.587,422.522a2.727,2.727,0,0,1-2.639-2.055,2.725,2.725,0,0,1,1.971-3.311l53.628-13.567a2.73,2.73,0,0,1,3.31,1.971,2.725,2.725,0,0,1-1.971,3.311l-53.627,13.567A2.744,2.744,0,0,1-177.587,422.522Z" transform="translate(180.31 -403.506)"/></g></g><g transform="translate(13.194)"><path class="i" d="M-193.473,429.731l-7.354-5.478a2.178,2.178,0,0,1-.446-3.049,2.178,2.178,0,0,1,3.049-.446l3.323,2.475,15.616-28.7a2.182,2.182,0,0,1,2.957-.873,2.18,2.18,0,0,1,.873,2.957Z" transform="translate(201.704 -393.392)"/></g></g></g><path class="j" d="M-58.6,112.025a8.943,8.943,0,0,0-5.751-3.792,8.947,8.947,0,0,0-6.748,1.385,8.941,8.941,0,0,0-3.793,5.752l-.692,3.593,2.326-.554.507-2.629a6.778,6.778,0,0,1,2.874-4.358,6.773,6.773,0,0,1,5.114-1.049,6.778,6.778,0,0,1,4.358,2.874,6.778,6.778,0,0,1,1.049,5.116l-4.214,21.878h0l-2.449,12.717a4.287,4.287,0,0,1-5.011,3.393,4.255,4.255,0,0,1-2.733-1.8,4.248,4.248,0,0,1-.658-3.208l4.433-23.021-2.139-.412-4.434,23.021a6.414,6.414,0,0,0,.993,4.842,6.415,6.415,0,0,0,4.127,2.721,6.425,6.425,0,0,0,1.223.118,6.468,6.468,0,0,0,6.339-5.238l2.679-13.906h0l3.985-20.689A8.94,8.94,0,0,0-58.6,112.025Z" transform="translate(310.226 -108.068)"/></g></g></svg>