<svg xmlns="http://www.w3.org/2000/svg" width="1920.341" height="594.886" viewBox="0 0 1920.341 594.886">
  <g id="Group_10377" data-name="Group 10377" transform="translate(3527.341 1396.264)">
    <g id="Group_10376" data-name="Group 10376" transform="translate(-3526 -2840)">
      <rect id="Rectangle_2249" data-name="Rectangle 2249" width="1920" height="473" transform="translate(-1 1499)" fill="#e6edf5"/>
      <g id="Group_9061" data-name="Group 9061" transform="translate(-1089.518 1175.917)">
        <path id="Path_4664" data-name="Path 4664" d="M1137.507,797.512s96.012-157.094,139.163-186.619,297.514-188.5,349.75-229.381,59.047-113.554,59.047-113.554" transform="translate(46.791 0)" fill="none" stroke="#fff" stroke-miterlimit="10" stroke-width="3"/>
        <path id="Path_4665" data-name="Path 4665" d="M1207.8,559.421s14.379-54.154,16.649-63.24-4.543-63.59-11.356-106.741,11.356-95.385,11.356-95.385" transform="translate(145.572 31.817)" fill="none" stroke="#fff" stroke-miterlimit="10" stroke-width="3"/>
        <path id="Path_4666" data-name="Path 4666" d="M1250.116,386.495s61.271,21.964,102.149,26.5,197.586,11.356,229.381,54.507,38.61,161.248,45.423,174.876" transform="translate(197.169 144.524)" fill="none" stroke="#fff" stroke-miterlimit="10" stroke-width="3"/>
        <path id="Path_4667" data-name="Path 4667" d="M1399.5,545.276s102.2-70.4,115.827-113.554,70.406-104.471,118.1-109.013" transform="translate(379.311 66.753)" fill="none" stroke="#fff" stroke-miterlimit="10" stroke-width="3"/>
        <path id="Path_4668" data-name="Path 4668" d="M1161.5,539.015s87.594,4.425,139.828-.118,165.22-140.174,165.22-140.174" transform="translate(89.128 159.434)" fill="none" stroke="#fff" stroke-miterlimit="10" stroke-width="3"/>
        <path id="Path_4669" data-name="Path 4669" d="M1281.5,578.64s-61.6-86.271-82.035-145.32-109.013-104.471-109.013-104.471" transform="translate(2.496 74.239)" fill="none" stroke="#fff" stroke-miterlimit="10" stroke-width="3"/>
        <path id="Path_4670" data-name="Path 4670" d="M1288.43,328.849s-38.608,31.8-59.047,65.863-87.1,54.1-87.1,54.1" transform="translate(65.689 74.239)" fill="none" stroke="#fff" stroke-miterlimit="10" stroke-width="3"/>
        <path id="Path_4671" data-name="Path 4671" d="M1159.514,638.56s39.684-53.475,53.734-69.866,14.053-42.152-18.733-79.62-53.861-93.67-63.228-105.378-37.468-21.076-37.468-21.076" transform="translate(6.607 115.414)" fill="none" stroke="#fff" stroke-miterlimit="10" stroke-width="1"/>
        <path id="Path_4672" data-name="Path 4672" d="M1107.069,545.928s24.434-50.641,49.416-68.81,39.949-46.351,39.949-46.351" transform="translate(22.761 198.502)" fill="none" stroke="#fff" stroke-miterlimit="10" stroke-width="1"/>
        <path id="Path_4673" data-name="Path 4673" d="M1185.171,415.65s-16.931,32.208-28.286,41.291-61.32,59.05-61.32,59.05" transform="translate(8.735 180.071)" fill="none" stroke="#fff" stroke-miterlimit="10" stroke-width="1"/>
        <path id="Path_4674" data-name="Path 4674" d="M1173.938,404.129s-31.256,19.165-40.339,32.794-43.151,34.065-43.151,34.065" transform="translate(2.496 166.024)" fill="none" stroke="#fff" stroke-miterlimit="10" stroke-width="1"/>
        <path id="Path_4675" data-name="Path 4675" d="M1158.449,389.522s-29.167,26.6-38.253,33.413-31.8,18.169-31.8,18.169" transform="translate(0 148.214)" fill="none" stroke="#fff" stroke-miterlimit="10" stroke-width="1"/>
        <path id="Path_4676" data-name="Path 4676" d="M1141.726,376.862s-19.483,7-28.566,13.817-22.712,15.9-22.712,15.9" transform="translate(2.496 132.779)" fill="none" stroke="#fff" stroke-miterlimit="10" stroke-width="1"/>
        <path id="Path_4677" data-name="Path 4677" d="M1175.876,435.828s-7.412,7.381-30.122.568-40.881-22.712-52.237-20.439" transform="translate(6.239 180.177)" fill="none" stroke="#fff" stroke-miterlimit="10" stroke-width="1"/>
        <path id="Path_4678" data-name="Path 4678" d="M1131.657,475.969s29.052,7.048,38.069,10.61" transform="translate(52.74 253.614)" fill="none" stroke="#fff" stroke-miterlimit="10" stroke-width="1"/>
        <line id="Line_841" data-name="Line 841" x2="37.038" y2="18.096" transform="translate(1228.775 658.962)" fill="none" stroke="#fff" stroke-miterlimit="10" stroke-width="1"/>
        <path id="Path_4679" data-name="Path 4679" d="M1131.546,427.958l-.3-3.563,38.975-27.816" transform="translate(52.241 156.819)" fill="none" stroke="#fff" stroke-miterlimit="10" stroke-width="1"/>
        <path id="Path_4680" data-name="Path 4680" d="M1115.754,413.421s7.43-25.257,11.973-32.07,9.8-26.642,9.8-26.642" transform="translate(33.35 105.769)" fill="none" stroke="#fff" stroke-miterlimit="10" stroke-width="1"/>
        <path id="Path_4681" data-name="Path 4681" d="M1558.332,476.61s-36.267-50.406-56.708-61.761-86.3-2.27-113.554-11.356-77.909-55.767-77.909-55.767" transform="translate(270.379 97.254)" fill="none" stroke="#fff" stroke-miterlimit="10" stroke-width="3"/>
        <path id="Path_4682" data-name="Path 4682" d="M1452.269,478.131s8.879-65.3-.2-99.369-74.236-35.43-88.217-72.223" transform="translate(335.836 47.038)" fill="none" stroke="#fff" stroke-miterlimit="10" stroke-width="3"/>
        <path id="Path_4683" data-name="Path 4683" d="M1370.1,404.988s-24.152,33.158-28.695,78.579,29.525,122.64,9.086,145.351" transform="translate(307.958 167.071)" fill="none" stroke="#fff" stroke-miterlimit="10" stroke-width="3"/>
        <rect id="Rectangle_2247" data-name="Rectangle 2247" width="404.828" height="860.672" rx="13.526" transform="translate(1107.681 745.65) rotate(-90)" fill="none"/>
      </g>
      <g id="Group_9063" data-name="Group 9063" transform="translate(1004.883 1469.364)">
        <path id="Path_4664-2" data-name="Path 4664" d="M1126.778,267.959s110.531,183.436,155.213,214.009,308.076,195.192,362.167,237.524S1705.3,837.077,1705.3,837.077" transform="translate(-1038.587 -267.959)" fill="none" stroke="#fff" stroke-miterlimit="10" stroke-width="3"/>
        <path id="Path_4665-2" data-name="Path 4665" d="M1207.8,294.055s14.889,56.077,17.24,65.485-4.7,65.848-11.759,110.53,11.759,98.772,11.759,98.772" transform="translate(-933.421 -59.693)" fill="none" stroke="#fff" stroke-miterlimit="10" stroke-width="3"/>
        <path id="Path_4666-2" data-name="Path 4666" d="M1250.116,651.467s63.446-22.744,105.776-27.445,204.6-11.759,237.524-56.442,39.981-166.973,47.036-181.085" transform="translate(-878.49 -354.748)" fill="none" stroke="#fff" stroke-miterlimit="10" stroke-width="3"/>
        <path id="Path_4667-2" data-name="Path 4667" d="M1399.5,322.709s105.829,72.9,119.939,117.586,54.548,86.486,78.689,85.79" transform="translate(-684.579 -109.877)" fill="none" stroke="#fff" stroke-miterlimit="10" stroke-width="3"/>
        <path id="Path_4668-2" data-name="Path 4668" d="M1161.5,400.725s90.7-4.582,144.792.122S1477.38,546,1477.38,546" transform="translate(-993.514 -277.381)" fill="none" stroke="#fff" stroke-miterlimit="10" stroke-width="3"/>
        <path id="Path_4669-2" data-name="Path 4669" d="M1288.279,328.849s-63.782,89.334-84.947,150.479-112.884,108.18-112.884,108.18" transform="translate(-1085.744 -158.317)" fill="none" stroke="#fff" stroke-miterlimit="10" stroke-width="3"/>
        <path id="Path_4670-2" data-name="Path 4670" d="M1293.619,453.074s-39.979-32.924-61.144-68.2-90.2-56.024-90.2-56.024" transform="translate(-1018.467 -23.882)" fill="none" stroke="#fff" stroke-miterlimit="10" stroke-width="3"/>
        <path id="Path_4671-2" data-name="Path 4671" d="M1161.846,362.62s41.093,55.373,55.642,72.347,14.552,43.649-19.4,82.446-55.773,97-65.473,109.12-38.8,21.824-38.8,21.824" transform="translate(-1081.367 -296.772)" fill="none" stroke="#fff" stroke-miterlimit="10" stroke-width="1"/>
        <path id="Path_4672-2" data-name="Path 4672" d="M1107.069,430.767s25.3,52.439,51.17,71.253,41.367,48,41.367,48" transform="translate(-1064.17 -355.035)" fill="none" stroke="#fff" stroke-miterlimit="10" stroke-width="1"/>
        <path id="Path_4673-2" data-name="Path 4673" d="M1188.353,519.553s-17.532-33.351-29.291-42.757-63.5-61.146-63.5-61.146" transform="translate(-1079.102 -289.833)" fill="none" stroke="#fff" stroke-miterlimit="10" stroke-width="1"/>
        <path id="Path_4674-2" data-name="Path 4674" d="M1176.9,473.362s-32.366-19.846-41.771-33.958-44.683-35.275-44.683-35.275" transform="translate(-1085.744 -217.166)" fill="none" stroke="#fff" stroke-miterlimit="10" stroke-width="1"/>
        <path id="Path_4675-2" data-name="Path 4675" d="M1160.936,442.935s-30.2-27.544-39.611-34.6-32.924-18.814-32.924-18.814" transform="translate(-1088.401 -153.172)" fill="none" stroke="#fff" stroke-miterlimit="10" stroke-width="1"/>
        <path id="Path_4676-2" data-name="Path 4676" d="M1143.546,407.63s-20.174-7.253-29.58-14.308-23.518-16.461-23.518-16.461" transform="translate(-1085.744 -88.774)" fill="none" stroke="#fff" stroke-miterlimit="10" stroke-width="1"/>
        <path id="Path_4677-2" data-name="Path 4677" d="M1178.8,419.315s-7.676-7.643-31.191-.588-42.332,23.518-54.091,21.165" transform="translate(-1081.759 -210.599)" fill="none" stroke="#fff" stroke-miterlimit="10" stroke-width="1"/>
        <path id="Path_4678-2" data-name="Path 4678" d="M1131.657,486.956s30.084-7.3,39.42-10.987" transform="translate(-1032.254 -395.851)" fill="none" stroke="#fff" stroke-miterlimit="10" stroke-width="1"/>
        <line id="Line_841-2" data-name="Line 841" y1="18.738" x2="38.353" transform="translate(145.357 145.496)" fill="none" stroke="#fff" stroke-miterlimit="10" stroke-width="1"/>
        <path id="Path_4679-2" data-name="Path 4679" d="M1131.557,396.579l-.308,3.689,40.358,28.8" transform="translate(-1032.784 -155.527)" fill="none" stroke="#fff" stroke-miterlimit="10" stroke-width="1"/>
        <path id="Path_4680-2" data-name="Path 4680" d="M1115.754,354.709s7.694,26.154,12.4,33.209,10.146,27.588,10.146,27.588" transform="translate(-1052.896 -45.741)" fill="none" stroke="#fff" stroke-miterlimit="10" stroke-width="1"/>
        <path id="Path_4681-2" data-name="Path 4681" d="M1567.143,347.725s-37.555,52.2-58.722,63.954-89.366,2.351-117.586,11.759-80.675,57.747-80.675,57.747" transform="translate(-800.55 -95.372)" fill="none" stroke="#fff" stroke-miterlimit="10" stroke-width="3"/>
        <path id="Path_4682-2" data-name="Path 4682" d="M1455.409,306.539s9.194,67.622-.212,102.9-76.871,36.688-91.349,74.787" transform="translate(-730.863 -3.762)" fill="none" stroke="#fff" stroke-miterlimit="10" stroke-width="3"/>
        <path id="Path_4683-2" data-name="Path 4683" d="M1371.133,636.868s-25.01-34.335-29.714-81.369,30.573-126.994,9.408-150.512" transform="translate(-760.542 -382.647)" fill="none" stroke="#fff" stroke-miterlimit="10" stroke-width="3"/>
        <rect id="Rectangle_2247-2" data-name="Rectangle 2247" width="419.201" height="891.228" rx="13.526" transform="translate(911.192 74.468) rotate(90)" fill="none"/>
      </g>
      <g id="Group_9062" data-name="Group 9062" transform="translate(508.599 1146.041)">
        <path id="Path_4684" data-name="Path 4684" d="M1165.2,522.786a5,5,0,1,1-5,5A5,5,0,0,1,1165.2,522.786Z" transform="translate(57.203 199.173)" fill="#ff5f9d"/>
        <path id="Path_4685" data-name="Path 4685" d="M1155.11,532.324a15,15,0,1,0,15-15A15,15,0,0,0,1155.11,532.324Zm21.385,0a6.386,6.386,0,1,1-6.385-6.387A6.385,6.385,0,0,1,1176.5,532.324Z" transform="translate(52.291 194.635)" fill="#ff5f9d" opacity="0.39"/>
      </g>
      <g id="Group_9065" data-name="Group 9065" transform="translate(-703.401 873.041)">
        <path id="Path_4684-2" data-name="Path 4684" d="M1165.2,522.786a5,5,0,1,1-5,5A5,5,0,0,1,1165.2,522.786Z" transform="translate(57.203 199.173)" fill="#31cf66"/>
        <path id="Path_4685-2" data-name="Path 4685" d="M1155.11,532.324a15,15,0,1,0,15-15A15,15,0,0,0,1155.11,532.324Zm21.385,0a6.386,6.386,0,1,1-6.385-6.387A6.385,6.385,0,0,1,1176.5,532.324Z" transform="translate(52.291 194.635)" fill="#31cf66" opacity="0.39"/>
      </g>
      <path id="Path_4686" data-name="Path 4686" d="M697.061,866.261c-.014.021-.032.04-.044.06.032-.076.072-.146.107-.222.1-.236.213-.459.327-.683.137-.269.28-.526.431-.776.123-.2.243-.41.373-.6.2-.3.419-.57.642-.841.169-.2.343-.4.524-.588.241-.25.486-.493.748-.716.157-.134.324-.255.489-.377.229-.172.463-.334.707-.484.172-.106.343-.211.521-.306a9.729,9.729,0,0,1,.892-.415c.141-.06.278-.13.424-.183a10.473,10.473,0,0,1,1.367-.385c.165-.035.336-.053.505-.081.34-.056.686-.1,1.04-.125.19-.012.382-.021.577-.026.375-.009.758,0,1.144.028.167.009.329.014.5.03a15.308,15.308,0,0,1,1.684.264c.123.028.248.067.368.095.468.113.943.245,1.425.4.2.065.4.137.593.208.438.158.88.338,1.327.533.19.083.38.162.572.252.628.3,1.26.621,1.9.991,5.682,3.28,10.827,8.893,14.55,15.314a50.312,50.312,0,0,1,2.513,4.946,46.28,46.28,0,0,1,1.9,5.105,35.17,35.17,0,0,1,1.617,10.125c0,.438-.028.892-.074,1.355-.014.153-.042.31-.06.463-.039.315-.083.635-.141.959-.035.188-.076.38-.116.57-.065.3-.132.607-.208.917-.051.2-.109.405-.164.611q-.129.462-.276.934c-.065.206-.132.412-.2.621-.109.327-.229.658-.352.989-.074.2-.144.4-.222.6-.141.364-.294.732-.447,1.1-.072.172-.139.343-.215.514-.234.54-.479,1.084-.739,1.629l-.032.067c-.25.528-.514,1.059-.785,1.589-.093.183-.19.364-.285.547-.195.371-.389.741-.591,1.112-.118.215-.239.431-.359.646q-.281.511-.575,1.021c-.127.22-.255.443-.384.663-.2.336-.394.67-.6,1-.13.218-.262.433-.394.651-.208.341-.417.676-.63,1.015-.127.2-.255.408-.385.612-.232.366-.468.729-.7,1.091-.109.164-.215.331-.322.5q-.518.789-1.038,1.552l-.049.072q-.5.733-.992,1.441c-.113.164-.227.322-.34.484-.234.331-.463.66-.695.982l-.118.164c-.449.63-.683.955-.757,1.047-3.989,5.471-7.332,9.342-7.332,9.342s-20.575-47.578-20.575-60.617A19.76,19.76,0,0,1,697.061,866.261ZM716.2,898.995c6.289,3.63,11.39.723,11.39-6.493s-5.1-16.011-11.39-19.643-11.388-.725-11.388,6.493S709.913,895.363,716.2,898.995Z" transform="translate(1014.986 938.492)" fill="#fff"/>
      <path id="Path_4687" data-name="Path 4687" d="M735.345,866.261c.014.021.032.04.044.06-.032-.076-.072-.146-.107-.222-.1-.236-.213-.459-.327-.683-.137-.269-.28-.526-.431-.776-.123-.2-.243-.41-.373-.6-.2-.3-.419-.57-.642-.841-.169-.2-.343-.4-.524-.588-.241-.25-.486-.493-.748-.716-.157-.134-.324-.255-.489-.377-.229-.172-.463-.334-.707-.484-.172-.106-.343-.211-.521-.306a9.729,9.729,0,0,0-.892-.415c-.141-.06-.278-.13-.424-.183a10.473,10.473,0,0,0-1.367-.385c-.165-.035-.336-.053-.505-.081-.34-.056-.686-.1-1.04-.125-.19-.012-.382-.021-.577-.026-.375-.009-.758,0-1.144.028-.167.009-.329.014-.5.03a15.308,15.308,0,0,0-1.684.264c-.123.028-.248.067-.368.095-.468.113-.943.245-1.425.4-.2.065-.4.137-.593.208-.438.158-.88.338-1.327.533-.19.083-.38.162-.572.252-.628.3-1.26.621-1.9.991-5.682,3.28-10.827,8.893-14.55,15.314a50.312,50.312,0,0,0-2.513,4.946,46.28,46.28,0,0,0-1.9,5.105,35.17,35.17,0,0,0-1.617,10.125c0,.438.028.892.074,1.355.014.153.042.31.06.463.039.315.083.635.141.959.035.188.076.38.116.57.065.3.132.607.208.917.051.2.109.405.164.611q.129.462.276.934c.065.206.132.412.2.621.109.327.229.658.352.989.074.2.144.4.222.6.141.364.294.732.447,1.1.072.172.139.343.215.514.234.54.479,1.084.739,1.629l.032.067c.25.528.514,1.059.785,1.589.093.183.19.364.285.547.195.371.389.741.591,1.112.118.215.239.431.359.646q.281.511.575,1.021c.127.22.255.443.384.663.2.336.394.67.6,1,.13.218.262.433.394.651.208.341.417.676.63,1.015.127.2.255.408.385.612.232.366.468.729.7,1.091.109.164.215.331.322.5q.518.789,1.038,1.552l.049.072q.5.733.992,1.441c.113.164.227.322.34.484.234.331.463.66.695.982l.118.164c.449.63.683.955.757,1.047,3.989,5.471,7.332,9.342,7.332,9.342s20.575-47.578,20.575-60.617A19.76,19.76,0,0,0,735.345,866.261ZM716.2,898.995c-6.289,3.63-11.39.723-11.39-6.493s5.1-16.011,11.39-19.643,11.388-.725,11.388,6.493S722.493,895.363,716.2,898.995Z" transform="translate(-197.014 666.492)" fill="#fff"/>
    </g>
  </g>
</svg>
