<svg xmlns="http://www.w3.org/2000/svg" xmlns:xlink="http://www.w3.org/1999/xlink" viewBox="0 0 512 512"><defs><style>.cls-1{fill:none;}.cls-14,.cls-2{isolation:isolate;}.cls-3{fill:#9c9da0;}.cls-4{fill:#2e3129;}.cls-5{fill:#545554;}.cls-6{fill:#050606;}.cls-7{fill:#3e3e3d;}.cls-14,.cls-8{fill:#858485;}.cls-9{fill:#00bfec;}.cls-10{fill:#0095c1;}.cls-11{fill:#78cfe8;}.cls-12{clip-path:url(#clip-path);}.cls-13,.cls-14{opacity:0.4;}.cls-15{fill:#fff;}.cls-16,.cls-18{fill:#da9a53;}.cls-17{fill:#74522d;}.cls-18{opacity:0.4;mix-blend-mode:multiply;}.cls-19{fill:#cbcbca;}.cls-20{fill:#965334;}.cls-21{fill:#2b120d;}.cls-22{fill:#ab5d2a;}.cls-23{fill:#b8b7bc;}.cls-24{fill:#6b6666;}</style><clipPath id="clip-path"><path class="cls-1" d="M219,148.72A1375.25,1375.25,0,0,1,362.82,147a78.07,78.07,0,0,1,39.35,12.75c24,15.74,51.6,39.47,65.83,58.25l-194-1.23-160.06,4.36,58-52.35A78.54,78.54,0,0,1,219,148.72Z"/></clipPath></defs><title>Artboard 1</title><g class="cls-2"><g id="Layer_1" data-name="Layer 1"><g id="Group_10336" data-name="Group 10336"><g id="Group_10283" data-name="Group 10283"><path id="Path_8634" data-name="Path 8634" class="cls-3" d="M3,351.6a5.77,5.77,0,0,0,5.74,5.81H504.16a5.77,5.77,0,0,0,5.74-5.81h0a5.78,5.78,0,0,0-5.74-5.82H8.73A5.77,5.77,0,0,0,3,351.59Z"/></g><g id="Group_10332" data-name="Group 10332"><g id="Group_10321" data-name="Group 10321"><path id="Path_9292" data-name="Path 9292" class="cls-4" d="M253.64,182.57H226.79L216,216.51h37.69Z"/><path id="Path_9293" data-name="Path 9293" class="cls-4" d="M334.08,182.57H307.23l-10.84,33.94h37.69Z"/></g><g id="Group_10322" data-name="Group 10322"><path id="Path_9294" data-name="Path 9294" class="cls-5" d="M63.32,258H83.94c17,0,30.87,19.67,30.87,43.94S101,345.86,83.94,345.86H63.32c-17,0-30.87-19.68-30.87-43.95S46.27,258,63.32,258Z"/><ellipse id="Ellipse_726" data-name="Ellipse 726" class="cls-6" cx="83.94" cy="301.91" rx="30.87" ry="43.94"/></g><g id="Group_10323" data-name="Group 10323"><path id="Path_9295" data-name="Path 9295" class="cls-5" d="M281.77,258H302.4c17.05,0,30.87,19.67,30.87,43.94s-13.82,43.95-30.87,43.95H281.77c-17,0-30.87-19.68-30.87-43.95S264.72,258,281.77,258Z"/><ellipse id="Ellipse_727" data-name="Ellipse 727" class="cls-6" cx="302.4" cy="301.91" rx="30.87" ry="43.94"/></g><path id="Path_9296" data-name="Path 9296" class="cls-6" d="M481.89,238.58h-416v76.84H439.18l42.71-14.61Z"/><g id="Group_10324" data-name="Group 10324"><path id="Path_9297" data-name="Path 9297" class="cls-6" d="M192.92,258h20.62c17.05,0,30.87,19.67,30.87,43.94s-13.82,43.95-30.87,43.95H192.92c-17,0-30.87-19.68-30.87-43.95S175.87,258,192.92,258Z"/><ellipse id="Ellipse_728" data-name="Ellipse 728" class="cls-5" cx="213.54" cy="301.91" rx="30.87" ry="43.94"/><ellipse id="Ellipse_729" data-name="Ellipse 729" class="cls-7" cx="213.54" cy="301.91" rx="21.27" ry="30.27"/><path id="Path_9321" data-name="Path 9321" class="cls-8" d="M207.65,282c7.73,0,14,8.93,14,19.94s-6.28,19.95-14,19.95-14-8.93-14-19.95S199.91,282,207.65,282Z"/></g><g id="Group_10325" data-name="Group 10325"><path id="Path_9298" data-name="Path 9298" class="cls-6" d="M426.1,258h20.62c17,0,30.87,19.67,30.87,43.94s-13.82,43.95-30.87,43.95H426.1c-17.05,0-30.87-19.68-30.87-43.95S409.05,258,426.1,258Z"/><ellipse id="Ellipse_731" data-name="Ellipse 731" class="cls-5" cx="446.72" cy="301.91" rx="30.87" ry="43.94"/><path id="Path_9320" data-name="Path 9320" class="cls-7" d="M446.72,271.64c11.75,0,21.27,13.55,21.27,30.27s-9.51,30.28-21.27,30.28-21.27-13.56-21.27-30.28S435,271.64,446.72,271.64Z"/><path id="Path_9319" data-name="Path 9319" class="cls-8" d="M440.83,282c7.74,0,14,8.93,14,19.94s-6.27,19.95-14,19.95-14-8.93-14-19.95S433.09,282,440.83,282Z"/></g><path id="Path_9299" data-name="Path 9299" class="cls-9" d="M113.94,221.14l160-4.36L468,218l21.16.14a17,17,0,0,1,16,11.67,85.12,85.12,0,0,1,4.71,31.08,49.12,49.12,0,0,1-15.74,33.91l-12.21,5.9v-9.33c0-25.76-15.49-46.65-34.61-46.65s-34.61,20.89-34.61,46.65h0a18.17,18.17,0,0,1-18.16,18.17H247.72V291.36c0-25.76-15.49-46.65-34.61-46.65S178.5,265.6,178.5,291.36h0a18.17,18.17,0,0,1-18.16,18.17H17.72C6.11,305.29,3,290.19,3,279.82v-25a22.67,22.67,0,0,1,16.12-21.7C45.67,225.11,75.23,222.36,113.94,221.14Z"/><path id="Path_9300" data-name="Path 9300" class="cls-10" d="M499.55,288.72a51.44,51.44,0,0,1-5.46,6.07l-12.2,5.89v-9.32c0-.89-.07-1.76-.1-2.64Z"/><path id="Path_9301" data-name="Path 9301" class="cls-10" d="M412.78,288.72c0,.93-.11,1.86-.1,2.81a18,18,0,0,1-18.1,18H247.7V291.35c0-.89-.06-1.76-.1-2.63Z"/><path id="Path_9302" data-name="Path 9302" class="cls-10" d="M178.62,288.72c0,.93-.11,1.86-.1,2.81a18,18,0,0,1-18.1,18H17.72c-8.55-3.11-12.49-12.12-14-20.8Z"/><path id="Path_9303" data-name="Path 9303" class="cls-9" d="M122.54,199.54h12.07A17.88,17.88,0,0,1,150,208.39l6.61,11.28-35.18-5a7.62,7.62,0,0,1-6.55-7.55h0a7.61,7.61,0,0,1,7.6-7.62Z"/><path id="Path_9304" data-name="Path 9304" class="cls-4" d="M119.54,216.05l211.17-5.42c-16.09-21.37-28.32-34.91-39.89-43.67A37.38,37.38,0,0,0,269,159.33,537.33,537.33,0,0,0,176.46,165,78.45,78.45,0,0,1,219,148.73,1378,1378,0,0,1,362.82,147a77.87,77.87,0,0,1,39.23,12.69c3.5,2.29,7.07,4.76,10.66,7.35H328.9l29.8,35.22h95.46A169.43,169.43,0,0,1,468,218l-194-1.23L113.9,221.14Z"/><path id="Path_9305" data-name="Path 9305" class="cls-4" d="M219,148.72A1375.25,1375.25,0,0,1,362.82,147a78.07,78.07,0,0,1,39.35,12.75c24,15.74,51.6,39.47,65.83,58.25l-194-1.23-160.06,4.36,58-52.35A78.54,78.54,0,0,1,219,148.72Z"/><g id="Group_10326" data-name="Group 10326"><rect id="Rectangle_2120" data-name="Rectangle 2120" class="cls-11" x="235.49" y="180.27" width="73.57" height="11.78" transform="translate(1.77 374.88) rotate(-69.26)"/></g><g id="Group_10329" data-name="Group 10329"><g class="cls-12"><g id="Group_10328" data-name="Group 10328"><g id="Group_10327" data-name="Group 10327" class="cls-13"><path id="Path_9306" data-name="Path 9306" class="cls-8" d="M241.59,153h35.72l-46.1,68.69H195.49Z"/><path id="Path_9307" data-name="Path 9307" class="cls-8" d="M351.42,153l-46.1,68.69H285.86L332,153Z"/><path id="Path_9308" data-name="Path 9308" class="cls-8" d="M421.27,153l-46.1,68.69H355.71L401.81,153Z"/></g></g></g></g><path id="Path_9310" data-name="Path 9310" class="cls-14" d="M165.91,219.33l-52,1.81,58-52.35a78.51,78.51,0,0,1,47-20.07c1.9-.13,3.89-.23,5.83-.36Z"/><path id="Path_9311" data-name="Path 9311" class="cls-11" d="M382.89,157.6a25.87,25.87,0,0,1,19.26,2.14c24,15.74,51.6,39.48,65.84,58.26l-18.58-.12C429.18,190.73,399.58,162.29,382.89,157.6Z"/><path id="Path_9312" data-name="Path 9312" class="cls-11" d="M180.3,162.29A78.19,78.19,0,0,1,219,148.73,1375.25,1375.25,0,0,1,362.84,147a78,78,0,0,1,39.35,12.75c1.25.81,2.51,1.66,3.77,2.53C386.66,151.14,198.29,152,180.3,162.29Z"/><g id="Group_10330" data-name="Group 10330"><rect id="Rectangle_2121" data-name="Rectangle 2121" class="cls-11" x="348.05" y="150.21" width="8.84" height="75.85" transform="translate(-32.76 82.16) rotate(-12.71)"/></g><path id="Path_9313" data-name="Path 9313" class="cls-10" d="M299.62,196.65H287.94a18.54,18.54,0,0,0-16,9.18l-6.42,10.95,35.17-5a7.63,7.63,0,0,0,6.55-7.55h0a7.62,7.62,0,0,0-7.6-7.62Z"/><path id="Path_9314" data-name="Path 9314" class="cls-15" d="M114.8,247.23a141.43,141.43,0,0,1,37.75-2.32,18,18,0,0,1,16.81,17.89v.36H111.85Z"/><path id="Path_9315" data-name="Path 9315" class="cls-10" d="M153,245a18,18,0,0,1,16.33,17.83v.36H150.09Z"/><path id="Path_9316" data-name="Path 9316" class="cls-11" d="M7.91,240.84a23.13,23.13,0,0,1,11.43-7.76c26.5-8,56-10.72,94.6-11.94l160-4.36L468,218l21.16.13A16.76,16.76,0,0,1,505,229.5l0,.11c-128.52.37-267.69,4.79-338.4,11.23C104.78,243.06,34.1,245,7.91,240.84Z"/><path id="Path_9317" data-name="Path 9317" class="cls-15" d="M3,254.84a22.39,22.39,0,0,1,2.43-10.12,146.24,146.24,0,0,1,21.18,2.5l2.95,15.93H3Z"/><path id="Path_9318" data-name="Path 9318" class="cls-4" d="M101.86,263.15c-22.61,4.36-43.8,4.9-63,0l-3-15.3H104.8Z"/><g id="Group_10331" data-name="Group 10331"><rect id="Rectangle_2122" data-name="Rectangle 2122" class="cls-4" x="264.54" y="246.79" width="15.27" height="15.27"/><rect id="Rectangle_2123" data-name="Rectangle 2123" class="cls-4" x="279.81" y="262.06" width="15.27" height="15.27"/><rect id="Rectangle_2124" data-name="Rectangle 2124" class="cls-4" x="295.08" y="246.79" width="15.27" height="15.27"/><rect id="Rectangle_2125" data-name="Rectangle 2125" class="cls-4" x="310.35" y="262.06" width="15.27" height="15.27"/><rect id="Rectangle_2126" data-name="Rectangle 2126" class="cls-4" x="325.62" y="246.79" width="15.27" height="15.27"/><rect id="Rectangle_2127" data-name="Rectangle 2127" class="cls-4" x="340.89" y="262.06" width="15.27" height="15.27"/><rect id="Rectangle_2128" data-name="Rectangle 2128" class="cls-4" x="356.17" y="246.79" width="15.27" height="15.27"/><rect id="Rectangle_2129" data-name="Rectangle 2129" class="cls-4" x="371.44" y="262.06" width="15.27" height="15.27"/><rect id="Rectangle_2130" data-name="Rectangle 2130" class="cls-4" x="386.71" y="246.79" width="15.27" height="15.27"/></g></g></g><rect class="cls-16" x="363.26" y="279.85" width="75.77" height="67.94"/><path class="cls-17" d="M439,348.05H363.26a.26.26,0,0,1-.25-.26V279.85a.26.26,0,0,1,.25-.26H439a.26.26,0,0,1,.26.26v67.94A.26.26,0,0,1,439,348.05Zm-75.51-.51h75.25V280.11H363.52Z"/><path class="cls-18" d="M434.61,310.54c-5.54,11.93-17.18,20.78-30.35,22.15a33.29,33.29,0,0,1-18.73-3.52,37.82,37.82,0,0,1-14.15-12.87,53.69,53.69,0,0,1-8-20.65l-.09-.56v52.7H439V299.36A108.64,108.64,0,0,1,434.61,310.54Z"/><rect class="cls-15" x="392.79" y="308.99" width="28.3" height="13.02"/><rect class="cls-19" x="395.74" y="311.18" width="9.73" height="0.74"/><rect class="cls-19" x="406.86" y="311.18" width="9.73" height="0.74"/><rect class="cls-19" x="406.86" y="318.41" width="1.61" height="1.79"/><rect class="cls-19" x="409.29" y="318.41" width="1.61" height="1.79"/><rect class="cls-19" x="411.72" y="318.41" width="1.61" height="1.79"/><rect class="cls-19" x="414.16" y="318.41" width="1.61" height="1.79"/><rect class="cls-19" x="416.59" y="318.41" width="1.61" height="1.79"/><rect class="cls-19" x="395.74" y="314.03" width="23.24" height="0.75"/><rect class="cls-19" x="395.74" y="312.61" width="23.24" height="0.75"/><rect class="cls-19" x="395.74" y="315.46" width="23.24" height="0.75"/><rect class="cls-19" x="395.74" y="316.87" width="7.76" height="0.75"/><rect class="cls-15" x="365.77" y="281.35" width="16.54" height="7.61"/><rect class="cls-19" x="367.5" y="282.63" width="5.69" height="0.44"/><rect class="cls-19" x="374" y="282.63" width="5.69" height="0.44"/><rect class="cls-19" x="374" y="286.85" width="0.94" height="1.04"/><rect class="cls-19" x="375.42" y="286.85" width="0.94" height="1.04"/><rect class="cls-19" x="376.84" y="286.85" width="0.94" height="1.04"/><rect class="cls-19" x="378.27" y="286.85" width="0.94" height="1.04"/><rect class="cls-19" x="379.69" y="286.85" width="0.94" height="1.04"/><rect class="cls-19" x="367.5" y="284.29" width="13.59" height="0.44"/><rect class="cls-19" x="367.5" y="283.46" width="13.59" height="0.44"/><rect class="cls-19" x="367.5" y="285.12" width="13.59" height="0.44"/><rect class="cls-19" x="367.5" y="285.95" width="4.54" height="0.44"/><polygon class="cls-20" points="394.91 279.85 394.91 286.68 394.94 286.7 395.61 286.16 396.28 286.7 396.94 286.16 397.61 286.7 398.28 286.16 398.95 286.7 399.62 286.16 400.29 286.7 400.95 286.16 401.62 286.7 402.29 286.16 402.96 286.7 403.63 286.16 404.3 286.7 404.97 286.16 405.64 286.7 405.65 286.69 405.65 279.85 394.91 279.85"/><rect class="cls-16" x="368.53" y="242.12" width="64.16" height="37.87"/><path class="cls-17" d="M432.69,280.25H368.53a.26.26,0,0,1-.26-.26V242.12a.26.26,0,0,1,.26-.25h64.16a.25.25,0,0,1,.25.25V280A.26.26,0,0,1,432.69,280.25Zm-63.91-.51h63.65V242.38H368.78Z"/><path class="cls-18" d="M426.08,267.58A34.76,34.76,0,0,1,411.86,275c-11.38,3.21-24.47,2.3-33.61-5.83a37.15,37.15,0,0,1-9.72-14.48V280h64.16V258.4A28.19,28.19,0,0,1,426.08,267.58Z"/><rect class="cls-15" x="388.63" y="259.43" width="23.96" height="11.02"/><rect class="cls-19" x="391.13" y="261.28" width="8.24" height="0.63"/><rect class="cls-19" x="400.54" y="261.28" width="8.24" height="0.63"/><rect class="cls-19" x="400.54" y="267.4" width="1.36" height="1.51"/><rect class="cls-19" x="402.6" y="267.4" width="1.37" height="1.51"/><rect class="cls-19" x="404.66" y="267.4" width="1.36" height="1.51"/><rect class="cls-19" x="406.72" y="267.4" width="1.36" height="1.51"/><rect class="cls-19" x="408.78" y="267.4" width="1.36" height="1.51"/><rect class="cls-19" x="391.13" y="263.7" width="19.68" height="0.63"/><rect class="cls-19" x="391.13" y="262.49" width="19.68" height="0.63"/><rect class="cls-19" x="391.13" y="264.9" width="19.68" height="0.63"/><rect class="cls-19" x="391.13" y="266.1" width="6.57" height="0.63"/><polygon class="cls-20" points="395.32 242.12 395.32 247.9 395.36 247.93 395.92 247.47 396.48 247.93 397.05 247.47 397.62 247.93 398.18 247.47 398.75 247.93 399.31 247.47 399.88 247.93 400.44 247.47 401.01 247.93 401.58 247.47 402.14 247.93 402.71 247.47 403.28 247.93 403.84 247.47 404.41 247.93 404.42 247.92 404.42 242.12 395.32 242.12"/><path class="cls-21" d="M413.18,348.05a.77.77,0,0,1-.74-.58L386.67,242.29a.77.77,0,0,1,1.5-.35l25.76,105.17a.76.76,0,0,1-.56.92Z"/><path class="cls-21" d="M390.38,348.05l-.16,0a.75.75,0,0,1-.59-.9L411.84,242a.76.76,0,0,1,.91-.59.78.78,0,0,1,.59.91L391.12,347.44A.76.76,0,0,1,390.38,348.05Z"/><rect class="cls-22" x="309.35" y="265.55" width="61.42" height="82.5" rx="6.55"/><polygon class="cls-15" points="366.27 342.55 313.61 342.55 313.61 270.13 366.27 270.13 366.27 279.06 366.27 342.55"/><rect class="cls-23" x="343.26" y="283.88" width="15.58" height="0.92"/><rect class="cls-23" x="333.18" y="329.72" width="13.75" height="0.92"/><rect class="cls-23" x="322.18" y="293.05" width="36.67" height="0.92"/><rect class="cls-23" x="322.18" y="297.63" width="36.67" height="0.92"/><rect class="cls-23" x="322.18" y="302.22" width="36.67" height="0.92"/><rect class="cls-23" x="322.18" y="306.8" width="36.67" height="0.92"/><rect class="cls-23" x="322.18" y="312.3" width="36.67" height="0.92"/><rect class="cls-23" x="322.18" y="316.88" width="36.67" height="0.92"/><rect class="cls-23" x="322.18" y="321.47" width="36.67" height="0.92"/><path class="cls-24" d="M351.51,264.63a4.58,4.58,0,0,1-4.58,4.59H334.1a4.58,4.58,0,0,1-4.58-4.59h0a4.58,4.58,0,0,1,4.58-4.58h12.83a4.58,4.58,0,0,1,4.58,4.58Z"/><path class="cls-23" d="M323.66,271.64h0c0-2.59,3.11-4.26,6.94-4.26H350c3.83,0,6.94,1.89,6.94,4.47h0"/></g></g></svg>