<svg xmlns="http://www.w3.org/2000/svg" width="62.669" height="71.677" viewBox="0 0 62.669 71.677">
  <g id="Group_8993" data-name="Group 8993" transform="translate(1.261 1.336)">
    <g id="Group_8991" data-name="Group 8991" transform="translate(28.938 31.559)">
      <path id="Path_4601" data-name="Path 4601" d="M244.252,216.54l-2.27-4.832c16.948-7.956,16.557-20.747,16.533-21.287l5.327-.3C263.882,190.8,264.6,206.983,244.252,216.54Z" transform="translate(-241.982 -190.121)" fill="#8aa8ba" stroke="#fff" stroke-miterlimit="10" stroke-width="2.5"/>
    </g>
    <g id="Group_8992" data-name="Group 8992" transform="translate(0)">
      <path id="Path_4602" data-name="Path 4602" d="M261.245,247.423a2.68,2.68,0,0,1-1.135-.254c-29.41-13.805-29.011-36.758-28.925-38.645v-25.6a2.667,2.667,0,0,1,3.665-2.474,30,30,0,0,0,10.909,1.893c5.6,0,10.936-1.344,13.931-3.507a2.668,2.668,0,0,1,3.124,0c2.993,2.16,8.325,3.5,13.918,3.5a29.96,29.96,0,0,0,10.909-1.893,2.67,2.67,0,0,1,3.667,2.474v25.6c.083,1.887.482,24.84-28.928,38.645A2.679,2.679,0,0,1,261.245,247.423ZM236.52,186.585v22c0,.054,0,.107-.005.161-.043.833-.742,20.511,24.73,33.048,25.472-12.536,24.773-32.215,24.73-33.061,0-.045,0-.1,0-.147v-22.01a38.324,38.324,0,0,1-9.241,1.1c-6.018,0-11.538-1.266-15.486-3.518-3.935,2.222-9.562,3.518-15.486,3.518A37.947,37.947,0,0,1,236.52,186.585Z" transform="translate(-231.172 -178.332)" fill="#8aa8ba" stroke="#fff" stroke-miterlimit="10" stroke-width="2.5"/>
    </g>
  </g>
</svg>
