<svg xmlns="http://www.w3.org/2000/svg" width="72.948" height="72.948" viewBox="0 0 72.948 72.948">
  <g id="Group_9013" data-name="Group 9013" transform="translate(0)">
    <g id="Group_9004" data-name="Group 9004" transform="translate(0 17.267)">
      <g id="Group_9003" data-name="Group 9003">
        <path id="Path_4612" data-name="Path 4612" d="M371.39,203.244l-3.311-.415a22.683,22.683,0,0,0-4.248-6.709l2.433-10.309a1.422,1.422,0,0,0-1.384-1.751h-.319a9.817,9.817,0,0,0-9.11,6.267,22.65,22.65,0,0,0-3.116-.985,1.425,1.425,0,0,0-.656,2.773,19.742,19.742,0,0,1,9.412,5.239,1.4,1.4,0,0,0,.345.353,19.841,19.841,0,0,1,4.281,6.915,1.43,1.43,0,0,0,1.162.929l4.157.519a1.3,1.3,0,0,1,1.138,1.29v7.185a1.3,1.3,0,0,1-1.138,1.29l-3.852.482a1.427,1.427,0,0,0-1.183.988,19.753,19.753,0,0,1-6.275,9.332,1.429,1.429,0,0,0-.517,1.1v7.876a1.284,1.284,0,0,1-1.282,1.282h-8.264a1.284,1.284,0,0,1-1.282-1.282v-3a1.426,1.426,0,0,0-1.424-1.427H334.988a1.428,1.428,0,0,0-1.427,1.427v3a1.282,1.282,0,0,1-1.28,1.282h-8.267a1.284,1.284,0,0,1-1.282-1.282v-5.56a1.419,1.419,0,0,0-.744-1.253,19.8,19.8,0,0,1,9.434-37.213h1.786a1.425,1.425,0,0,0,0-2.851h-1.786a22.691,22.691,0,0,0-21.962,17.106h-1.044a3.491,3.491,0,1,1,0-6.982,1.426,1.426,0,0,0,0-2.851,6.34,6.34,0,1,0,0,12.681h.517a22.967,22.967,0,0,0-.161,2.7,22.648,22.648,0,0,0,11.112,19.5v4.73a4.135,4.135,0,0,0,4.131,4.131h8.264a4.137,4.137,0,0,0,4.133-4.131v-1.577h9.121v1.577a4.135,4.135,0,0,0,4.131,4.131h8.264a4.137,4.137,0,0,0,4.133-4.131v-7.22a22.593,22.593,0,0,0,6.366-9.356l2.964-.372a4.155,4.155,0,0,0,3.633-4.117v-7.185A4.155,4.155,0,0,0,371.39,203.244Zm-9.95-9.391a22.915,22.915,0,0,0-3.4-2.3,6.955,6.955,0,0,1,5-4.468Z" transform="translate(-302.074 -184.061)" fill="#88a8ba"/>
      </g>
    </g>
    <g id="Group_9006" data-name="Group 9006" transform="translate(54.284 35.762)">
      <g id="Group_9005" data-name="Group 9005">
        <path id="Path_4613" data-name="Path 4613" d="M324.785,191.388a1.425,1.425,0,1,0,.418,1.007A1.434,1.434,0,0,0,324.785,191.388Z" transform="translate(-322.352 -190.97)" fill="#88a8ba"/>
      </g>
    </g>
    <g id="Group_9008" data-name="Group 9008" transform="translate(28.781)">
      <g id="Group_9007" data-name="Group 9007">
        <path id="Path_4614" data-name="Path 4614" d="M314.252,177.611a1.426,1.426,0,0,0-1.427,1.424v2.423a1.425,1.425,0,0,0,2.851,0v-2.423A1.424,1.424,0,0,0,314.252,177.611Z" transform="translate(-312.825 -177.611)" fill="#88a8ba"/>
      </g>
    </g>
    <g id="Group_9010" data-name="Group 9010" transform="translate(24.222 6.848)">
      <g id="Group_9009" data-name="Group 9009">
        <path id="Path_4615" data-name="Path 4615" d="M317.108,180.169a5.983,5.983,0,1,0,5.983,5.983A5.99,5.99,0,0,0,317.108,180.169Zm0,9.118a3.135,3.135,0,1,1,3.135-3.135A3.137,3.137,0,0,1,317.108,189.287Z" transform="translate(-311.122 -180.169)" fill="#88a8ba"/>
      </g>
    </g>
    <g id="Group_9012" data-name="Group 9012" transform="translate(28.213 21.087)">
      <g id="Group_9011" data-name="Group 9011">
        <path id="Path_4616" data-name="Path 4616" d="M332.559,194.606h-1.282a5.984,5.984,0,1,0-10.191,0h-7.049a1.426,1.426,0,0,0,0,2.851h18.522a1.426,1.426,0,0,0,0-2.851Zm-6.377,0a3.133,3.133,0,1,1,3.132-3.135A3.137,3.137,0,0,1,326.183,194.606Z" transform="translate(-312.613 -185.488)" fill="#88a8ba"/>
      </g>
    </g>
  </g>
</svg>
