<svg id="Group_9001" data-name="Group 9001" xmlns="http://www.w3.org/2000/svg" width="78.966" height="85.792" viewBox="0 0 78.966 85.792">
  <g id="Group_8994" data-name="Group 8994" transform="translate(39.609)">
    <path id="Path_4603" data-name="Path 4603" d="M101.086,232.034c-.592,0-1.189-.011-1.791-.021s-1.245-.021-1.882-.021v-2.838c.656,0,1.3.013,1.933.024,3.518.064,6.294.112,8.186-1.745,2.2-2.158,3.261-7.022,3.261-14.879,0-19.416-10.671-34.5-13.38-34.5v-2.838c5.341,0,16.217,17.285,16.217,37.341,0,8.9-1.269,14.11-4.112,16.9C107.208,231.726,104.261,232.034,101.086,232.034Z" transform="translate(-97.413 -175.212)" fill="#8aa8ba"/>
  </g>
  <g id="Group_8995" data-name="Group 8995" transform="translate(23.392)">
    <path id="Path_4604" data-name="Path 4604" d="M103.9,232.034c-3.175,0-6.122-.308-8.433-2.578-2.843-2.792-4.112-8.007-4.112-16.9,0-20.056,10.877-37.341,16.217-37.341v2.838c-2.706,0-13.38,15.088-13.38,34.5,0,7.857,1.065,12.721,3.261,14.879,1.893,1.858,4.666,1.81,8.189,1.745.632-.011,1.277-.024,1.93-.024v2.838c-.637,0-1.264.011-1.882.021C105.088,232.023,104.491,232.034,103.9,232.034Z" transform="translate(-91.355 -175.212)" fill="#8aa8ba"/>
  </g>
  <g id="Group_8996" data-name="Group 8996" transform="translate(30.791 53.885)">
    <path id="Path_4605" data-name="Path 4605" d="M110.336,205.032h-14.8a1.421,1.421,0,0,1-1.419-1.419v-6.856a1.419,1.419,0,0,1,1.419-1.416h14.8a1.417,1.417,0,0,1,1.419,1.416v6.856A1.42,1.42,0,0,1,110.336,205.032Zm-13.38-2.838h11.961v-4.018H96.957Z" transform="translate(-94.119 -195.341)" fill="#8aa8ba"/>
  </g>
  <g id="Group_8997" data-name="Group 8997" transform="translate(9.615 29.495)">
    <path id="Path_4606" data-name="Path 4606" d="M87.628,209.437a1.42,1.42,0,0,1-1.339-1.89c5.421-15.361,14.386-21.081,14.766-21.317l1.5,2.407-.75-1.2.752,1.2c-.075.048-6.757,4.358-11.8,15.4A35.2,35.2,0,0,1,101.525,200l.562,2.779c-8.773,1.775-13.425,6.213-13.471,6.259A1.416,1.416,0,0,1,87.628,209.437Z" transform="translate(-86.209 -186.23)" fill="#8aa8ba"/>
  </g>
  <g id="Group_8998" data-name="Group 8998" transform="translate(53.655 29.495)">
    <path id="Path_4607" data-name="Path 4607" d="M117.59,209.437a1.416,1.416,0,0,1-.988-.4c-.046-.043-4.754-4.495-13.471-6.259l.562-2.779a35.232,35.232,0,0,1,10.764,4.037c-5.043-11.043-11.723-15.353-11.8-15.4l1.5-2.4c.38.236,9.343,5.956,14.766,21.317a1.42,1.42,0,0,1-1.338,1.89Z" transform="translate(-102.66 -186.23)" fill="#8aa8ba"/>
  </g>
  <g id="Group_8999" data-name="Group 8999" transform="translate(30.791 21.325)">
    <path id="Path_4608" data-name="Path 4608" d="M105.726,195.233h-5.579a6.027,6.027,0,1,1,0-12.055h5.579a6.027,6.027,0,1,1,0,12.055Zm-5.579-9.22a3.191,3.191,0,0,0,0,6.382h5.579a3.191,3.191,0,0,0,0-6.382Z" transform="translate(-94.119 -183.178)" fill="#8aa8ba"/>
  </g>
  <g id="Group_9000" data-name="Group 9000" transform="translate(0 66.175)">
    <path id="Path_4609" data-name="Path 4609" d="M161.583,219.549h-2.838a10.873,10.873,0,0,0-19.44-6.7,1.418,1.418,0,0,1-2.535-.83l-.008-.233a5.452,5.452,0,0,0-5.437-5.477,5.382,5.382,0,0,0-3.084.958,1.423,1.423,0,0,1-2.3-.621,1.4,1.4,0,0,1-.064-.573,3.814,3.814,0,0,0-7.557-.027,1.442,1.442,0,0,1-.062.6,1.425,1.425,0,0,1-2.254.656,5.437,5.437,0,0,0-8.569,4.441l-.005.265a1.418,1.418,0,0,1-2.535.843,10.873,10.873,0,0,0-19.443,6.693H82.617a13.715,13.715,0,0,1,22.455-10.563,8.288,8.288,0,0,1,10.788-4.955,6.8,6.8,0,0,1,12.477,0,8.287,8.287,0,0,1,10.788,4.958,13.714,13.714,0,0,1,22.457,10.561Z" transform="translate(-82.617 -199.932)" fill="#8aa8ba"/>
  </g>
</svg>
