<svg id="Layer_1" data-name="Layer 1" xmlns="http://www.w3.org/2000/svg" xmlns:xlink="http://www.w3.org/1999/xlink" viewBox="0 0 512 512"><defs><style>.cls-1{fill:none;}.cls-2{fill:#9c9da0;}.cls-3{fill:#2e3129;}.cls-4{fill:#545554;}.cls-5{fill:#050606;}.cls-6{fill:#3e3e3d;}.cls-12,.cls-7{fill:#858485;}.cls-8{fill:#eec334;}.cls-9{fill:#dc9a28;}.cls-10{clip-path:url(#clip-path);}.cls-11,.cls-12{opacity:0.4;}.cls-12{isolation:isolate;}.cls-13{fill:#fde533;}.cls-14{fill:#fff;}.cls-15{fill:#ec7423;}</style><clipPath id="clip-path"><path class="cls-1" d="M219.38,150.24A1374,1374,0,0,1,363,148.52a78,78,0,0,1,39.29,12.74c24,15.71,51.53,39.41,65.74,58.17L274.31,218.2l-159.83,4.35,58-52.28A78.36,78.36,0,0,1,219.38,150.24Z"/></clipPath></defs><title>Artboard 1</title><g id="Group_10336" data-name="Group 10336"><g id="Group_10283" data-name="Group 10283"><path id="Path_8634" data-name="Path 8634" class="cls-2" d="M3,351.6a5.77,5.77,0,0,0,5.73,5.81H504.16a5.77,5.77,0,0,0,5.74-5.8h0a5.78,5.78,0,0,0-5.74-5.82H8.73A5.77,5.77,0,0,0,3,351.59H3Z"/></g></g><g id="Group_10336-2" data-name="Group 10336"><g id="Group_10332" data-name="Group 10332"><g id="Group_10321" data-name="Group 10321"><path id="Path_9292" data-name="Path 9292" class="cls-3" d="M254,184H227.2l-10.83,33.88H254Z"/><path id="Path_9293" data-name="Path 9293" class="cls-3" d="M334.33,184H307.52l-10.83,33.88h37.64Z"/></g><g id="Group_10322" data-name="Group 10322"><path id="Path_9294" data-name="Path 9294" class="cls-4" d="M64,259.33h20.6c17,0,30.82,19.64,30.82,43.88s-13.8,43.88-30.82,43.88H64c-17,0-30.82-19.65-30.82-43.88S46.94,259.33,64,259.33Z"/><ellipse id="Ellipse_726" data-name="Ellipse 726" class="cls-5" cx="84.56" cy="303.21" rx="30.83" ry="43.88"/></g><g id="Group_10323" data-name="Group 10323"><path id="Path_9295" data-name="Path 9295" class="cls-4" d="M282.1,259.33h20.59c17,0,30.83,19.64,30.83,43.88s-13.8,43.88-30.83,43.88H282.1c-17,0-30.82-19.65-30.82-43.88S265.08,259.33,282.1,259.33Z"/><ellipse id="Ellipse_727" data-name="Ellipse 727" class="cls-5" cx="302.69" cy="303.21" rx="30.83" ry="43.88"/></g><path id="Path_9296" data-name="Path 9296" class="cls-5" d="M481.93,240H66.48v76.73h372.8l42.65-14.58Z"/><g id="Group_10324" data-name="Group 10324"><path id="Path_9297" data-name="Path 9297" class="cls-5" d="M193.38,259.33H214c17,0,30.83,19.64,30.83,43.88S231,347.09,214,347.09H193.38c-17,0-30.83-19.65-30.83-43.88S176.35,259.33,193.38,259.33Z"/><ellipse id="Ellipse_728" data-name="Ellipse 728" class="cls-4" cx="213.97" cy="303.21" rx="30.83" ry="43.88"/><ellipse id="Ellipse_729" data-name="Ellipse 729" class="cls-6" cx="213.97" cy="303.21" rx="21.24" ry="30.23"/><path id="Path_9321" data-name="Path 9321" class="cls-7" d="M208.08,283.29c7.73,0,14,8.92,14,19.92s-6.26,19.91-14,19.91-14-8.91-14-19.91S200.36,283.29,208.08,283.29Z"/></g><g id="Group_10325" data-name="Group 10325"><path id="Path_9298" data-name="Path 9298" class="cls-5" d="M426.22,259.33h20.59c17,0,30.83,19.64,30.83,43.88s-13.8,43.88-30.83,43.88H426.22c-17,0-30.83-19.65-30.83-43.88S409.2,259.33,426.22,259.33Z"/><ellipse id="Ellipse_731" data-name="Ellipse 731" class="cls-4" cx="446.81" cy="303.21" rx="30.83" ry="43.88"/><path id="Path_9320" data-name="Path 9320" class="cls-6" d="M446.81,273c11.73,0,21.24,13.53,21.24,30.23s-9.5,30.23-21.24,30.23-21.23-13.54-21.23-30.23S435.07,273,446.81,273Z"/><path id="Path_9319" data-name="Path 9319" class="cls-7" d="M440.93,283.29c7.73,0,14,8.92,14,19.92s-6.26,19.91-14,19.91-14-8.91-14-19.91S433.2,283.29,440.93,283.29Z"/></g><path id="Path_9299" data-name="Path 9299" class="cls-8" d="M114.51,222.55l159.81-4.35,193.74,1.21,21.13.13a16.92,16.92,0,0,1,15.94,11.66,84.87,84.87,0,0,1,4.71,31,49,49,0,0,1-15.72,33.85L481.93,302v-9.31c0-25.73-15.47-46.58-34.56-46.58s-34.56,20.85-34.56,46.58h0a18.14,18.14,0,0,1-18.13,18.14H248.1V292.67c0-25.73-15.47-46.58-34.56-46.58S179,266.94,179,292.67h0a18.14,18.14,0,0,1-18.14,18.14H18.43C6.84,306.58,3.72,291.5,3.72,281.15V256.2a22.64,22.64,0,0,1,16.1-21.67C46.34,226.52,75.85,223.77,114.51,222.55Z"/><path id="Path_9300" data-name="Path 9300" class="cls-9" d="M499.57,290a51.44,51.44,0,0,1-5.46,6.06L481.92,302v-9.31c0-.89-.06-1.76-.09-2.64Z"/><path id="Path_9301" data-name="Path 9301" class="cls-9" d="M412.92,290c0,.93-.11,1.86-.1,2.8a18,18,0,0,1-18.07,18H248.08V292.66c0-.89-.06-1.75-.1-2.63Z"/><path id="Path_9302" data-name="Path 9302" class="cls-9" d="M179.09,290c0,.93-.1,1.86-.09,2.8a18,18,0,0,1-18.08,18H18.43C9.89,307.69,6,298.7,4.48,290Z"/><path id="Path_9303" data-name="Path 9303" class="cls-9" d="M123.1,201h12.05a17.86,17.86,0,0,1,15.41,8.84l6.59,11.26-35.11-5a7.6,7.6,0,0,1-6.55-7.53h0a7.6,7.6,0,0,1,7.59-7.61Z"/><path id="Path_9304" data-name="Path 9304" class="cls-3" d="M120.1,217.46,331,212.05c-16-21.34-28.27-34.85-39.83-43.61a37.31,37.31,0,0,0-21.8-7.61A536.71,536.71,0,0,0,177,166.51a78.28,78.28,0,0,1,42.43-16.27A1376.72,1376.72,0,0,1,363,148.53,77.73,77.73,0,0,1,402.2,161.2c3.5,2.29,7.06,4.75,10.65,7.34H329.16l29.76,35.17h95.31a167.63,167.63,0,0,1,13.82,15.72L274.3,218.2l-159.83,4.35Z"/><path id="Path_9305" data-name="Path 9305" class="cls-3" d="M219.38,150.24A1374,1374,0,0,1,363,148.52a78,78,0,0,1,39.29,12.74c24,15.71,51.53,39.41,65.74,58.17L274.31,218.2l-159.83,4.35,58-52.28A78.36,78.36,0,0,1,219.38,150.24Z"/><g id="Group_10326" data-name="Group 10326"><rect id="Rectangle_2120" data-name="Rectangle 2120" class="cls-8" x="235.89" y="181.74" width="73.47" height="11.76" transform="translate(0.62 376.15) rotate(-69.26)"/></g><g id="Group_10329" data-name="Group 10329"><g class="cls-10"><g id="Group_10328" data-name="Group 10328"><g id="Group_10327" data-name="Group 10327" class="cls-11"><path id="Path_9306" data-name="Path 9306" class="cls-7" d="M242,154.49h35.66l-46,68.59H196Z"/><path id="Path_9307" data-name="Path 9307" class="cls-7" d="M351.65,154.49l-46,68.59H286.19l46-68.59Z"/><path id="Path_9308" data-name="Path 9308" class="cls-7" d="M421.4,154.49l-46,68.59H355.93l46-68.59Z"/></g></g></g></g><path id="Path_9310" data-name="Path 9310" class="cls-12" d="M166.41,220.74l-51.91,1.81,57.95-52.28a78.42,78.42,0,0,1,47-20l5.82-.37Z"/><path id="Path_9311" data-name="Path 9311" class="cls-8" d="M383.07,159.11a25.77,25.77,0,0,1,19.24,2.13c24,15.72,51.52,39.42,65.74,58.18l-18.55-.12C429.3,192.18,399.74,163.78,383.07,159.11Z"/><path id="Path_9312" data-name="Path 9312" class="cls-8" d="M180.78,163.78a78.13,78.13,0,0,1,38.62-13.53,1374,1374,0,0,1,143.65-1.72,78.13,78.13,0,0,1,39.3,12.73c1.24.82,2.5,1.67,3.76,2.53C386.83,152.65,198.74,153.48,180.78,163.78Z"/><g id="Group_10330" data-name="Group 10330"><rect id="Rectangle_2121" data-name="Rectangle 2121" class="cls-8" x="348.28" y="151.73" width="8.82" height="75.74" transform="translate(-33.07 82.24) rotate(-12.71)"/></g><path id="Path_9313" data-name="Path 9313" class="cls-13" d="M299.92,198.1H288.26a18.55,18.55,0,0,0-16,9.16l-6.41,10.94,35.12-5a7.6,7.6,0,0,0,6.54-7.53h0a7.59,7.59,0,0,0-7.59-7.61Z"/><path id="Path_9314" data-name="Path 9314" class="cls-14" d="M115.37,248.6a141.82,141.82,0,0,1,37.69-2.32,18,18,0,0,1,16.79,17.87v.36H112.42Z"/><path id="Path_9315" data-name="Path 9315" class="cls-15" d="M153.54,246.34a18,18,0,0,1,16.3,17.81v.36H150.61Z"/><path id="Path_9316" data-name="Path 9316" class="cls-13" d="M8.64,242.23a23,23,0,0,1,11.41-7.76c26.46-8,55.92-10.7,94.46-11.92l159.81-4.35,193.74,1.21,21.13.13A16.73,16.73,0,0,1,505,230.9l0,.1c-128.33.38-267.3,4.79-337.9,11.23C105.36,244.43,34.78,246.34,8.64,242.23Z"/><path id="Path_9317" data-name="Path 9317" class="cls-14" d="M3.72,256.2a22.44,22.44,0,0,1,2.43-10.1,146,146,0,0,1,21.15,2.49l2.94,15.91H3.72Z"/><path id="Path_9318" data-name="Path 9318" class="cls-3" d="M102.44,264.5c-22.57,4.35-43.73,4.89-62.87,0l-3-15.28h68.77Z"/><g id="Group_10331" data-name="Group 10331"><rect id="Rectangle_2122" data-name="Rectangle 2122" class="cls-3" x="264.89" y="248.16" width="15.25" height="15.25"/><rect id="Rectangle_2123" data-name="Rectangle 2123" class="cls-3" x="280.14" y="263.41" width="15.25" height="15.25"/><rect id="Rectangle_2124" data-name="Rectangle 2124" class="cls-3" x="295.39" y="248.16" width="15.25" height="15.25"/><rect id="Rectangle_2125" data-name="Rectangle 2125" class="cls-3" x="310.64" y="263.41" width="15.25" height="15.25"/><rect id="Rectangle_2126" data-name="Rectangle 2126" class="cls-3" x="325.89" y="248.16" width="15.25" height="15.25"/><rect id="Rectangle_2127" data-name="Rectangle 2127" class="cls-3" x="341.14" y="263.41" width="15.25" height="15.25"/><rect id="Rectangle_2128" data-name="Rectangle 2128" class="cls-3" x="356.39" y="248.16" width="15.25" height="15.25"/><rect id="Rectangle_2129" data-name="Rectangle 2129" class="cls-3" x="371.64" y="263.41" width="15.25" height="15.25"/><rect id="Rectangle_2130" data-name="Rectangle 2130" class="cls-3" x="386.89" y="248.16" width="15.25" height="15.25"/></g></g></g></svg>