<svg xmlns="http://www.w3.org/2000/svg" viewBox="0 0 512 512"><defs><style>.cls-1{isolation:isolate;}.cls-2{fill:#aeafb1;mix-blend-mode:multiply;}.cls-16,.cls-3{fill:#676767;}.cls-10,.cls-11,.cls-22,.cls-3,.cls-4,.cls-6,.cls-7,.cls-8,.cls-9{fill-rule:evenodd;}.cls-4,.cls-5{fill:#010101;}.cls-12,.cls-6{fill:#eaeff3;}.cls-17,.cls-7{fill:#c1d0d6;}.cls-20,.cls-8{fill:#fff;}.cls-13,.cls-9{fill:#303030;}.cls-10{fill:#4e4e4e;}.cls-11{fill:#989898;}.cls-14{fill:#1b2955;}.cls-15{fill:#151a1d;}.cls-18,.cls-22{fill:#4a4a4a;}.cls-19{fill:#dcdbdb;}.cls-21{fill:#d77f28;}</style></defs><title>Artboard 3</title><g class="cls-1"><g id="Layer_1" data-name="Layer 1"><path class="cls-2" d="M2,351.54a5.75,5.75,0,0,0,5.76,5.75H504.24a5.75,5.75,0,0,0,5.76-5.75h0a5.76,5.76,0,0,0-5.76-5.76H7.76A5.76,5.76,0,0,0,2,351.54Z"/><path class="cls-3" d="M145.55,201.23s-31.91-.59-34.54.59-10.45,16.26-5.36,16.34l20.45.36c-3,9.89-.84,9.53,10.45,10Z"/><path class="cls-4" d="M451.18,320.4h27.55a6.86,6.86,0,0,0,6.4-5.34h0a4.25,4.25,0,0,0-4.27-5.31H453.33Z"/><path class="cls-3" d="M313.22,254.09c-15.28,0-27.69,20.43-27.69,45.63s12.41,45.66,27.69,45.66l24.09,0,.11-9.78c6.42-8.35,10.53-21.32,10.53-35.85,0-13.91-3.77-26.38-9.75-34.73l.14-10.9Z"/><path class="cls-4" d="M287.49,316.68a53.73,53.73,0,0,0,6.87,16.46h36.07V316.68Z"/><path class="cls-4" d="M338.34,345.38c15.26,0,27.69-20.51,27.69-45.66s-12.43-45.63-27.69-45.63-27.72,20.51-27.72,45.63,12.46,45.66,27.72,45.66Z"/><path class="cls-4" d="M480.49,305.53s-5.17,9.44-14.42,13.75-15.25.87-15.25.87l6.79-19.67Z"/><path class="cls-3" d="M68,254.09c-15.28,0-27.69,20.43-27.69,45.63S52.76,345.38,68,345.38l24.09,0,.11-9.78c6.43-8.35,10.54-21.32,10.54-35.85,0-13.91-3.77-26.38-9.73-34.73l.11-10.9Z"/><path class="cls-4" d="M40.46,295.76c-.08,1.31-.11,2.65-.11,4a66.17,66.17,0,0,0,6,28.33H96.82a66.24,66.24,0,0,0,6-28.05c0-1.43,0-2.85-.11-4.25Z"/><path class="cls-4" d="M93.16,345.38c15.25,0,27.69-20.51,27.69-45.66s-12.43-45.63-27.69-45.63S65.47,274.6,65.47,299.72s12.44,45.66,27.69,45.66Z"/><rect class="cls-5" x="62.12" y="295.76" width="371.12" height="30.76"/><path class="cls-6" d="M10,259.61,8.35,274.32c-2,13,2.24,25.71,7.32,34.42,7.29,0,19.59.42,26.86.42,94.94-.14,188.77-1.56,283.8-1.56,13.5-6.29,22.58-16.26,26.6-30.46l-40.32-11.65L355,243.17l-9.63-30.22-11-47.58c-4.3-5.76-7.13-6.73-18.19-7.41l-36.45-3.25-68.17,2.85c-16.65.89-33-.61-47,9.47l-53.86,56.29c-35.4,5.25-76.86,17.33-98.13,31Z"/><path class="cls-4" d="M415.09,274.21c-11.92,0-21.58,15.92-21.58,35.57s9.67,35.6,21.58,35.6l18.79,0,.08-7.64c5-6.5,8.23-16.59,8.23-27.93,0-10.85-2.94-20.57-7.61-27.09l.1-8.48Z"/><path class="cls-4" d="M285.65,295.76c-.08,1.31-.11,2.65-.11,4A68.75,68.75,0,0,0,289.39,323H344.1A68.86,68.86,0,0,0,348,299.72c0-1.31,0-2.65-.11-4Z"/><path class="cls-4" d="M189.71,274.65c-11.85,0-21.47,15.83-21.47,35.35s9.62,35.38,21.47,35.38l18.65,0,.1-7.57c5-6.48,8.16-16.53,8.16-27.78,0-10.79-2.94-20.43-7.55-26.92l.07-8.44Z"/><path class="cls-7" d="M253.19,221.54l27.3-43.06c4.36-6.87,11.73-9.14,24.39-8.38L325,172.31l11,49.47Z"/><polygon class="cls-8" points="274.82 163.01 226.33 223.32 110.69 223.32 164.55 167.03 274.82 163.01"/><path class="cls-7" d="M112.18,222.62l53.5-54.95,64.12-2.24c-17.74,12.3-76.75,49.68-100.22,57.18Z"/><path class="cls-7" d="M480.88,236.82c-1-.53-4.27-2.18-6.28-2.18l-112.73-1.51,1.28,7.54c-55.19-.22-78.36-11-124.52-11.32-28.6,2-86.56,30.22-88.35,45-1.57,13.08-10.63,26.13-7,34.84,99.56,0,229.9-.84,329.43-.84l6.66-.28c14.22-.56,14.17-24.75,12.71-36.37a28.22,28.22,0,0,0-3.63-10.49,44.55,44.55,0,0,0-7.58-24.37Z"/><path class="cls-9" d="M398.23,308.23c23.14,0,45.85.1,67.71.1a27.14,27.14,0,0,0,3.26-.22v-4.48c0-21.61-7-49-33.59-49.53-26-.54-37.38,27.58-37.38,49.53v4.6Z"/><path class="cls-4" d="M407.71,311h52.45c.26-2.19.4,5.94.4-6.7s-2.63-39.71-25-40.18-28.29,27.52-28.29,40.18.14,4.51.4,6.7Z"/><path class="cls-3" d="M434.67,345.38c11.92,0,21.61-16,21.61-35.6s-9.69-35.57-21.61-35.57-21.58,16-21.58,35.57,9.69,35.6,21.58,35.6Z"/><path class="cls-10" d="M434.67,331.16c5.84,0,10.58-9.59,10.58-21.38s-4.75-21.38-10.58-21.38-10.55,9.62-10.55,21.38,4.75,21.38,10.55,21.38Z"/><path class="cls-11" d="M430.91,289.81c-4,3.07-6.8,10.85-6.8,20,0,8.73,2.57,16.22,6.25,19.53,4-3.07,6.82-10.85,6.82-20,0-8.7-2.57-16.19-6.28-19.53Z"/><path class="cls-9" d="M172.12,308.69c22.89,0,45.35.1,67,.1a25.44,25.44,0,0,0,3.23-.7v-3.95c0-21.37-6.93-48.45-33.24-49-25.66-.53-37,27.27-37,49v4.55Z"/><path class="cls-4" d="M180.35,311H234.1c.27-2.24.38,6.09.38-6.86s-2.67-40.67-25.56-41.16-29,28.18-29,41.16.12,4.62.38,6.86Z"/><path class="cls-3" d="M209.16,345.38c11.83,0,21.47-15.88,21.47-35.38s-9.65-35.35-21.47-35.35S187.71,290.53,187.71,310s9.65,35.38,21.45,35.38Z"/><path class="cls-10" d="M211.1,334c6.54,0,11.88-10.79,11.88-24s-5.34-24-11.88-24-11.85,10.79-11.85,24,5.34,24,11.85,24Z"/><path class="cls-11" d="M205.42,290.13c-4,3.07-6.75,10.81-6.75,19.87,0,8.66,2.55,16.1,6.21,19.42,4-3,6.78-10.79,6.78-19.86,0-8.66-2.55-16.11-6.24-19.42Z"/><path class="cls-9" d="M407.31,308.24c.15,3.77-.95,9.55-7.71,9.55H232.66c1.9-3.1,1.81-6.45,2-10Z"/><path class="cls-12" d="M333.74,248.14l12.61.54s2.48.2,1.27,3.19a36.94,36.94,0,0,1-1.53,3.52s-.41,1.56-2.88,2-17.15.69-17.15.69-2.08.21-5.09-2.22-2.57-6.33-1.42-7.21c0,0,0-.42,2.13-.79S333.74,248.14,333.74,248.14Z"/><path class="cls-13" d="M323,248.47l21.24.68s2.36.09,2.59,1.59-1.11,2.83-4.36,3-15.65.34-15.65.34-4.65.13-6-1.75S320.3,248.54,323,248.47Z"/><rect class="cls-13" x="360.76" y="239.63" width="1.19" height="3.28" rx="0.59" ry="0.59"/><rect class="cls-13" x="356.11" y="238.61" width="125.31" height="2.03"/><rect class="cls-13" x="383.27" y="239.63" width="1.19" height="3.28" rx="0.59" ry="0.59"/><rect class="cls-13" x="414.51" y="239.63" width="1.19" height="3.28" rx="0.59" ry="0.59"/><rect class="cls-13" x="437.79" y="239.88" width="1.19" height="3.28" rx="0.59" ry="0.59"/><rect class="cls-13" x="462.21" y="239.88" width="1.19" height="3.28" rx="0.59" ry="0.59"/><polygon class="cls-13" points="357.76 308.06 356.03 308.08 354.97 238.64 356.7 238.61 357.76 308.06"/><polygon class="cls-14" points="249.99 308.06 248.26 308.08 248.93 238.61 249.99 308.06"/><path class="cls-15" d="M284.52,222.83H270.1a6.18,6.18,0,0,1-6.18-6.18,11,11,0,0,1,11-11h9.56a6.18,6.18,0,0,1,6.18,6.18v4.86a6.18,6.18,0,0,1-6.18,6.18"/><path class="cls-15" d="M265.74,199.59l9.42,18.32-4.71,4.78H256.93a4.24,4.24,0,0,1-3.4-6.78Z"/><path class="cls-16" d="M444.57,226H349.62L348,221.43h96.6c1.91,0,3.46,1,3.46,2.27s-1.55,2.27-3.46,2.27"/><rect class="cls-16" x="409.81" y="225.41" width="3.8" height="8"/><rect class="cls-16" x="374" y="225.41" width="2.87" height="8"/><polygon class="cls-17" points="10.08 295.83 152.25 296.28 151.04 291.06 8.57 291.06 10.08 295.83"/><path class="cls-18" d="M145.32,305.85c.26,0,10.7-9.27,11-9.32,5.22-1,16.55-6.48,21.7-4.44,3.16,1.25,2.37,8.91,2.18,16.61,0,0-7.58,13.75-16,13.61l-15.48.23Z"/><path class="cls-18" d="M15.11,322.55l135.95,0-6.3-20H5.93L11.58,320A3.71,3.71,0,0,0,15.11,322.55Z"/><rect class="cls-19" x="144.76" y="295.82" width="30.27" height="3.78"/><path class="cls-13" d="M148.53,291.29h28.08a3.76,3.76,0,0,1,3.77,3.75v8.56a3.76,3.76,0,0,1-3.44,3.73l-.46,0h-28a3.76,3.76,0,0,1-3.77-3.75V295A3.76,3.76,0,0,1,148.53,291.29Z"/><path class="cls-13" d="M9.12,293.33H153a3.08,3.08,0,0,1,3.19,2.95v8.16a3.08,3.08,0,0,1-3.19,2.95H9.12a3.08,3.08,0,0,1-3.19-2.95v-8.16A3.08,3.08,0,0,1,9.12,293.33Z"/><path class="cls-13" d="M7.93,291.29H150.66a2,2,0,0,1,2,1.89h0a2,2,0,0,1-2,1.89H7.93a2,2,0,0,1-2-1.89h0A2,2,0,0,1,7.93,291.29Z"/><path class="cls-20" d="M12.56,256H166a.8.8,0,0,0,0-1.61H12.56a.8.8,0,0,0,0,1.61Z"/><path class="cls-21" d="M121.48,299.34a2.78,2.78,0,0,0,2.78,2.78h5.79a2.78,2.78,0,0,0,2.78-2.78h0a2.78,2.78,0,0,0-2.78-2.78h-5.79a2.78,2.78,0,0,0-2.78,2.78Z"/><path class="cls-21" d="M20.42,299.34a2.78,2.78,0,0,0,2.78,2.78H29a2.78,2.78,0,0,0,2.78-2.78h0A2.78,2.78,0,0,0,29,296.56H23.2a2.78,2.78,0,0,0-2.78,2.78Z"/><polygon class="cls-17" points="150.24 256.03 234.48 229.79 232.66 243.17 168.24 264.13 163.24 265.85 150.24 261.32 150.24 256.03"/><path class="cls-8" d="M116.72,279.35s.92-18.64,15.61-18.36,17.91-.73,17.91-.73L149.19,280Z"/><path class="cls-6" d="M150.93,280H166.8s.91-19.74-10.43-19.75h-6.13L149.19,280Z"/><path class="cls-8" d="M40.89,280.62s.23-18.66-14.45-19.29S10,259.61,10,259.61l-2.2,21Z"/><polygon class="cls-9" points="99.06 272.4 58.49 272.62 56.2 267.88 101.3 267.63 99.06 272.4"/><polygon class="cls-22" points="97.41 278.76 61.23 278.96 59.18 274.21 99.41 273.99 97.41 278.76"/><path class="cls-9" d="M473.84,233l-122.2.17,1.31,7.51H486.08c-2.74-7.77-3.16-7.71-12.24-7.68Z"/><path class="cls-16" d="M485.75,246.36s2.37,5.5,2.48,15.09c0,2.93-5.13.56-5.13.56S481.77,246.36,485.75,246.36Z"/><path class="cls-21" d="M486.25,247.76s2.14,5.56,2.21,15.15c0,2.93-3.93.56-3.93.56S483.2,247.76,486.25,247.76Z"/></g></g></svg>