<svg xmlns="http://www.w3.org/2000/svg" xmlns:xlink="http://www.w3.org/1999/xlink" viewBox="0 0 512 512"><defs><style>.cls-1,.cls-7{fill:#4a4a4a;}.cls-2{isolation:isolate;}.cls-16,.cls-26,.cls-27,.cls-3,.cls-8,.cls-9{fill:#fff;}.cls-3{fill-rule:evenodd;}.cls-4{fill:#aeafb1;}.cls-17,.cls-21,.cls-23,.cls-4,.cls-7{mix-blend-mode:multiply;}.cls-5{fill:#212121;}.cls-6{fill:#737374;}.cls-7{opacity:0.84;}.cls-8{opacity:0.21;}.cls-16,.cls-25,.cls-27,.cls-8,.cls-9{mix-blend-mode:overlay;}.cls-9{opacity:0.28;}.cls-10{fill:#8f8f8f;}.cls-11{fill:#224090;}.cls-12{fill:#404040;}.cls-13{fill:#5c89c7;}.cls-14{fill:#2a54a5;}.cls-15{fill:#326d80;}.cls-16,.cls-25{opacity:0.25;}.cls-17{fill:#a41e21;opacity:0.41;}.cls-18{fill:#d77f28;}.cls-19,.cls-21{fill:#b7b7b8;}.cls-20{fill:#dcdbdb;}.cls-22{clip-path:url(#clip-path);}.cls-23{opacity:0.36;}.cls-24{fill:#d2c7b6;}.cls-27{opacity:0.64;}</style><clipPath id="clip-path"><path class="cls-1" d="M48.74,267.64a8.45,8.45,0,0,0,8.13,7.19h55.43a6.18,6.18,0,0,0,6.26-7.19l-.94-7.2a8.45,8.45,0,0,0-8.13-7.19H54.06a6.18,6.18,0,0,0-6.26,7.19Z"/></clipPath></defs><title>Artboard 3 copy</title><g class="cls-2"><g id="Layer_1" data-name="Layer 1"><path class="cls-3" d="M249.85,290.07c2-9.9,6.26-22.53,13-23.57,11-1.71,28.51.54,28.51.54L293,288.48Z"/><path class="cls-4" d="M20.84,365.66a5.42,5.42,0,0,0,5.43,5.42h468a5.42,5.42,0,0,0,5.43-5.42h0a5.42,5.42,0,0,0-5.43-5.43h-468a5.43,5.43,0,0,0-5.43,5.43Z"/><ellipse class="cls-1" cx="56.77" cy="316.48" rx="30.39" ry="44.17"/><rect class="cls-1" x="56.77" y="272.31" width="15.7" height="88.35"/><ellipse class="cls-5" cx="73.31" cy="316.48" rx="30.4" ry="44.17"/><ellipse class="cls-6" cx="73.31" cy="316.48" rx="15.77" ry="29.01"/><ellipse class="cls-7" cx="73.31" cy="316.48" rx="15.77" ry="29.01"/><path class="cls-8" d="M80.39,316.48c0-13.25-4.82-24.41-11.42-27.88a9.21,9.21,0,0,1,4.34-1.13c8.71,0,15.77,13,15.77,29s-7.06,29-15.77,29A9.25,9.25,0,0,1,69,344.37C75.56,340.89,80.39,329.73,80.39,316.48Z"/><ellipse class="cls-9" cx="67.4" cy="316.48" rx="7.68" ry="16.75"/><ellipse class="cls-1" cx="280.79" cy="316.48" rx="30.39" ry="44.17"/><rect class="cls-1" x="280.79" y="272.31" width="15.7" height="88.35"/><ellipse class="cls-5" cx="297.34" cy="316.48" rx="30.4" ry="44.17"/><ellipse class="cls-6" cx="297.34" cy="316.48" rx="15.77" ry="29.01"/><ellipse class="cls-7" cx="297.34" cy="316.48" rx="15.77" ry="29.01"/><path class="cls-8" d="M304.41,316.48c0-13.25-4.82-24.41-11.42-27.88a9.22,9.22,0,0,1,4.34-1.13c8.71,0,15.77,13,15.77,29s-7.06,29-15.77,29a9.26,9.26,0,0,1-4.34-1.13C299.59,340.89,304.41,329.73,304.41,316.48Z"/><ellipse class="cls-9" cx="291.42" cy="316.48" rx="7.68" ry="16.75"/><rect class="cls-10" x="101.93" y="200.91" width="28.76" height="21.01" rx="4.15" ry="4.15"/><polygon class="cls-10" points="136.2 217.26 121.62 216.91 121.62 221.88 137.75 224.55 136.2 217.26"/><polygon class="cls-11" points="130.92 238.52 260.14 221.03 285.07 221.03 504.12 221.03 504.12 235.96 502.34 239.23 502.34 284.64 504.12 290.14 504.12 305.23 484.8 325.46 143.83 325.46 110.44 281.11 130.92 238.52"/><path class="cls-12" d="M206.6,321.53q3.12-4.71,6.55-9.2c.38-.51,4-5.22,1.73-2.28,1.72-2.23,3.46-4.45,5.17-6.7q2.24-2.93,4.39-5.93a16.12,16.12,0,0,0,1.89.11c15.27-.07,30.5-1.52,45.77-1.75,15.07-.23,30.15,0,45.22,0h91.24a16.59,16.59,0,0,0,14.23-8.3l81.33,2.67-15.75,35.32H204.17C204.95,324.13,205.75,322.82,206.6,321.53Z"/><path class="cls-12" d="M122.87,297.14c14.88-.32,30-1.37,44.84.41,8.94,1.07,16.47-8.3,16.47-16.47,0-1.45,7.86-2.89,7.48-4.27,10.12-1.42,12.17-2.81,22.27-4.34a12.62,12.62,0,0,0,7.61-4.31l5.7-.15a39.34,39.34,0,0,0,4.19,9.69,122.11,122.11,0,0,0,7.73,10.17l.06.08q.81,1.13,1.52,2.34c.63,1.06,1.25,2.12,1.79,3.22-.27-.41,1.2,3.53,1.34,4,.4,1.44.79,2.88,1.13,4.33.77,3.28,1.47,6.56,2.39,9.8,1.29,4.56,2.61,9.19,4.08,13.79H143.83l-21.31-28.3Z"/><path class="cls-5" d="M189,332.16H436.76c6.52,0,6.4-6.81,6.4-6.81h0l6.4-.11H189Z"/><path class="cls-13" d="M145.68,158.24H303.82s31.23-12.17,11.79-12.17H189.85c-21.72,0-43.13,9.39-43.13,9.39Z"/><polygon class="cls-13" points="5.56 242.65 159.19 242.65 163.64 234.38 10.01 234.38 5.56 242.65"/><polygon class="cls-11" points="5.56 242.65 159.19 242.65 160.81 285.59 7.67 287.81 5.56 242.65"/><polygon class="cls-14" points="2 291.34 155.63 291.34 160.81 285.59 7.49 285.59 2 291.34"/><polygon class="cls-13" points="10.01 234.38 163.64 234.38 260.14 221.03 106.49 221.03 10.01 234.38"/><polygon class="cls-15" points="106.49 221.03 260.14 221.03 275.28 158.24 145.66 158.24 106.49 221.03"/><path class="cls-16" d="M276.3,166.22a64.36,64.36,0,0,0-5.52,18.1H254.46a5.15,5.15,0,0,0-2.08.41l-2.33-18.5Z"/><polygon class="cls-13" points="253.98 221.03 260.14 221.03 275.28 158.24 269.11 158.24 253.98 221.03"/><polygon class="cls-13" points="106.49 221.03 112.65 221.03 151.82 158.24 145.66 158.24 106.49 221.03"/><polygon class="cls-15" points="355.63 221.03 260.14 221.03 275.28 158.24 338.4 158.24 355.63 221.03"/><path class="cls-16" d="M273.65,184.31h-2.81a40.1,40.1,0,0,0,1.94-4.83l.13-.39c1.89-3.71,3.87-7.46,4.88-11.52.11-.45.19-.9.27-1.35H335.7l4.45,35.42H328.54a10.79,10.79,0,0,0-5-1h-3.66c1.84-.31,3-1.28,3.44-3.9l1.16-7.2c.59-3.8-2.32-5.19-5.19-5.19H300.15c-2.87,0-4.51,1.76-5.19,5.19l-1.16,7.2c0,2.34,1.54,3.54,3.67,3.9h-7.6a5.79,5.79,0,0,0-3.38,1h-3.65a10.74,10.74,0,0,0-4.94-1h-3.66c1.84-.31,3-1.28,3.44-3.9l1.16-7.2C279.43,185.71,276.52,184.31,273.65,184.31Z"/><polygon class="cls-11" points="267.33 221.03 260.14 221.03 275.28 158.24 282.47 158.24 267.33 221.03"/><polygon class="cls-5" points="206.14 256.9 245.02 256.9 282.9 325.46 180.03 325.2 206.14 256.9"/><ellipse class="cls-5" cx="209.9" cy="316.48" rx="30.39" ry="44.17"/><rect class="cls-5" x="209.9" y="272.31" width="15.7" height="88.35"/><ellipse class="cls-1" cx="226.45" cy="316.48" rx="30.39" ry="44.17"/><ellipse class="cls-6" cx="226.45" cy="316.48" rx="15.77" ry="29.01"/><path class="cls-8" d="M233.52,316.48c0-13.25-4.82-24.41-11.42-27.88a9.23,9.23,0,0,1,4.34-1.13c8.71,0,15.77,13,15.77,29s-7.06,29-15.77,29a9.27,9.27,0,0,1-4.34-1.13C228.7,340.89,233.52,329.73,233.52,316.48Z"/><ellipse class="cls-9" cx="220.54" cy="316.48" rx="7.68" ry="16.75"/><path class="cls-12" d="M260.73,296.69c6.93,1,14.26,2.28,21.31,1.17l5.85,27.6-26.32-.11s0-8.17,0-15.73A97.64,97.64,0,0,0,260.73,296.69Z"/><path class="cls-12" d="M167.5,296.8c.29,0,.59-.08.88-.14,5.78-1.15,11.85-1.2,17-4.51a25.46,25.46,0,0,0,6.51-5.88c.38,0,.76.08,1.14.1-2.44,6.87-2.5,13.77-2.71,22.3,0,0-3.91,16.67-13.26,16.52l-13.43.25Z"/><polygon class="cls-5" points="404.13 256.9 485.74 256.9 488.37 325.39 398.62 325.46 404.13 256.9"/><ellipse class="cls-5" cx="434.35" cy="316.48" rx="30.4" ry="44.17"/><rect class="cls-5" x="434.35" y="272.31" width="15.71" height="88.35"/><ellipse class="cls-1" cx="450.89" cy="316.48" rx="30.39" ry="44.17"/><ellipse class="cls-6" cx="450.89" cy="316.48" rx="15.77" ry="29.01"/><path class="cls-8" d="M458,316.48c0-13.25-4.82-24.41-11.42-27.88a9.21,9.21,0,0,1,4.34-1.13c8.71,0,15.77,13,15.77,29s-7.06,29-15.77,29a9.25,9.25,0,0,1-4.34-1.13C453.15,340.89,458,329.73,458,316.48Z"/><ellipse class="cls-9" cx="444.98" cy="316.48" rx="7.68" ry="16.75"/><path class="cls-11" d="M403.54,251.12l78.86-5.6,12.7,14.84,3.54,22.83,5.47,7.53v23.43c0,8.36-11.59,11.31-11.59,11.31l-6.39-.11s0-8.17,0-15.73c0-28.19-16.27-51-36.33-51s-35.6,21.54-36.33,51c-.19,7.55-2.56,15.75-11.91,15.6H388.25l7-41.52Z"/><path class="cls-5" d="M484.8,295.77h19.32v18.38c0,8.36-11.59,11.31-11.59,11.31l-6.39-.11s0-8.17,0-15.73A70.73,70.73,0,0,0,484.8,295.77Z"/><path class="cls-14" d="M404,292.19c1.81-8.27,7-20.69,14-28.74s17.21-14.64,31.2-14.64c21.34,0,33,15.34,39,25.94a65,65,0,0,1,6,16.11l-10.55.31a97.51,97.51,0,0,0-3.82-9.26c-4.24-8.35-13.87-22.42-30.59-22.42-14.16,0-23.2,10-28.53,19.92-1.61,3-5,13.27-6.8,22.82Z"/><path class="cls-12" d="M414,302.24c-.28,2.4-.45,4.86-.51,7.38-.19,7.55-2.56,15.75-11.91,15.6H388.08l4.06-23Z"/><rect class="cls-14" x="261.52" y="291.15" width="152.28" height="11.09"/><path class="cls-14" d="M190,298.46c.07-.38,7.18-39,34.94-39,14.39,0,23.69,10.32,28.5,18.65a62,62,0,0,1,8.13,24.09l8.78-10.89c-1.14-5.75-13.15-42.53-45.41-42.53-37.25,0-46.18,45.85-46.55,47.81Z"/><polygon class="cls-5" points="50.02 332.16 188.67 332.16 189.7 330.57 187.34 322.56 8.23 322.56 8.23 326.6 50.02 332.16"/><path class="cls-14" d="M232.4,233.44H503.2v-8.88H234.1l-70.46,9.83-4.45,8.27H169Z"/><path class="cls-11" d="M332.42,158.24H275.28l.66-2.78s9.33-9.39,31.05-9.39h28.85Z"/><path class="cls-17" d="M262.76,256a2.65,2.65,0,0,0,2.65,2.65H402.64a2.64,2.64,0,0,0,2.64-2.65h0a2.64,2.64,0,0,0-2.64-2.64H265.4a2.65,2.65,0,0,0-2.65,2.64Z"/><path class="cls-18" d="M262.76,256a2.65,2.65,0,0,0,2.65,2.65H271a2.64,2.64,0,0,0,2.64-2.65h0a2.64,2.64,0,0,0-2.64-2.64H265.4a2.65,2.65,0,0,0-2.65,2.64Z"/><rect class="cls-11" x="331.21" y="153.11" width="9.08" height="68.33"/><path class="cls-11" d="M336.27,145.92c12.4,0,13.93,7.68,13.93,7.68l7.12,68.33H335.7l-4.45-63.85S323.86,145.92,336.27,145.92Z"/><polygon class="cls-1" points="8.23 322.56 161.7 322.56 155.63 303.33 2 303.33 8.23 322.56"/><polygon class="cls-19" points="155.63 293.12 194.81 293.12 194.81 300 190.33 308.68 155.63 308.68 155.63 293.12"/><rect class="cls-20" x="155.63" y="290.87" width="39.18" height="4.18"/><polygon class="cls-21" points="155.63 290.87 194.81 290.87 194.81 300 190.33 308.68 155.63 308.68 155.63 290.87"/><rect class="cls-19" x="2" y="293.12" width="153.63" height="15.56"/><rect class="cls-20" x="2" y="290.87" width="153.63" height="4.18"/><path class="cls-19" d="M7.33,279.66H169.76c7.67,0,7.5-8.36,7.5-8.36l-1.65-23.39H5.81Z"/><path class="cls-21" d="M175.62,247.91l1.65,23.39s.17,8.36-7.5,8.36h-9.17l-1.2-31.75Z"/><path class="cls-18" d="M167.07,254a4.62,4.62,0,0,0-4.39,4.85l.5,9.06A4.62,4.62,0,0,0,168,272.3h0a4.63,4.63,0,0,0,4.39-4.85l-.5-9.06a4.62,4.62,0,0,0-4.85-4.39Z"/><path class="cls-1" d="M48.74,267.64a8.45,8.45,0,0,0,8.13,7.19h55.43a6.18,6.18,0,0,0,6.26-7.19l-.94-7.2a8.45,8.45,0,0,0-8.13-7.19H54.06a6.18,6.18,0,0,0-6.26,7.19Z"/><g class="cls-22"><g class="cls-23"><path class="cls-5" d="M52.57,258.38a1.34,1.34,0,0,0,1.34,1.34h71.8a1.34,1.34,0,0,0,1.34-1.34h0A1.34,1.34,0,0,0,125.7,257H53.91a1.34,1.34,0,0,0-1.34,1.34Z"/><path class="cls-5" d="M53.57,264a1.34,1.34,0,0,0,1.34,1.34h71.8A1.34,1.34,0,0,0,128,264h0a1.34,1.34,0,0,0-1.34-1.34H54.91A1.34,1.34,0,0,0,53.57,264Z"/><path class="cls-5" d="M55.57,270a1.34,1.34,0,0,0,1.34,1.34h71.8A1.34,1.34,0,0,0,130,270h0a1.34,1.34,0,0,0-1.34-1.34H56.91A1.34,1.34,0,0,0,55.57,270Z"/></g></g><path class="cls-19" d="M80.85,248.76a2.66,2.66,0,0,0-2.33,3l.65,5.19a2.66,2.66,0,0,0,3,2.33h0a2.66,2.66,0,0,0,2.33-3l-.65-5.19a2.66,2.66,0,0,0-3-2.33Z"/><path class="cls-14" d="M5.81,248.8H175.62a.89.89,0,0,0,0-1.78H5.81a.89.89,0,0,0,0,1.78Z"/><rect class="cls-10" x="277.23" y="200.91" width="28.76" height="21.01" rx="4.15" ry="4.15"/><rect class="cls-19" x="273.67" y="200.91" width="28.76" height="21.01" rx="4.15" ry="4.15"/><polygon class="cls-19" points="268.17 217.26 282.75 216.91 282.75 221.88 266.62 224.55 268.17 217.26"/><path class="cls-18" d="M129.87,299.77a3.08,3.08,0,0,0,3.08,3.08h6.4a3.08,3.08,0,0,0,3.08-3.08h0a3.08,3.08,0,0,0-3.08-3.08H133a3.08,3.08,0,0,0-3.08,3.08Z"/><path class="cls-18" d="M13.52,299.77a3.08,3.08,0,0,0,3.08,3.08H23a3.08,3.08,0,0,0,3.08-3.08h0A3.08,3.08,0,0,0,23,296.69H16.6a3.08,3.08,0,0,0-3.08,3.08Z"/><polygon class="cls-19" points="483.55 293.12 510 293.12 510 308.68 487.68 308.68 483.55 299.44 483.55 293.12"/><rect class="cls-20" x="483.55" y="290.87" width="26.45" height="4.18"/><polygon class="cls-21" points="483.55 290.87 510 290.87 510 308.68 487.73 308.68 483.55 299.55 483.55 290.87"/><path class="cls-17" d="M332.89,238.55v2a2.89,2.89,0,0,1-2.89,2.88H319.32a2.88,2.88,0,0,1-2.89-2.88v-2Z"/><path class="cls-10" d="M316.43,238.68v0a2.89,2.89,0,0,1,2.89-2.89H330a2.89,2.89,0,0,1,2.89,2.89v0Z"/><path class="cls-18" d="M502.34,241v30a8.54,8.54,0,0,1-8.24-8.53V249.53A8.54,8.54,0,0,1,502.34,241Z"/><path class="cls-24" d="M502.34,260.44V271a8.54,8.54,0,0,1-8.24-8.53v-2Z"/><g class="cls-25"><polygon class="cls-26" points="154.43 166.22 194.09 166.22 194.09 220.99 157.03 220.99 121.62 220.99 154.43 166.22"/><polygon class="cls-26" points="222.55 220.99 203.18 220.99 203.18 166.22 218.17 166.22 222.55 220.99"/></g><path class="cls-15" d="M172.31,221c-.85-5.63-7-10-14.52-10s-13.67,4.39-14.52,10H138.5c.81-8.25,9.15-14.75,19.29-14.75s18.49,6.51,19.3,14.75Z"/><path class="cls-15" d="M169.7,221.27h46.24l1.42-16.18s.49-6.71-7.71-6.71H179.71c-4.55,0-5.65,4.91-5.65,4.91Z"/><path class="cls-15" d="M183.2,194.9c0,2.55,2.06,3.58,4.61,3.58h17c2.55,0,4.12-.57,4.61-3.58l1-6.39c.52-3.37-2.06-4.61-4.61-4.61h-17c-2.54,0-4,1.56-4.61,4.61Z"/><polygon class="cls-27" points="135.74 220.99 171.97 220.99 205.95 163.46 169.72 163.46 135.74 220.99"/><polygon class="cls-27" points="117.63 220.99 130.51 220.99 164.49 163.46 151.6 163.46 117.63 220.99"/><path class="cls-26" d="M41.63,257.45a5.37,5.37,0,0,1-5.74,6.06A7.59,7.59,0,0,1,29,256.79a5.37,5.37,0,0,1,5.74-6.09,7.59,7.59,0,0,1,6.9,6.76"/><path class="cls-26" d="M42.89,271.77a5.33,5.33,0,0,1-5.71,6,7.53,7.53,0,0,1-6.86-6.66,5.33,5.33,0,0,1,5.71-6,7.53,7.53,0,0,1,6.86,6.69"/><path class="cls-26" d="M138.2,256.64a5.49,5.49,0,0,1-5.86,6,7.38,7.38,0,0,1-6.74-6.71,5.49,5.49,0,0,1,5.86-6.08,7.37,7.37,0,0,1,6.74,6.74"/><path class="cls-26" d="M139.15,270.92a5.45,5.45,0,0,1-5.83,6,7.32,7.32,0,0,1-6.71-6.65,5.45,5.45,0,0,1,5.83-6,7.32,7.32,0,0,1,6.71,6.68"/></g></g></svg>