<svg xmlns="http://www.w3.org/2000/svg" xmlns:xlink="http://www.w3.org/1999/xlink" width="216" height="68" viewBox="0 0 216 68">
  <defs>
    <linearGradient id="linear-gradient" x1="0.5" x2="0.5" y2="1" gradientUnits="objectBoundingBox">
      <stop offset="0" stop-color="#c70202"/>
      <stop offset="1" stop-color="#a20202"/>
    </linearGradient>
  </defs>
  <g id="Group_10365" data-name="Group 10365" transform="translate(5125 3032.825)">
    <rect id="Rectangle_2243" data-name="Rectangle 2243" width="214" height="66" rx="10" transform="translate(-5124 -3031.825)" fill="#fff" stroke="#969394" stroke-miterlimit="10" stroke-width="2"/>
    <path id="Path_9347" data-name="Path 9347" d="M-81.511-4.336a11.18,11.18,0,0,1,.453-3.211,8.782,8.782,0,0,1,1.333-2.717,5.33,5.33,0,0,1,1.855-1.681l.355,1.036a5.452,5.452,0,0,0-1.67,2.393,10.765,10.765,0,0,0-.7,3.682l-.007.627a11.629,11.629,0,0,0,.627,3.961A5.843,5.843,0,0,0-77.516,2.4l-.355.989A5.339,5.339,0,0,1-79.728,1.7a8.781,8.781,0,0,1-1.333-2.717A11.615,11.615,0,0,1-81.511-4.336Zm22.889-.273v2.23a2.336,2.336,0,0,1-.614,1.664A2.927,2.927,0,0,1-61.459.1h-7.868a2.672,2.672,0,0,1-.955-.17,2.385,2.385,0,0,1-.8-.5,3.076,3.076,0,0,1-.283-.314,2.115,2.115,0,0,1-.263-.436,3.039,3.039,0,0,1-.191-.569,3.1,3.1,0,0,1-.075-.713,4.41,4.41,0,0,1,.068-.74q.068-.4.153-.753t.16-.614q.075-.259.1-.32l.811.259.8.252q-.061.184-.13.44t-.13.525q-.061.269-.1.522a2.78,2.78,0,0,0-.041.436,1.282,1.282,0,0,0,.092.528.817.817,0,0,0,.225.307.7.7,0,0,0,.29.14,1.332,1.332,0,0,0,.28.034h7.807a2.493,2.493,0,0,0,.641-.072.833.833,0,0,0,.4-.208.748.748,0,0,0,.157-.511V-4.609ZM-66.5,2.38l1.227-1.241,1.255,1.255-1.241,1.241Zm9.559-.314q.545,0,.972-.037a6.157,6.157,0,0,0,.757-.109,2.9,2.9,0,0,0,.58-.184,1.817,1.817,0,0,0,.433-.269,1.55,1.55,0,0,0,.433-.539A2.211,2.211,0,0,0-53.591.1h-1.05a4.57,4.57,0,0,1-.7-.055,3.029,3.029,0,0,1-.682-.188,2.889,2.889,0,0,1-.617-.344,2.162,2.162,0,0,1-.5-.522,2.568,2.568,0,0,1-.341-.733,3.39,3.39,0,0,1-.126-.968,3.838,3.838,0,0,1,.082-.835,3.353,3.353,0,0,1,.208-.644,2.546,2.546,0,0,1,.283-.487q.157-.208.3-.365a2.933,2.933,0,0,1,.927-.631,2.814,2.814,0,0,1,1.118-.222,2.9,2.9,0,0,1,1.272.256,2.334,2.334,0,0,1,.866.706,2.979,2.979,0,0,1,.494,1.067,5.43,5.43,0,0,1,.157,1.34V-.1a4.212,4.212,0,0,1-.307,1.708,3.121,3.121,0,0,1-.934,1.19,3.866,3.866,0,0,1-.682.426,4.551,4.551,0,0,1-.825.3,6.514,6.514,0,0,1-1.019.181,12.515,12.515,0,0,1-1.272.058Zm2.25-6.259a1.205,1.205,0,0,0-.92.361,1.594,1.594,0,0,0-.341,1.125,1.025,1.025,0,0,0,.119.511,1.045,1.045,0,0,0,.307.344,1.288,1.288,0,0,0,.419.194,1.805,1.805,0,0,0,.464.061h1.05v-.927a3.108,3.108,0,0,0-.061-.665,1.806,1.806,0,0,0-.16-.46,1.02,1.02,0,0,0-.225-.293,1.047,1.047,0,0,0-.245-.164.878.878,0,0,0-.228-.072A1.2,1.2,0,0,0-54.689-4.193ZM-37.711.1H-37.9A5.17,5.17,0,0,1-38.925,0a3.794,3.794,0,0,1-.907-.3,2.82,2.82,0,0,1-.74-.515,2.549,2.549,0,0,1-.528-.743,1.77,1.77,0,0,1-.419.447,2.652,2.652,0,0,1-.556.324,3.12,3.12,0,0,1-.62.194,3.1,3.1,0,0,1-.614.065,2.807,2.807,0,0,1-1.033-.191,2.6,2.6,0,0,1-.856-.542,2.54,2.54,0,0,1-.583-.856A2.881,2.881,0,0,1-46-3.252a2.861,2.861,0,0,1,.28-1.3,3.294,3.294,0,0,1,.743-.978,4.613,4.613,0,0,1,1.067-.716,10.251,10.251,0,0,1,1.251-.515l-.164-.655,1.664-.389,1.241,4.827a1.606,1.606,0,0,0,.355.712,1.865,1.865,0,0,0,.535.416,2.072,2.072,0,0,0,.593.2A3.237,3.237,0,0,0-37.9-1.6h.191Zm-4.2-3.389a1.371,1.371,0,0,0,.027-.385,2.879,2.879,0,0,0-.061-.413q-.048-.218-.126-.47t-.167-.566a5.367,5.367,0,0,0-1.653.788,1.333,1.333,0,0,0-.562,1.087.894.894,0,0,0,.112.45,1.015,1.015,0,0,0,.293.327,1.209,1.209,0,0,0,.4.188,1.1,1.1,0,0,0,.447.024,2.047,2.047,0,0,0,.852-.3A1.068,1.068,0,0,0-41.911-3.286Zm13.152.675q-.034.02-.218.147t-.5.324a.653.653,0,0,0,.211.317,1,1,0,0,0,.293.164,1.046,1.046,0,0,0,.283.058q.133.007.188.007h1.248V.1H-28.5a3.047,3.047,0,0,1-1.456-.358,2.427,2.427,0,0,1-1.006-1.053q-.525.259-1.132.515a12.442,12.442,0,0,1-1.268.453,12.033,12.033,0,0,1-1.357.32A7.989,7.989,0,0,1-36.109.1h-2.032V-1.6h2.032a8.055,8.055,0,0,0,1.425-.136,14.533,14.533,0,0,0,1.493-.351q.736-.215,1.4-.481a12.22,12.22,0,0,0,1.156-.525l-.675-.208q-.368-.113-.75-.225t-.757-.218q-.375-.106-.7-.187t-.586-.13a2.4,2.4,0,0,0-.409-.048.922.922,0,0,0-.276.037A.581.581,0,0,0-35-3.944a.948.948,0,0,0-.177.222,3.541,3.541,0,0,0-.17.327l-1.561-.47a4.72,4.72,0,0,1,.317-.767,2.5,2.5,0,0,1,.457-.624,2.023,2.023,0,0,1,.624-.419A2.026,2.026,0,0,1-34.7-5.83a2.442,2.442,0,0,1,.5.075q.327.075.743.2t.89.28q.474.157.951.327t.927.334l.811.3.607.222q.245.089.314.109ZM-36.123-8.6-34.9-9.839l1.255,1.255-1.241,1.241Zm8.414,7h.88a2.537,2.537,0,0,0,.651-.068.9.9,0,0,0,.389-.2.658.658,0,0,0,.188-.324,1.806,1.806,0,0,0,.048-.436V-4.609h1.7v1.95a1.066,1.066,0,0,0,.266.8,1.219,1.219,0,0,0,.845.259h-.007a1.6,1.6,0,0,0,.249-.041.761.761,0,0,0,.286-.14.839.839,0,0,0,.239-.307,1.242,1.242,0,0,0,.1-.542V-4.609h1.691v1.95a1.076,1.076,0,0,0,.266.811,1.232,1.232,0,0,0,.866.252,1.059,1.059,0,0,0,.324-.051.77.77,0,0,0,.29-.17.892.892,0,0,0,.211-.31,1.367,1.367,0,0,0,.1-.47V-4.609h1.7v2.018a.93.93,0,0,0,.32.76,1.541,1.541,0,0,0,.941.235h.668V.1h-.668A4.322,4.322,0,0,1-16.4-.051a2.219,2.219,0,0,1-.893-.5,2.36,2.36,0,0,1-.815.487A2.805,2.805,0,0,1-19.057.1a3.622,3.622,0,0,1-1.122-.157,2.289,2.289,0,0,1-.856-.5,2.617,2.617,0,0,1-.794.484,2.553,2.553,0,0,1-.89.177,3.307,3.307,0,0,1-1.128-.164,2.635,2.635,0,0,1-.842-.47A3.345,3.345,0,0,1-26.83.1h-.88Zm16.766-4.03q.014.048.058.225t.1.433q.055.256.113.569t.109.631q.051.317.082.617a5.243,5.243,0,0,1,.031.525,2.944,2.944,0,0,1-.232,1.217,2.483,2.483,0,0,1-.607.849,2.5,2.5,0,0,1-.842.5A2.819,2.819,0,0,1-13.07.1h-1.814V-1.6h1.861a1.653,1.653,0,0,0,.235-.024.766.766,0,0,0,.307-.126.873.873,0,0,0,.269-.31,1.175,1.175,0,0,0,.116-.569,3.386,3.386,0,0,0-.024-.365q-.024-.215-.065-.46t-.092-.5q-.051-.256-.1-.484t-.1-.416q-.048-.187-.075-.29Zm-2.891-2.741,1.227-1.241,1.255,1.255-1.241,1.241ZM-.948-4.22a11.014,11.014,0,0,1-.447,3.14A8.947,8.947,0,0,1-2.748,1.674a5.233,5.233,0,0,1-1.9,1.715L-5,2.4A5.6,5.6,0,0,0-3.259-.194,11.535,11.535,0,0,0-2.618-4.18v-.17a11.733,11.733,0,0,0-.556-3.713,6.5,6.5,0,0,0-1.6-2.683L-5-10.95l.355-1A5.3,5.3,0,0,1-2.83-10.333,8.683,8.683,0,0,1-1.483-7.745,10.891,10.891,0,0,1-.955-4.793Z" transform="translate(-4964 -2985)" fill="#1e2837"/>
    <path id="Path_9346" data-name="Path 9346" d="M-97.159,2.066q.545,0,.972-.037a6.157,6.157,0,0,0,.757-.109,2.9,2.9,0,0,0,.58-.184,1.817,1.817,0,0,0,.433-.269,1.55,1.55,0,0,0,.433-.539A2.211,2.211,0,0,0-93.811.1h-1.05a4.57,4.57,0,0,1-.7-.055,3.028,3.028,0,0,1-.682-.188,2.889,2.889,0,0,1-.617-.344,2.162,2.162,0,0,1-.5-.522,2.568,2.568,0,0,1-.341-.733,3.39,3.39,0,0,1-.126-.968,3.838,3.838,0,0,1,.082-.835,3.353,3.353,0,0,1,.208-.644,2.546,2.546,0,0,1,.283-.487q.157-.208.3-.365a2.933,2.933,0,0,1,.927-.631,2.814,2.814,0,0,1,1.118-.222,2.9,2.9,0,0,1,1.272.256,2.334,2.334,0,0,1,.866.706,2.979,2.979,0,0,1,.494,1.067,5.43,5.43,0,0,1,.157,1.34V-1.6h1.159V.1h-1.166a3.94,3.94,0,0,1-.331,1.575,3.138,3.138,0,0,1-.9,1.118,3.866,3.866,0,0,1-.682.426,4.551,4.551,0,0,1-.825.3,6.514,6.514,0,0,1-1.019.181,12.515,12.515,0,0,1-1.272.058Zm2.25-6.259a1.205,1.205,0,0,0-.92.361,1.594,1.594,0,0,0-.341,1.125,1.025,1.025,0,0,0,.119.511,1.044,1.044,0,0,0,.307.344,1.288,1.288,0,0,0,.419.194,1.805,1.805,0,0,0,.464.061h1.05v-.927a3.108,3.108,0,0,0-.061-.665,1.806,1.806,0,0,0-.16-.46,1.02,1.02,0,0,0-.225-.293A1.048,1.048,0,0,0-94.5-4.1a.878.878,0,0,0-.228-.072A1.2,1.2,0,0,0-94.909-4.193ZM-91.445.1V-1.6h2.782A5.986,5.986,0,0,0-87.7-1.66a2.865,2.865,0,0,0,.631-.167,1.107,1.107,0,0,0,.365-.228.839.839,0,0,0,.177-.256,6.075,6.075,0,0,1-1.63.024A3.13,3.13,0,0,1-89.386-2.7a2.087,2.087,0,0,1-.774-.828,2.66,2.66,0,0,1-.269-1.241,2.785,2.785,0,0,1,.211-1.081,2.714,2.714,0,0,1,.59-.886,2.741,2.741,0,0,1,.893-.593,2.6,2.6,0,0,1,1.128-.187,2.833,2.833,0,0,1,.965.191,2.465,2.465,0,0,1,.73.45,2.538,2.538,0,0,1,.518.651,3.863,3.863,0,0,1,.334.8,5.645,5.645,0,0,1,.184.9,8.621,8.621,0,0,1,.065.938l-.027.5A3.813,3.813,0,0,1-85.22-1.51a2.676,2.676,0,0,1-.849.975,3.256,3.256,0,0,1-1.19.5,6.846,6.846,0,0,1-1.4.14Zm3.825-5.918a1.456,1.456,0,0,0-.477.037,1.068,1.068,0,0,0-.406.194,1.035,1.035,0,0,0-.28.338.99.99,0,0,0-.106.467.888.888,0,0,0,.624.856,3.392,3.392,0,0,0,1.8.072q-.014-.293-.048-.62a2.247,2.247,0,0,0-.15-.614,1.3,1.3,0,0,0-.341-.487A1.062,1.062,0,0,0-87.62-5.816Zm1.227-2.8-1.145-1.159,1.132-1.173,1.173,1.173Zm-2.857.007L-90.4-9.77l1.125-1.173L-88.1-9.77ZM-78.368,2.066q.545,0,.972-.037a6.157,6.157,0,0,0,.757-.109,2.9,2.9,0,0,0,.58-.184,1.817,1.817,0,0,0,.433-.269,1.55,1.55,0,0,0,.433-.539A2.211,2.211,0,0,0-75.02.1h-1.05a4.57,4.57,0,0,1-.7-.055,3.028,3.028,0,0,1-.682-.188,2.889,2.889,0,0,1-.617-.344,2.162,2.162,0,0,1-.5-.522,2.568,2.568,0,0,1-.341-.733,3.39,3.39,0,0,1-.126-.968,3.838,3.838,0,0,1,.082-.835,3.353,3.353,0,0,1,.208-.644,2.546,2.546,0,0,1,.283-.487q.157-.208.3-.365a2.933,2.933,0,0,1,.927-.631,2.814,2.814,0,0,1,1.118-.222,2.9,2.9,0,0,1,1.272.256,2.334,2.334,0,0,1,.866.706,2.979,2.979,0,0,1,.494,1.067,5.43,5.43,0,0,1,.157,1.34V-.1a4.212,4.212,0,0,1-.307,1.708A3.121,3.121,0,0,1-74.57,2.8a3.866,3.866,0,0,1-.682.426,4.551,4.551,0,0,1-.825.3,6.514,6.514,0,0,1-1.019.181,12.515,12.515,0,0,1-1.272.058Zm2.25-6.259a1.205,1.205,0,0,0-.92.361,1.594,1.594,0,0,0-.341,1.125,1.025,1.025,0,0,0,.119.511,1.044,1.044,0,0,0,.307.344,1.288,1.288,0,0,0,.419.194,1.805,1.805,0,0,0,.464.061h1.05v-.927a3.108,3.108,0,0,0-.061-.665,1.806,1.806,0,0,0-.16-.46,1.02,1.02,0,0,0-.225-.293,1.048,1.048,0,0,0-.245-.164.878.878,0,0,0-.228-.072A1.2,1.2,0,0,0-76.118-4.193ZM-66.791.1h-.259a3.9,3.9,0,0,1-.528-.034,1.175,1.175,0,0,1-.488-.191,5.017,5.017,0,0,1-.4,1.6A3.813,3.813,0,0,1-69.324,2.7a3.75,3.75,0,0,1-1.278.788,4.717,4.717,0,0,1-1.67.28h-.852v-1.7h.852a4.149,4.149,0,0,0,1.132-.136,1.808,1.808,0,0,0,.784-.436A1.83,1.83,0,0,0-69.9.712a3.963,3.963,0,0,0,.15-1.169V-4.609h1.7V-2.57a.866.866,0,0,0,.133.5,1.025,1.025,0,0,0,.307.3,1.077,1.077,0,0,0,.337.14,1.334,1.334,0,0,0,.225.034h.259Zm-.464-1.7h.88a2.537,2.537,0,0,0,.651-.068.9.9,0,0,0,.389-.2.658.658,0,0,0,.188-.324,1.806,1.806,0,0,0,.048-.436V-4.609h1.7v1.95a1.066,1.066,0,0,0,.266.8,1.219,1.219,0,0,0,.845.259H-62.3a1.6,1.6,0,0,0,.249-.041.761.761,0,0,0,.286-.14.839.839,0,0,0,.239-.307,1.242,1.242,0,0,0,.1-.542V-4.609h1.691v1.95a1.076,1.076,0,0,0,.266.811A1.232,1.232,0,0,0-58.6-1.6a1.059,1.059,0,0,0,.324-.051.77.77,0,0,0,.29-.17.892.892,0,0,0,.211-.31,1.367,1.367,0,0,0,.1-.47V-4.609h1.7v2.018a.93.93,0,0,0,.32.76,1.541,1.541,0,0,0,.941.235h.668V.1h-.668a4.322,4.322,0,0,1-1.22-.153,2.219,2.219,0,0,1-.893-.5,2.36,2.36,0,0,1-.815.487A2.805,2.805,0,0,1-58.6.1a3.622,3.622,0,0,1-1.122-.157,2.289,2.289,0,0,1-.856-.5,2.617,2.617,0,0,1-.794.484,2.553,2.553,0,0,1-.89.177,3.307,3.307,0,0,1-1.128-.164,2.635,2.635,0,0,1-.842-.47A3.345,3.345,0,0,1-66.375.1h-.88Zm6.566-5.836-1.159,1.173-1.159-1.159,1.159-1.173Zm2.925-.027L-58.909-6.3-60.1-7.445l1.173-1.173ZM-59.27-9.382l-1.091,1.091-1.077-1.077,1.091-1.091ZM-47.018-1.6V.1h-1.009a3.371,3.371,0,0,1-1.057-.157,2.128,2.128,0,0,1-.8-.464,2.43,2.43,0,0,1-.9.47,4.311,4.311,0,0,1-1.19.15h-2.359V-1.6h2.359a2.28,2.28,0,0,0,.665-.078.993.993,0,0,0,.375-.194.535.535,0,0,0,.164-.259,1.1,1.1,0,0,0,.037-.28V-4.616h1.691v2.161a.76.76,0,0,0,.136.481.9.9,0,0,0,.31.259,1.009,1.009,0,0,0,.344.1q.17.017.232.017Zm-2.775,5.448-1.145-1.159,1.132-1.173,1.173,1.173Zm-2.857.007L-53.8,2.7l1.125-1.173L-51.5,2.7Zm10.507-9.484q.014.048.058.225t.1.433q.055.256.112.569t.109.631q.051.317.082.617a5.243,5.243,0,0,1,.031.525,2.944,2.944,0,0,1-.232,1.217,2.483,2.483,0,0,1-.607.849,2.5,2.5,0,0,1-.842.5A2.819,2.819,0,0,1-44.27.1h-2.939V-1.6h2.986a1.654,1.654,0,0,0,.235-.024.766.766,0,0,0,.307-.126.873.873,0,0,0,.269-.31,1.175,1.175,0,0,0,.116-.569,3.386,3.386,0,0,0-.024-.365q-.024-.215-.065-.46t-.092-.5q-.051-.256-.1-.484t-.1-.416q-.048-.187-.075-.29ZM-46.9,2.345l1.159-1.159,1.159,1.173-1.159,1.159Zm2.843.014L-42.88,1.2l1.159,1.173L-42.88,3.532Zm-1.357,1.909,1.077-1.077,1.091,1.091-1.077,1.077ZM-27.675.1h-.191A5.17,5.17,0,0,1-28.889,0,3.794,3.794,0,0,1-29.8-.3a2.82,2.82,0,0,1-.74-.515,2.549,2.549,0,0,1-.528-.743,1.77,1.77,0,0,1-.419.447,2.652,2.652,0,0,1-.556.324,3.12,3.12,0,0,1-.62.194,3.1,3.1,0,0,1-.614.065,2.807,2.807,0,0,1-1.033-.191,2.6,2.6,0,0,1-.856-.542,2.54,2.54,0,0,1-.583-.856,2.881,2.881,0,0,1-.215-1.139,2.861,2.861,0,0,1,.28-1.3,3.294,3.294,0,0,1,.743-.978,4.613,4.613,0,0,1,1.067-.716,10.251,10.251,0,0,1,1.251-.515l-.164-.655,1.664-.389,1.241,4.827a1.607,1.607,0,0,0,.355.712,1.865,1.865,0,0,0,.535.416,2.072,2.072,0,0,0,.593.2,3.237,3.237,0,0,0,.528.051h.191Zm-4.2-3.389a1.371,1.371,0,0,0,.027-.385,2.879,2.879,0,0,0-.061-.413q-.048-.218-.126-.47T-32.2-5.12a5.367,5.367,0,0,0-1.653.788,1.333,1.333,0,0,0-.562,1.087.894.894,0,0,0,.112.45,1.015,1.015,0,0,0,.293.327,1.209,1.209,0,0,0,.4.188,1.1,1.1,0,0,0,.447.024,2.047,2.047,0,0,0,.852-.3A1.068,1.068,0,0,0-31.875-3.286Zm13.152.675q-.034.02-.218.147t-.5.324a.653.653,0,0,0,.211.317,1,1,0,0,0,.293.164,1.046,1.046,0,0,0,.283.058q.133.007.188.007h1.248V.1h-1.248a3.047,3.047,0,0,1-1.456-.358,2.427,2.427,0,0,1-1.006-1.053q-.525.259-1.132.515a12.442,12.442,0,0,1-1.268.453,12.033,12.033,0,0,1-1.357.32A7.989,7.989,0,0,1-26.073.1H-28.1V-1.6h2.032a8.055,8.055,0,0,0,1.425-.136,14.532,14.532,0,0,0,1.493-.351q.736-.215,1.4-.481A12.22,12.22,0,0,0-20.6-3.089l-.675-.208q-.368-.113-.75-.225t-.757-.218q-.375-.106-.7-.187t-.586-.13a2.4,2.4,0,0,0-.409-.048.922.922,0,0,0-.276.037.581.581,0,0,0-.215.123.948.948,0,0,0-.177.222,3.54,3.54,0,0,0-.17.327l-1.561-.47a4.72,4.72,0,0,1,.317-.767,2.5,2.5,0,0,1,.457-.624,2.022,2.022,0,0,1,.624-.419,2.026,2.026,0,0,1,.811-.153,2.442,2.442,0,0,1,.5.075q.327.075.743.2t.89.28q.474.157.951.327t.927.334l.811.3.607.222q.245.089.314.109ZM-26.086-8.6l1.227-1.241L-23.6-8.584l-1.241,1.241Zm8.414,7h.88a2.537,2.537,0,0,0,.651-.068.9.9,0,0,0,.389-.2.658.658,0,0,0,.188-.324,1.806,1.806,0,0,0,.048-.436V-4.609h1.7v1.95a1.066,1.066,0,0,0,.266.8,1.219,1.219,0,0,0,.845.259h-.007a1.6,1.6,0,0,0,.249-.041.761.761,0,0,0,.286-.14.839.839,0,0,0,.239-.307,1.242,1.242,0,0,0,.1-.542V-4.609h1.691v1.95a1.076,1.076,0,0,0,.266.811A1.232,1.232,0,0,0-9.02-1.6,1.059,1.059,0,0,0-8.7-1.647a.77.77,0,0,0,.29-.17.892.892,0,0,0,.211-.31,1.367,1.367,0,0,0,.1-.47V-4.609h1.7v2.018a.93.93,0,0,0,.32.76,1.541,1.541,0,0,0,.941.235h.668V.1h-.668a4.322,4.322,0,0,1-1.22-.153,2.219,2.219,0,0,1-.893-.5,2.36,2.36,0,0,1-.815.487A2.8,2.8,0,0,1-9.02.1a3.622,3.622,0,0,1-1.122-.157A2.289,2.289,0,0,1-11-.559a2.617,2.617,0,0,1-.794.484,2.553,2.553,0,0,1-.89.177A3.307,3.307,0,0,1-13.81-.061a2.635,2.635,0,0,1-.842-.47A3.345,3.345,0,0,1-16.793.1h-.88ZM-.907-5.625q.014.048.058.225t.1.433q.055.256.113.569t.109.631q.051.317.082.617a5.243,5.243,0,0,1,.031.525A2.944,2.944,0,0,1-.648-1.408a2.483,2.483,0,0,1-.607.849,2.5,2.5,0,0,1-.842.5A2.819,2.819,0,0,1-3.034.1H-4.848V-1.6h1.861a1.653,1.653,0,0,0,.235-.024.766.766,0,0,0,.307-.126.873.873,0,0,0,.269-.31,1.175,1.175,0,0,0,.116-.569,3.386,3.386,0,0,0-.024-.365q-.024-.215-.065-.46t-.092-.5q-.051-.256-.1-.484t-.1-.416q-.048-.187-.075-.29ZM-3.8-8.366-2.57-9.607l1.255,1.255L-2.557-7.111Z" transform="translate(-4963.991 -3006.965)" fill="#1e2837"/>
    <g id="Group_9057" data-name="Group 9057" transform="translate(-4952.654 -3020.965)">
      <path id="Path_4575" data-name="Path 4575" d="M843.867,314.174c-.085.1-.173.2-.254.3a1.9,1.9,0,0,1-1.745.7.689.689,0,0,1-.45-.832,2.719,2.719,0,0,1,.646-1.2c.474-.5.956-1,1.464-1.463a5.745,5.745,0,0,1,2.492-1.452,10.475,10.475,0,0,1,1.227-.2,3.92,3.92,0,0,1,2.154.395,4.035,4.035,0,0,1,1.77,1.627,4.838,4.838,0,0,1,.62,2.968,7.661,7.661,0,0,1-.948,2.993,13.21,13.21,0,0,1-2.26,2.993,16.085,16.085,0,0,1-2.2,1.913c-.139.1-.286.185-.428.278l.006.058a.566.566,0,0,0,.153.006c.559-.124,1.115-.269,1.677-.373a5.188,5.188,0,0,1,.878-.047.616.616,0,0,0,.5-.207c.468-.521.967-1.014,1.416-1.552a11.318,11.318,0,0,0,2.283-4,6.159,6.159,0,0,0,.263-2.158,5.889,5.889,0,0,0-.168-.834c-.008-.037-.016-.074-.037-.168.092.061.156.082.19.128.292.4.595.8.862,1.219a5.394,5.394,0,0,1,.879,2.374,4.562,4.562,0,0,1-.407,2.573.413.413,0,0,0-.044.2,2.892,2.892,0,0,0,.78-2.589l.1,0a2,2,0,0,1,.107.365c.049.481.068.966.13,1.445a4.8,4.8,0,0,1-.089,1.606,2.1,2.1,0,0,1-.513,1.061.282.282,0,0,0-.063.145,1.593,1.593,0,0,0,.749-.706,3.3,3.3,0,0,1-.168,1.342c-.182.4-.369.8-.546,1.185.488.339.986.67,1.469,1.024a11.285,11.285,0,0,1,1.827,1.747,11.894,11.894,0,0,1,1.765,2.725,12.35,12.35,0,0,1,.971,2.992,13.236,13.236,0,0,1,.231,3.06,8.4,8.4,0,0,1-.157,1.169c-.108.584-.21,1.171-.367,1.742a12.189,12.189,0,0,1-4.074,6.105c-.126.1-.254.2-.377.3-.186.16-.227.153-.389-.035-.343-.4-.674-.815-1.042-1.191a7.483,7.483,0,0,0-3.5-2.056c-.522-.137-1.047-.264-1.577-.364a9.032,9.032,0,0,0-.991-.09c-.316-.024-.632-.042-.954-.093a11.285,11.285,0,0,1,4.362-1.17.979.979,0,0,0-.648-.307c-.255-.039-.517-.03-.776-.05a1.224,1.224,0,0,1-.233-.065l.011-.089c.265-.031.529-.078.794-.087.409-.015.819-.01,1.229,0a1.7,1.7,0,0,1,.906.248,4.452,4.452,0,0,1,.416.34l.065-.047a2.035,2.035,0,0,0-.231-.355,2.345,2.345,0,0,0-.361-.259l.019-.066a5.224,5.224,0,0,1,.685.108,4.383,4.383,0,0,1,1.451.72c.211.161.281.153.419-.038a8.7,8.7,0,0,0,1.617-5.551,8.641,8.641,0,0,0-2.2-5.271,8,8,0,0,0-4.171-2.511,9.853,9.853,0,0,0-1.508-.21,7.692,7.692,0,0,0-4.466,1.067,7.893,7.893,0,0,0-1.5,1.125,8.432,8.432,0,0,0-1.923,2.651,8.829,8.829,0,0,0-.683,2.261,8.509,8.509,0,0,0-.1,2.009,8.364,8.364,0,0,0,.487,2.319,8.873,8.873,0,0,0,1.362,2.443,8.18,8.18,0,0,0,5.495,3.085,9.3,9.3,0,0,1,3.446,1.072,8.5,8.5,0,0,1,1.558,1.117,8.6,8.6,0,0,1,2.453,4.12,12.476,12.476,0,0,1,.337,1.732c.074.54.088,1.088.128,1.633.014.191.029.381.039.572a.581.581,0,0,1-.023.133l-.06.013c-.027-.086-.06-.171-.079-.259a9.122,9.122,0,0,0-.693-1.918,7.917,7.917,0,0,0-1.228-1.894,6.228,6.228,0,0,0-2.048-1.5,10.565,10.565,0,0,0-2.261-.712c-.547-.121-1.107-.184-1.663-.263a13.662,13.662,0,0,1-3.662-.965,11.977,11.977,0,0,1-2.854-1.772,12.338,12.338,0,0,1-3.354-4.415,12.509,12.509,0,0,1-.928-3.071,11.668,11.668,0,0,1-.165-2.644,13.13,13.13,0,0,1,1.948-6.232c.432-.706.888-1.4,1.374-2.066a18.649,18.649,0,0,1,1.246-1.5c.659-.731,1.329-1.453,2.016-2.157.964-.988,1.966-1.938,2.919-2.937a9.451,9.451,0,0,0,1.725-2.337,2.725,2.725,0,0,0,.326-1.267,1.764,1.764,0,0,0-1.548-1.927,2.526,2.526,0,0,0-1.787.277,2.355,2.355,0,0,0-.488.418,4.136,4.136,0,0,1-1.175.9c-.1.052-.266.112-.344.066-.131-.076-.112-.249-.048-.389q.186-.411.383-.816c.068-.14.146-.275.219-.413Zm11.447,5.232c-.17.312-.322.613-.5.9a1.219,1.219,0,0,1-.875.473,5.057,5.057,0,0,0,.63-2.866,5.43,5.43,0,0,0-1.064-2.7c-.012.185.018.364.019.543a5.782,5.782,0,0,1-.269,1.745,10.049,10.049,0,0,1-.935,2.1,17.759,17.759,0,0,1-2.284,3.11c-.037.04-.068.086-.11.139.267.024.508.026.741.069.563.1,1.13.2,1.683.351a9.41,9.41,0,0,1,2.132.844c.1.058.211.078.276-.047a6.371,6.371,0,0,0,.659-1.606.888.888,0,0,0-.011-.2,1.863,1.863,0,0,1-1.311.549.175.175,0,0,1,.076-.127,2.018,2.018,0,0,0,1.006-1.349,5.927,5.927,0,0,0,.163-1.769A.9.9,0,0,0,855.314,319.407Z" transform="translate(-837.155 -310.005)" fill="url(#linear-gradient)"/>
      <path id="Path_4576" data-name="Path 4576" d="M845.608,320.959a3.014,3.014,0,0,1-.243.423c-.314.391-.641.772-.968,1.152-.272.317-.549.628-.829.938a.539.539,0,0,1-.172.1c-.143.068-.256.009-.233-.148a3.865,3.865,0,0,1,.172-.661c.216-.647.446-1.29.662-1.937.042-.126.04-.267.072-.4a.556.556,0,0,1,.849-.407,1.1,1.1,0,0,1,.638.9Z" transform="translate(-839.664 -314.156)" fill="url(#linear-gradient)"/>
    </g>
  </g>
</svg>
