<svg id="Layer_1" data-name="Layer 1" xmlns="http://www.w3.org/2000/svg" xmlns:xlink="http://www.w3.org/1999/xlink" viewBox="0 0 512 512"><defs><style>.cls-1{fill:none;}.cls-2{fill:#9c9da0;}.cls-3{fill:#2e3129;}.cls-4{fill:#606668;}.cls-5{fill:#c1cbcf;}.cls-6{fill:#b25ca3;}.cls-7{fill:#8c2d90;}.cls-8{fill:#452568;}.cls-9{fill:#fff;}.cls-10{fill:#cf96c3;}.cls-11{clip-path:url(#clip-path);}.cls-12,.cls-14{opacity:0.22;}.cls-13,.cls-14{fill:#a5bebd;}.cls-14{isolation:isolate;}.cls-15{fill:#ec7423;}</style><clipPath id="clip-path"><path class="cls-1" d="M219.47,149.51a1372.83,1372.83,0,0,1,143.59-1.72,78.06,78.06,0,0,1,39.28,12.73c24,15.71,51.5,39.4,65.72,58.15l-193.7-1.23L114.59,221.8l57.92-52.27A78.32,78.32,0,0,1,219.47,149.51Z"/></clipPath></defs><title>Artboard 1</title><g id="Group_10336" data-name="Group 10336"><g id="Group_10283" data-name="Group 10283"><path id="Path_8634" data-name="Path 8634" class="cls-2" d="M3,351.6a5.77,5.77,0,0,0,5.73,5.81H504.16a5.77,5.77,0,0,0,5.74-5.8h0a5.78,5.78,0,0,0-5.74-5.82H8.73A5.77,5.77,0,0,0,3,351.59H3Z"/></g></g><g id="Group_10372" data-name="Group 10372"><g id="Group_10361" data-name="Group 10361"><path id="Path_9377" data-name="Path 9377" class="cls-3" d="M254.06,183.3h-26.8l-10.82,33.87h37.62Z"/><path id="Path_9378" data-name="Path 9378" class="cls-3" d="M334.36,183.3H307.55l-10.82,33.87h37.63Z"/></g><g id="Group_10362" data-name="Group 10362"><path id="Path_9379" data-name="Path 9379" class="cls-4" d="M64.05,258.56H84.63c17,0,30.82,19.64,30.82,43.86s-13.8,43.87-30.82,43.87H64.05c-17,0-30.82-19.64-30.82-43.87S47,258.56,64.05,258.56Z"/><ellipse id="Ellipse_749" data-name="Ellipse 749" class="cls-3" cx="84.63" cy="302.42" rx="30.82" ry="43.87"/></g><g id="Group_10363" data-name="Group 10363"><path id="Path_9380" data-name="Path 9380" class="cls-4" d="M282.15,258.56h20.58c17,0,30.82,19.64,30.82,43.86s-13.8,43.87-30.82,43.87H282.15c-17,0-30.82-19.64-30.82-43.87S265.14,258.56,282.15,258.56Z"/><ellipse id="Ellipse_750" data-name="Ellipse 750" class="cls-3" cx="302.73" cy="302.42" rx="30.82" ry="43.87"/></g><path id="Path_9381" data-name="Path 9381" class="cls-3" d="M481.93,239.2H66.56v76.7H439.29l42.64-14.58Z"/><g id="Group_10364" data-name="Group 10364"><path id="Path_9382" data-name="Path 9382" class="cls-3" d="M193.44,258.56H214c17,0,30.82,19.64,30.82,43.86S231,346.29,214,346.29H193.44c-17,0-30.82-19.64-30.82-43.87S176.42,258.56,193.44,258.56Z"/><ellipse id="Ellipse_751" data-name="Ellipse 751" class="cls-4" cx="214.02" cy="302.42" rx="30.82" ry="43.87"/><ellipse id="Ellipse_752" data-name="Ellipse 752" class="cls-5" cx="214.02" cy="302.42" rx="21.23" ry="30.22"/><ellipse id="Ellipse_753" data-name="Ellipse 753" class="cls-4" cx="208.14" cy="302.42" rx="13.98" ry="19.91"/></g><g id="Group_10365" data-name="Group 10365"><path id="Path_9383" data-name="Path 9383" class="cls-3" d="M426.24,258.56h20.59c17,0,30.81,19.64,30.81,43.86s-13.79,43.87-30.81,43.87H426.24c-17,0-30.81-19.64-30.81-43.87S409.22,258.56,426.24,258.56Z"/><ellipse id="Ellipse_754" data-name="Ellipse 754" class="cls-4" cx="446.83" cy="302.42" rx="30.82" ry="43.87"/><ellipse id="Ellipse_755" data-name="Ellipse 755" class="cls-5" cx="446.83" cy="302.42" rx="21.23" ry="30.22"/><ellipse id="Ellipse_756" data-name="Ellipse 756" class="cls-4" cx="440.94" cy="302.42" rx="13.98" ry="19.91"/></g><path id="Path_9384" data-name="Path 9384" class="cls-6" d="M114.59,221.8l159.77-4.36,193.7,1.21,21.13.13a16.92,16.92,0,0,1,15.94,11.66,84.8,84.8,0,0,1,4.71,31,49,49,0,0,1-15.72,33.84l-12.18,5.89v-9.3c0-25.72-15.47-46.57-34.55-46.57s-34.56,20.85-34.56,46.57h0A18.13,18.13,0,0,1,394.7,310H248.15V291.89c0-25.72-15.46-46.57-34.55-46.57s-34.55,20.85-34.55,46.57h0A18.13,18.13,0,0,1,160.92,310H18.53c-11.59-4.23-14.71-19.3-14.71-29.65V255.43a22.62,22.62,0,0,1,16.1-21.65C46.43,225.77,75.94,223,114.59,221.8Z"/><path id="Path_9385" data-name="Path 9385" class="cls-7" d="M499.56,289.25a50.49,50.49,0,0,1-5.45,6.06l-12.18,5.89v-9.31c0-.9-.06-1.76-.1-2.64Z"/><path id="Path_9386" data-name="Path 9386" class="cls-7" d="M412.92,289.25c0,.94-.1,1.86-.09,2.81a18,18,0,0,1-18.07,18H248.14V291.89c0-.9-.06-1.76-.09-2.64Z"/><path id="Path_9387" data-name="Path 9387" class="cls-7" d="M179.14,289.25c0,.94-.11,1.86-.1,2.8A18,18,0,0,1,161,310H18.53C10,306.91,6.06,297.91,4.59,289.25Z"/><path id="Path_9388" data-name="Path 9388" class="cls-8" d="M123.18,200.23h12a17.84,17.84,0,0,1,15.41,8.84l6.59,11.26-35.1-5a7.6,7.6,0,0,1-6.55-7.53h0a7.62,7.62,0,0,1,7.6-7.62Z"/><path id="Path_9389" data-name="Path 9389" class="cls-3" d="M120.23,216.71,331,211.3C315,190,302.75,176.45,291.2,167.7a37.34,37.34,0,0,0-21.81-7.61A536.36,536.36,0,0,0,177,165.77a78.16,78.16,0,0,1,42.42-16.26,1370.29,1370.29,0,0,1,143.6-1.71,77.79,77.79,0,0,1,39.18,12.66c3.49,2.29,7.05,4.76,10.64,7.34H329.22L359,203h95.28a167.58,167.58,0,0,1,13.81,15.71l-193.69-1.23L114.59,221.8Z"/><path id="Path_9390" data-name="Path 9390" class="cls-9" d="M219.47,149.51a1372.83,1372.83,0,0,1,143.59-1.72,78.06,78.06,0,0,1,39.28,12.73c24,15.71,51.5,39.4,65.72,58.15l-193.7-1.23L114.59,221.8l57.92-52.27A78.32,78.32,0,0,1,219.47,149.51Z"/><g id="Group_10366" data-name="Group 10366"><rect id="Rectangle_2152" data-name="Rectangle 2152" class="cls-10" x="235.94" y="181" width="73.44" height="11.76" transform="translate(1.34 375.71) rotate(-69.26)"/></g><g id="Group_10369" data-name="Group 10369"><g class="cls-11"><g id="Group_10368" data-name="Group 10368"><g id="Group_10367" data-name="Group 10367" class="cls-12"><path id="Path_9391" data-name="Path 9391" class="cls-13" d="M242.06,153.75h35.65l-46,68.58H196.05Z"/><path id="Path_9392" data-name="Path 9392" class="cls-13" d="M351.7,153.75l-46,68.58H286.26l46-68.58Z"/><path id="Path_9393" data-name="Path 9393" class="cls-13" d="M421.42,153.75l-46,68.58H356l46-68.58Z"/></g></g></g></g><path id="Path_9395" data-name="Path 9395" class="cls-14" d="M166.47,220l-51.88,1.82,57.92-52.27a78.27,78.27,0,0,1,47-20c1.91-.14,3.88-.24,5.82-.37Z"/><path id="Path_9396" data-name="Path 9396" class="cls-10" d="M383.11,158.38a25.79,25.79,0,0,1,19.23,2.14c24,15.72,51.5,39.4,65.72,58.15l-18.54-.11C429.32,191.43,399.77,163.05,383.11,158.38Z"/><path id="Path_9397" data-name="Path 9397" class="cls-10" d="M180.86,163.05a78,78,0,0,1,38.61-13.54,1372.83,1372.83,0,0,1,143.59-1.72,78.06,78.06,0,0,1,39.28,12.73c1.25.82,2.51,1.67,3.77,2.53C386.84,151.92,198.82,152.76,180.86,163.05Z"/><g id="Group_10370" data-name="Group 10370"><rect id="Rectangle_2153" data-name="Rectangle 2153" class="cls-10" x="348.31" y="150.99" width="8.82" height="75.72" transform="translate(-32.91 82.23) rotate(-12.71)"/></g><path id="Path_9398" data-name="Path 9398" class="cls-6" d="M300,197.35H288.3a18.52,18.52,0,0,0-16,9.16l-6.4,10.93,35.1-4.95a7.6,7.6,0,0,0,6.55-7.53h0a7.61,7.61,0,0,0-7.61-7.61Z"/><path id="Path_9399" data-name="Path 9399" class="cls-9" d="M115.45,247.84a141.74,141.74,0,0,1,37.68-2.32,18,18,0,0,1,16.77,17.86v.35H112.5Z"/><path id="Path_9400" data-name="Path 9400" class="cls-15" d="M153.62,245.58a18,18,0,0,1,16.3,17.8v.35H150.67Z"/><path id="Path_9401" data-name="Path 9401" class="cls-6" d="M8.74,241.47a23,23,0,0,1,11.4-7.76c26.46-8,55.91-10.7,94.45-11.92l159.77-4.35,193.7,1.21,21.11.13A16.75,16.75,0,0,1,505,230.13l0,.11c-128.31.38-267.24,4.78-337.83,11.22C105.45,243.67,34.88,245.58,8.74,241.47Z"/><path id="Path_9402" data-name="Path 9402" class="cls-9" d="M3.82,255.43a22.43,22.43,0,0,1,2.43-10.09,145.86,145.86,0,0,1,21.14,2.5l2.94,15.89H3.82Z"/><path id="Path_9403" data-name="Path 9403" class="cls-3" d="M102.51,263.73c-22.56,4.35-43.71,4.89-62.85,0l-2.94-15.29h68.73Z"/><g id="Group_10371" data-name="Group 10371"><rect id="Rectangle_2154" data-name="Rectangle 2154" class="cls-9" x="264.95" y="247.4" width="15.24" height="15.24"/><rect id="Rectangle_2155" data-name="Rectangle 2155" class="cls-9" x="280.19" y="262.64" width="15.24" height="15.24"/><rect id="Rectangle_2156" data-name="Rectangle 2156" class="cls-9" x="295.44" y="247.4" width="15.24" height="15.24"/><rect id="Rectangle_2157" data-name="Rectangle 2157" class="cls-9" x="310.68" y="262.64" width="15.24" height="15.24"/><rect id="Rectangle_2158" data-name="Rectangle 2158" class="cls-9" x="325.93" y="247.4" width="15.24" height="15.24"/><rect id="Rectangle_2159" data-name="Rectangle 2159" class="cls-9" x="341.17" y="262.64" width="15.24" height="15.24"/><rect id="Rectangle_2160" data-name="Rectangle 2160" class="cls-9" x="356.42" y="247.4" width="15.24" height="15.24"/><rect id="Rectangle_2161" data-name="Rectangle 2161" class="cls-9" x="371.66" y="262.64" width="15.24" height="15.24"/><rect id="Rectangle_2162" data-name="Rectangle 2162" class="cls-9" x="386.91" y="247.4" width="15.24" height="15.24"/></g></g></svg>